<svg width="71" height="72" viewBox="0 0 71 72" fill="none" xmlns="http://www.w3.org/2000/svg">
<path fill-rule="evenodd" clip-rule="evenodd" d="M65.0609 1C65.0609 12.6973 67.1739 31.6614 63.2797 42.2549C58.8699 56.257 48.6059 65.5167 35.3102 71H35.1877C21.892 65.5167 11.6281 56.257 7.21827 42.2549C3.32909 31.6614 5.43701 12.6922 5.43701 1H65.0558H65.0609Z" fill="white" stroke="#5A4499" stroke-width="0.227512" stroke-miterlimit="22.93"/>
<path fill-rule="evenodd" clip-rule="evenodd" d="M65.0609 1C65.0609 12.6973 67.1739 31.6614 63.2797 42.2549C58.8699 56.257 48.6059 65.5167 35.3102 71H35.1877C21.892 65.5167 11.6281 56.257 7.21827 42.2549C3.32909 31.6614 5.43701 12.6922 5.43701 1H65.0558H65.0609ZM62.8969 3.17185H7.60107C7.46326 13.9544 5.82491 32.2082 9.25984 41.5293L9.27516 41.5804C13.3124 54.4326 22.8209 63.4266 35.0295 68.5931H35.4634C47.6719 63.4317 57.1805 54.4326 61.2177 41.5804L61.233 41.5293C64.6679 32.2082 63.0296 13.9544 62.8918 3.17185H62.8969Z" fill="#5A4499"/>
<path d="M47.0238 32.8214C48.0701 33.4653 48.9123 34.3085 49.5452 35.3612C50.1781 36.4088 50.4945 37.671 50.4945 39.1428C50.4945 42.26 48.9685 44.8202 45.9214 46.8132C42.8744 48.8113 38.9903 49.8078 34.2692 49.8078C30.2218 49.8078 27.0165 49.0311 24.6585 47.4827C22.3005 45.9343 21.1165 43.9719 21.1165 41.5906C21.1165 40.543 21.5145 39.5976 22.3108 38.7646C23.107 37.9265 24.0869 37.5075 25.2404 37.5075C26.598 37.5075 27.6749 37.855 28.466 38.55C29.2571 39.245 29.6502 40.1801 29.6502 41.3555C29.6502 42.2498 29.497 43.1287 29.1908 43.9975C28.8846 44.8662 28.6498 45.5408 28.4763 46.0263C29.0224 46.4197 29.6348 46.7672 30.3188 47.0687C31.0027 47.3702 31.9775 47.5287 33.2586 47.5287C35.7442 47.5287 37.699 46.7979 39.1179 45.3415C40.5419 43.8851 41.2514 41.8767 41.2514 39.3216C41.2514 38.5244 41.1646 37.7119 40.9962 36.8891C40.8226 36.0664 40.4959 35.3561 40.0111 34.7633C39.5415 34.1654 38.8423 33.6799 37.9134 33.2915C36.9845 32.9083 35.831 32.7141 34.453 32.7141H31.2885V29.8983H33.5904C35.9229 29.8983 37.5816 29.3209 38.5616 28.1609C39.5415 27.0008 40.0315 25.1816 40.0315 22.6929C40.0315 21.911 39.9243 21.165 39.7151 20.4649C39.5058 19.7647 39.1843 19.1515 38.7658 18.6354C38.3268 18.1193 37.7858 17.7104 37.1325 17.4038C36.4843 17.0972 35.7187 16.9439 34.8408 16.9439C32.8044 16.9439 30.9925 17.8433 29.395 19.6472C27.7975 21.4511 26.5164 24.0522 25.5466 27.4557H23.4846L23.6939 15.5795H25.8018L27.1849 16.8724C28.4048 16.2796 29.7879 15.7634 31.3344 15.324C32.8809 14.8845 34.6469 14.6647 36.6323 14.6647C40.5062 14.6647 43.5583 15.3802 45.7734 16.811C47.9885 18.2419 49.1012 20.1429 49.1012 22.5038C49.1012 23.2704 48.9583 24.0778 48.6673 24.921C48.3764 25.7642 47.8966 26.5307 47.2229 27.2206C46.5492 27.9411 45.6458 28.6055 44.5025 29.2136C43.3593 29.8217 41.8996 30.3225 40.1183 30.716V31.0226C41.2463 31.0379 42.4201 31.181 43.6451 31.457C44.87 31.7329 45.9929 32.1826 47.0086 32.8061L47.0238 32.8214Z" fill="#5A4499"/>
</svg>
