<?xml version="1.0" encoding="utf-8"?><svg viewBox="0 0 400 400" xmlns="http://www.w3.org/2000/svg" xmlns:xlink="http://www.w3.org/1999/xlink"><style>:root>svg{display:none}:root>svg:target{display:block}</style><svg viewBox="0 0 27 27" fill="none" id="address" xmlns="http://www.w3.org/2000/svg"><path fill-rule="evenodd" clip-rule="evenodd" d="M9.5 9.703a4 4 0 1 1 8 0 4 4 0 0 1-8 0Zm4-2a2 2 0 1 0 0 4 2 2 0 0 0 0-4Z" fill="currentColor"/><path fill-rule="evenodd" clip-rule="evenodd" d="M4.5 9.703a9 9 0 0 1 18 0c0 .992-.467 2.293-1.063 3.566-.62 1.319-1.458 2.769-2.355 4.114-.895 1.342-1.867 2.61-2.762 3.555-.446.47-.895.884-1.324 1.188-.392.278-.92.577-1.496.577-.575 0-1.104-.299-1.496-.577-.43-.304-.878-.718-1.324-1.188-.895-.945-1.867-2.213-2.762-3.555-.897-1.345-1.736-2.795-2.355-4.114C4.967 11.995 4.5 10.694 4.5 9.703Zm9-7a7 7 0 0 0-7 7c0 .509.283 1.457.874 2.716.569 1.212 1.355 2.574 2.208 3.854.855 1.283 1.758 2.453 2.55 3.29.398.42.746.732 1.028.932.185.13.295.18.34.198.045-.018.155-.068.34-.198.282-.2.63-.512 1.028-.933.792-.836 1.695-2.006 2.55-3.289.853-1.28 1.64-2.642 2.208-3.854.59-1.26.874-2.207.874-2.716a7 7 0 0 0-7-7Z" fill="currentColor"/><path d="M5.786 19.68a1 1 0 1 0-.572-1.917c-1.285.384-2.404.873-3.224 1.472-.8.584-1.49 1.407-1.49 2.468 0 .99.603 1.774 1.324 2.343.733.577 1.73 1.053 2.874 1.434 2.299.766 5.41 1.223 8.802 1.223 3.391 0 6.503-.457 8.802-1.223 1.143-.381 2.142-.857 2.874-1.434.721-.569 1.324-1.353 1.324-2.343 0-1.061-.69-1.884-1.49-2.468-.82-.598-1.94-1.088-3.224-1.472a1 1 0 0 0-.572 1.917c1.17.349 2.051.758 2.617 1.17.586.428.669.73.669.853 0 .115-.069.383-.562.772-.482.38-1.241.765-2.269 1.108-2.045.681-4.933 1.12-8.169 1.12-3.236 0-6.124-.439-8.17-1.12-1.027-.343-1.786-.728-2.268-1.108-.493-.389-.562-.657-.562-.772 0-.123.083-.425.669-.852.566-.413 1.447-.822 2.617-1.171Z" fill="currentColor"/></svg><svg viewBox="0 0 18 18" fill="none" id="approved" xmlns="http://www.w3.org/2000/svg"><path d="m6.23 17.5-1.563-2.583-2.938-.667.271-3L0 9l2-2.25-.27-3 2.937-.667L6.229.5 9 1.688 11.77.5l1.563 2.583 2.938.667-.271 3L18 9l-2 2.25.27 3-2.937.667-1.562 2.583L9 16.312 6.23 17.5ZM7.936 12l4.959-4.938L11.833 6 7.937 9.875l-1.77-1.75-1.063 1.063L7.937 12Z" fill="currentColor"/></svg><svg fill="none" viewBox="0 0 11 6" id="arr" xmlns="http://www.w3.org/2000/svg"><path fill-rule="evenodd" clip-rule="evenodd" d="M9.5 6 5.177 1.823 1 6l-.884-.677 5.06-5.06 5.062 5.06L9.5 6Z" fill="currentColor"/></svg><svg viewBox="0 0 12 22" fill="none" id="arr-breadcrumbs" xmlns="http://www.w3.org/2000/svg"><path d="m1-3 10 14L1 25" stroke="#E2E2E2" stroke-width="2" stroke-linecap="round" stroke-linejoin="round"/></svg><svg viewBox="0 0 12 22" fill="none" id="arr-breadcrumbs-yellow" xmlns="http://www.w3.org/2000/svg"><path d="m1-3 10 14L1 25" stroke="#FFE800" stroke-width="2" stroke-linecap="round" stroke-linejoin="round"/></svg><svg fill="none" viewBox="0 0 13 6" id="arr-down" xmlns="http://www.w3.org/2000/svg"><path d="M6.5 6 .87 0h11.26L6.5 6Z" fill="#C7BCE2"/></svg><svg viewBox="0 0 12 8" fill="none" id="arr-down2" xmlns="http://www.w3.org/2000/svg"><path fill-rule="evenodd" clip-rule="evenodd" d="m10 .94-.53.53L6 4.94 2.53 1.47 2 .94.94 2l.53.53 4 4 .53.53.53-.53 4-4 .53-.53L10 .94Z" fill="currentColor"/></svg><svg viewBox="0 0 8 19" fill="none" id="arr-down3" xmlns="http://www.w3.org/2000/svg"><path d="M.494 14.156v-.742c.775.384 1.315.674 1.621.87.313.194.778.54 1.397 1.034V.924h.986v14.394c.703-.67 1.709-1.311 3.018-1.923v.752c-.938.84-1.65 1.562-2.139 2.167a9.681 9.681 0 0 0-1.182 1.875h-.449c-.24-.56-.609-1.155-1.103-1.787-.489-.631-1.205-1.38-2.149-2.246Z" fill="currentColor"/><path d="M.494 14.156v-.742c.775.384 1.315.674 1.621.87.313.194.778.54 1.397 1.034V.924h.986v14.394c.703-.67 1.709-1.311 3.018-1.923v.752c-.938.84-1.65 1.562-2.139 2.167a9.681 9.681 0 0 0-1.182 1.875h-.449c-.24-.56-.609-1.155-1.103-1.787-.489-.631-1.205-1.38-2.149-2.246Z" fill="currentColor" fill-opacity=".2"/></svg><svg viewBox="0 0 19 16" fill="none" id="arr-right" xmlns="http://www.w3.org/2000/svg"><path d="M18.707 8.707a1 1 0 0 0 0-1.414L12.343.929a1 1 0 1 0-1.414 1.414L16.586 8l-5.657 5.657a1 1 0 0 0 1.414 1.414l6.364-6.364ZM0 9h18V7H0v2Z" fill="currentColor"/></svg><svg viewBox="0 0 12 7" fill="none" id="arr-spoiler" xmlns="http://www.w3.org/2000/svg"><path fill-rule="evenodd" clip-rule="evenodd" d="m10 6.56-.53-.53L6 2.56 2.53 6.03 2 6.56.94 5.5l.53-.53 4-4L6 .44l.53.53 4 4 .53.53L10 6.56Z" fill="#fff"/></svg><svg viewBox="0 0 12 8" fill="none" id="arr-spoiler-grey" xmlns="http://www.w3.org/2000/svg"><path fill-rule="evenodd" clip-rule="evenodd" d="m10 .94-.53.53L6 4.94 2.53 1.47 2 .94.94 2l.53.53 4 4 .53.53.53-.53 4-4 .53-.53L10 .94Z" fill="#979797"/></svg><svg fill="none" viewBox="0 0 12 8" id="arr-spoiler-purple" xmlns="http://www.w3.org/2000/svg"><path fill-rule="evenodd" clip-rule="evenodd" d="m10 .94-.53.53L6 4.94 2.53 1.47 2 .94.94 2l.53.53 4 4 .53.53.53-.53 4-4 .53-.53L10 .94Z" fill="#583F99"/></svg><svg viewBox="0 0 43 42" fill="none" id="attention" xmlns="http://www.w3.org/2000/svg"><path fill-rule="evenodd" clip-rule="evenodd" d="M.5 21c0 11.598 9.338 21 20.856 21 11.519 0 20.857-9.402 20.857-21S32.875 0 21.356 0C9.838 0 .5 9.402.5 21Zm37.92 0c0 9.49-7.64 17.182-17.064 17.182S4.292 30.489 4.292 21c0-9.49 7.64-17.182 17.064-17.182 9.425 0 17.064 7.693 17.064 17.182ZM21.357 32.451a1.903 1.903 0 0 0 1.897-1.909c0-1.054-.85-1.909-1.897-1.909a1.903 1.903 0 0 0-1.897 1.91c0 1.054.85 1.908 1.897 1.908Zm1.902-22.909h-3.793v15.273h3.793V9.542Z" fill="currentColor"/></svg><svg viewBox="0 0 20 16" fill="none" id="burger" xmlns="http://www.w3.org/2000/svg"><path stroke="currentColor" stroke-width="2" stroke-linecap="round" d="M1 1h18M1 8h18M1 15h18"/></svg><svg viewBox="0 0 35 26" fill="none" id="car" xmlns="http://www.w3.org/2000/svg"><path d="M9.5.5a1 1 0 0 0 0 2v-2Zm15 1 .978.21.26-1.21H24.5v1Zm-3.863 18v1h.808l.17-.79-.978-.21Zm9.183-12 .838-.545a1 1 0 0 0-.838-.455v1Zm3.68 5.658.981.194a1 1 0 0 0-.143-.74l-.838.546ZM32.248 19.5v1a1 1 0 0 0 .981-.806l-.98-.194ZM2.5 18.5a1 1 0 1 0 0 2v-2Zm1-9a1 1 0 0 0 0 2v-2Zm-2-5a1 1 0 0 0 0 2v-2Zm8-3v1h15v-2h-15v1Zm15 0-.978-.21-3.863 18 .978.21.978.21 3.863-18-.978-.21Zm-3.863 18v-1H15.5v2h5.137v-1Zm-5.372 0h-1a4 4 0 0 1-4 4v2a6 6 0 0 0 6-6h-1Zm-5 5v-1a4 4 0 0 1-4-4h-2a6 6 0 0 0 6 6v-1Zm-5-5h1a4 4 0 0 1 4-4v-2a6 6 0 0 0-6 6h1Zm5-5v1a4 4 0 0 1 4 4h2a6 6 0 0 0-6-6v1ZM28.42 21h-1a2.5 2.5 0 0 1-2.5 2.5v2a4.5 4.5 0 0 0 4.5-4.5h-1Zm-3.5 3.5v-1a2.5 2.5 0 0 1-2.5-2.5h-2a4.5 4.5 0 0 0 4.5 4.5v-1Zm-3.5-3.5h1a2.5 2.5 0 0 1 2.5-2.5v-2a4.5 4.5 0 0 0-4.5 4.5h1Zm3.5-3.5v1a2.5 2.5 0 0 1 2.5 2.5h2a4.5 4.5 0 0 0-4.5-4.5v1ZM23 7.5v1h6.82v-2H23v1Zm6.82 0-.839.545 3.68 5.658.839-.545.838-.545-3.68-5.658-.838.545Zm3.68 5.658-.981-.194-1.252 6.342.981.194.981.194 1.252-6.342-.981-.194ZM32.248 19.5v-1H28.5v2h3.748v-1ZM4.5 19.5v-1h-2v2h2v-1Zm14-9v-1h-15v2h15v-1ZM9 5.5v-1H1.5v2H9v-1Zm24.5 9v-1h-12v2h12v-1Z" fill="currentColor"/><path d="M9.5.5a1 1 0 0 0 0 2v-2Zm15 1 .978.21.26-1.21H24.5v1Zm-3.863 18v1h.808l.17-.79-.978-.21Zm9.183-12 .838-.545a1 1 0 0 0-.838-.455v1Zm3.68 5.658.981.194a1 1 0 0 0-.143-.74l-.838.546ZM32.248 19.5v1a1 1 0 0 0 .981-.806l-.98-.194ZM2.5 18.5a1 1 0 1 0 0 2v-2Zm1-9a1 1 0 0 0 0 2v-2Zm-2-5a1 1 0 0 0 0 2v-2Zm8-3v1h15v-2h-15v1Zm15 0-.978-.21-3.863 18 .978.21.978.21 3.863-18-.978-.21Zm-3.863 18v-1H15.5v2h5.137v-1Zm-5.372 0h-1a4 4 0 0 1-4 4v2a6 6 0 0 0 6-6h-1Zm-5 5v-1a4 4 0 0 1-4-4h-2a6 6 0 0 0 6 6v-1Zm-5-5h1a4 4 0 0 1 4-4v-2a6 6 0 0 0-6 6h1Zm5-5v1a4 4 0 0 1 4 4h2a6 6 0 0 0-6-6v1ZM28.42 21h-1a2.5 2.5 0 0 1-2.5 2.5v2a4.5 4.5 0 0 0 4.5-4.5h-1Zm-3.5 3.5v-1a2.5 2.5 0 0 1-2.5-2.5h-2a4.5 4.5 0 0 0 4.5 4.5v-1Zm-3.5-3.5h1a2.5 2.5 0 0 1 2.5-2.5v-2a4.5 4.5 0 0 0-4.5 4.5h1Zm3.5-3.5v1a2.5 2.5 0 0 1 2.5 2.5h2a4.5 4.5 0 0 0-4.5-4.5v1ZM23 7.5v1h6.82v-2H23v1Zm6.82 0-.839.545 3.68 5.658.839-.545.838-.545-3.68-5.658-.838.545Zm3.68 5.658-.981-.194-1.252 6.342.981.194.981.194 1.252-6.342-.981-.194ZM32.248 19.5v-1H28.5v2h3.748v-1ZM4.5 19.5v-1h-2v2h2v-1Zm14-9v-1h-15v2h15v-1ZM9 5.5v-1H1.5v2H9v-1Zm24.5 9v-1h-12v2h12v-1Z" fill="currentColor" fill-opacity=".2"/></svg><svg viewBox="0 0 32 28" fill="none" id="cart" xmlns="http://www.w3.org/2000/svg"><path d="M1 1h4.528l3.397 18 19.245-1.688L31 3.813H13.453" stroke="currentColor" stroke-width="2" stroke-linecap="round" stroke-linejoin="round"/><circle cx="13" cy="25" r="2" fill="currentColor" stroke="currentColor" stroke-width="2"/><circle cx="24" cy="25" r="2" fill="currentColor" stroke="currentColor" stroke-width="2"/></svg><svg viewBox="0 0 32 28" fill="none" id="cart-thin" xmlns="http://www.w3.org/2000/svg"><path d="M1 1h4.528l3.397 18 19.245-1.688L31 3.813H13.453" stroke="currentColor" stroke-width="2" stroke-linecap="round" stroke-linejoin="round"/><circle cx="13" cy="25" r="2" fill="currentColor" stroke="currentColor" stroke-width="2"/><circle cx="24" cy="25" r="2" fill="currentColor" stroke="currentColor" stroke-width="2"/></svg><svg viewBox="0 0 30 30" fill="none" id="catalog-view-1" xmlns="http://www.w3.org/2000/svg"><rect x="1" y="1" width="11.5" height="11.5" rx="1" stroke="currentColor" stroke-width="2"/><rect x="1" y="17.5" width="11.5" height="11.5" rx="1" stroke="currentColor" stroke-width="2"/><rect x="17.5" y="1" width="11.5" height="11.5" rx="1" stroke="currentColor" stroke-width="2"/><rect x="17.5" y="17.5" width="11.5" height="11.5" rx="1" stroke="currentColor" stroke-width="2"/></svg><svg viewBox="0 0 28 28" fill="none" id="catalog-view-2" xmlns="http://www.w3.org/2000/svg"><rect x=".85" y=".85" width="6.197" height="6.197" rx="1.15" stroke="currentColor" stroke-width="1.7"/><rect x=".85" y="10.901" width="6.197" height="6.197" rx="1.15" stroke="currentColor" stroke-width="1.7"/><rect x=".85" y="20.953" width="6.197" height="6.197" rx="1.15" stroke="currentColor" stroke-width="1.7"/><rect x="10.901" y=".85" width="6.197" height="6.197" rx="1.15" stroke="currentColor" stroke-width="1.7"/><rect x="10.901" y="10.901" width="6.197" height="6.197" rx="1.15" stroke="currentColor" stroke-width="1.7"/><rect x="10.901" y="20.953" width="6.197" height="6.197" rx="1.15" stroke="currentColor" stroke-width="1.7"/><rect x="20.953" y=".85" width="6.197" height="6.197" rx="1.15" stroke="currentColor" stroke-width="1.7"/><rect x="20.953" y="10.901" width="6.197" height="6.197" rx="1.15" stroke="currentColor" stroke-width="1.7"/><rect x="20.953" y="20.953" width="6.197" height="6.197" rx="1.15" stroke="currentColor" stroke-width="1.7"/></svg><svg viewBox="0 0 13 11" fill="none" id="check" xmlns="http://www.w3.org/2000/svg"><path d="m1 5 4 4 7-8" stroke="#000" stroke-width="2"/></svg><svg viewBox="0 0 13 11" fill="none" id="check-white" xmlns="http://www.w3.org/2000/svg"><path d="m1 5 4 4 7-8" stroke="#FFF" stroke-width="2"/></svg><svg fill="none" viewBox="0 0 20 21" id="clip" xmlns="http://www.w3.org/2000/svg"><path fill-rule="evenodd" clip-rule="evenodd" d="m11.343 4.82 1.425 1.413-6.318 6.46a.846.846 0 0 0 0 1.176.77.77 0 0 0 1.1-.002l6.952-7.11a2.703 2.703 0 0 0 0-3.76c-.968-.996-2.681-.973-3.63.001l-7.587 7.755a4.558 4.558 0 0 0 0 6.345c1.663 1.708 4.52 1.68 6.158-.002l8.849-9.049 1.425 1.413-8.847 9.047c-2.414 2.48-6.56 2.52-9.014 0-2.475-2.542-2.475-6.62.002-9.165l7.587-7.755c1.724-1.77 4.725-1.81 6.486 0a4.727 4.727 0 0 1-.002 6.58l-6.947 7.107a2.758 2.758 0 0 1-3.96.004 2.87 2.87 0 0 1 0-3.997l6.32-6.461Z" fill="currentColor"/></svg><svg viewBox="0 0 26 25" fill="none" id="clock" xmlns="http://www.w3.org/2000/svg"><path d="M.293 6.113a1 1 0 0 1 0-1.414l4-4a1 1 0 0 1 1.414 1.414l-4 4a1 1 0 0 1-1.414 0ZM14 8.406a1 1 0 1 0-2 0v5a1 1 0 0 0 .293.707l3.5 3.5a1 1 0 0 0 1.414-1.414L14 12.992V8.406Z" fill="currentColor"/><path fill-rule="evenodd" clip-rule="evenodd" d="M13 2.406c-6.075 0-11 4.925-11 11s4.925 11 11 11 11-4.925 11-11-4.925-11-11-11Zm-9 11a9 9 0 1 1 18 0 9 9 0 0 1-18 0Z" fill="currentColor"/><path d="M25.707 4.7a1 1 0 0 1-1.414 1.413l-4-4A1 1 0 0 1 21.707.7l4 4Z" fill="currentColor"/></svg><svg viewBox="0 0 28 28" fill="none" id="close" xmlns="http://www.w3.org/2000/svg"><path d="m2.45 27.65-2.1-2.1L11.9 14 .35 2.45l2.1-2.1L14 11.9 25.55.35l2.1 2.1L16.1 14l11.55 11.55-2.1 2.1L14 16.1 2.45 27.65Z" fill="currentColor"/></svg><svg viewBox="0 0 16 16" fill="none" id="close-circle" xmlns="http://www.w3.org/2000/svg"><path fill-rule="evenodd" clip-rule="evenodd" d="M16 8A8 8 0 1 1 0 8a8 8 0 0 1 16 0Zm-3.293-4.707a1 1 0 0 1 0 1.414L9.414 8l3.293 3.293a1 1 0 0 1-1.414 1.414L8 9.414l-3.293 3.293a1 1 0 0 1-1.414-1.414L6.586 8 3.293 4.707a1 1 0 0 1 1.414-1.414L8 6.586l3.293-3.293a1 1 0 0 1 1.414 0Z" fill="currentColor"/></svg><svg fill="none" viewBox="0 0 21 21" id="close-circle-white" xmlns="http://www.w3.org/2000/svg"><path d="M17.214 17.213A10 10 0 1 1 3.07 3.071a10 10 0 0 1 14.143 14.142ZM15.799 15.8A8 8 0 1 0 4.486 4.485 8 8 0 0 0 15.8 15.8Z" fill="#fff"/><path d="M14.486 7.485 13.07 6.071l-7.07 7.071 1.414 1.414 7.07-7.07Z" fill="#fff"/><path d="M7.415 6.142 6 7.556l7.072 7.071 1.414-1.414-7.071-7.07Z" fill="#fff"/></svg><svg viewBox="0 0 33 25" fill="none" id="cloud-message" xmlns="http://www.w3.org/2000/svg"><path clip-rule="evenodd" d="M2.194 1h27.954c.657 0 1.202.524 1.202 1.166v15.278c0 .639-.545 1.162-1.203 1.162h-2.066l.06 4.565a.522.522 0 0 1-.302.496c-.19.1-.416.1-.589-.034l-6.59-5.027H2.194c-.658 0-1.194-.524-1.194-1.162V2.166C1 1.524 1.536 1 2.194 1Z" stroke="currentColor" stroke-width="2" stroke-miterlimit="10"/><path fill-rule="evenodd" clip-rule="evenodd" d="M10.133 8.385c.804 0 1.46.633 1.46 1.419 0 .785-.657 1.422-1.46 1.422-.803 0-1.462-.638-1.462-1.422 0-.785.649-1.42 1.462-1.42ZM21.36 8.385c.804 0 1.462.633 1.462 1.419 0 .785-.658 1.422-1.462 1.422-.804 0-1.471-.638-1.471-1.422 0-.785.657-1.42 1.47-1.42ZM15.747 8.385c.805 0 1.462.633 1.462 1.419 0 .785-.657 1.422-1.462 1.422-.805 0-1.47-.638-1.47-1.422 0-.785.658-1.42 1.47-1.42Z" fill="currentColor"/></svg><svg viewBox="0 0 33 25" fill="none" id="cloud-question" xmlns="http://www.w3.org/2000/svg"><path clip-rule="evenodd" d="M2.194 1h27.954c.657 0 1.202.524 1.202 1.166v15.278c0 .639-.545 1.162-1.203 1.162h-2.066l.06 4.565a.522.522 0 0 1-.302.496c-.19.1-.416.1-.589-.034l-6.59-5.027H2.194c-.658 0-1.194-.524-1.194-1.162V2.166C1 1.524 1.536 1 2.194 1Z" stroke="currentColor" stroke-width="2" stroke-miterlimit="10"/><path fill-rule="evenodd" clip-rule="evenodd" d="M15.054 12.001h2.307c.003-.281.04-.595.162-.853.128-.262.376-.466.63-.62l.002-.004a3.626 3.626 0 0 0 1.326-1.09c.342-.454.519-.953.519-1.51 0-.84-.276-1.574-.953-2.134-.724-.601-1.68-.79-2.622-.79-.887 0-1.787.169-2.504.689-.693.504-.931 1.242-.92 2.048l.318.004h1.938c.015-.3.103-.595.345-.802.232-.2.513-.285.824-.285.356 0 .694.09.938.346s.33.585.33.924c0 .339-.082.68-.279.977a2.27 2.27 0 0 1-.76.705c-.265.176-.53.364-.772.57a3.174 3.174 0 0 0-.484.496c-.27.364-.338.889-.345 1.33Zm1.153.837c-.632 0-1.146.484-1.146 1.081 0 .598.514 1.081 1.146 1.081.633 0 1.146-.484 1.146-1.08 0-.597-.513-1.082-1.146-1.082Z" fill="currentColor"/></svg><svg viewBox="0 0 29 28" fill="none" id="compare" xmlns="http://www.w3.org/2000/svg"><path d="m10.5 1 6 7.004-6 6.996m6-7h-15m17 5-6 7.004 6 6.996m-6-7h15" stroke="currentColor" stroke-width="2" stroke-linecap="round" stroke-linejoin="round"/><path d="m10.5 1 6 7.004-6 6.996m6-7h-15m17 5-6 7.004 6 6.996m-6-7h15" stroke="currentColor" stroke-opacity=".2" stroke-width="2" stroke-linecap="round" stroke-linejoin="round"/></svg><svg viewBox="0 0 17 21" fill="none" id="copy" xmlns="http://www.w3.org/2000/svg"><path stroke="currentColor" stroke-width="2" stroke-linejoin="round" d="M5 1h11v15H5z"/><path d="M1 8v12h10" stroke="currentColor" stroke-width="2" stroke-linecap="round" stroke-linejoin="round"/></svg><svg viewBox="0 0 27 27" fill="none" id="dislike" xmlns="http://www.w3.org/2000/svg"><path d="M1.027 15.06c0 .48.179.9.537 1.26.359.36.777.54 1.255.54h8.932l-1.345 6.33v.3c0 .258.03.48.09.66.06.18.15.318.269.42l1.165.93 8.305-8.64H26V1.5H6.971c-.454 0-.884.15-1.296.444-.413.3-.705.66-.885 1.086l-3.763 8.7c-.06.138 0 3.33 0 3.33Z" stroke="currentColor" stroke-width="2" stroke-miterlimit="10" stroke-linejoin="round"/></svg><svg fill="none" viewBox="0 0 11 11" id="download" xmlns="http://www.w3.org/2000/svg"><path d="M9.104 4.398 5.748 7.146 2.396 4.398M5.748 7.146V.712M1.438 9.583h8.624" stroke="currentColor" stroke-linecap="round" stroke-linejoin="round"/></svg><svg viewBox="0 0 18 21" fill="none" id="drop" xmlns="http://www.w3.org/2000/svg"><path d="M9.306 19.33c-2.037 0-3.783-.688-5.232-2.071-1.449-1.379-2.176-3.06-2.176-5.05 0-.995.195-1.917.58-2.767.383-.85.916-1.61 1.596-2.27L9.306 2.15l5.231 5.018a7.42 7.42 0 0 1 1.597 2.27c.385.85.58 1.772.58 2.766 0 1.976-.723 3.653-2.163 5.041-1.444 1.388-3.19 2.08-5.245 2.08v.005Z" stroke="currentColor" stroke-width="2" stroke-miterlimit="10"/><path stroke="currentColor" stroke-width="2" d="M10 2.444v17.112M13 6v12"/></svg><svg viewBox="0 0 26 21" fill="none" id="email" xmlns="http://www.w3.org/2000/svg"><path d="M5.53 4.558a1 1 0 1 0-1.06 1.696l8 5a1 1 0 0 0 1.06 0l8-5a1 1 0 0 0-1.06-1.696L13 9.227 5.53 4.558ZM8.6 10.606a1 1 0 0 1 .2 1.4l-3 4a1 1 0 0 1-1.6-1.2l3-4a1 1 0 0 1 1.4-.2ZM17.2 12.006a1 1 0 0 1 1.6-1.2l3 4a1 1 0 0 1-1.6 1.2l-3-4Z" fill="currentColor"/><path fill-rule="evenodd" clip-rule="evenodd" d="M4 .406a4 4 0 0 0-4 4v12a4 4 0 0 0 4 4h18a4 4 0 0 0 4-4v-12a4 4 0 0 0-4-4H4Zm-2 4a2 2 0 0 1 2-2h18a2 2 0 0 1 2 2v12a2 2 0 0 1-2 2H4a2 2 0 0 1-2-2v-12Z" fill="currentColor"/></svg><svg viewBox="0 0 36 22" fill="none" id="emailto" xmlns="http://www.w3.org/2000/svg"><path d="m21.5 11-.489.873a1 1 0 0 0 .978 0L21.5 11ZM8 8a1 1 0 1 0 0-2v2ZM3 6a1 1 0 0 0 0 2V6Zm8 6a1 1 0 1 0 0-2v2ZM1 10a1 1 0 1 0 0 2v-2Zm5 9a1 1 0 1 0 0-2v2Zm-2-2a1 1 0 1 0 0 2v-2ZM9 4l-.489.873 12.5 7L21.5 11l.489-.873-12.5-7L9 4Zm12.5 7 .489.873 12.5-7L34 4l-.489-.873-12.5 7L21.5 11ZM10 1v1h23V0H10v1Zm25 2h-1v16h2V3h-1Zm-2 18v-1H10v2h23v-1ZM8 19h1V3H7v16h1Zm2 2v-1a1 1 0 0 1-1-1H7a3 3 0 0 0 3 3v-1Zm25-2h-1a1 1 0 0 1-1 1v2a3 3 0 0 0 3-3h-1ZM33 1v1a1 1 0 0 1 1 1h2a3 3 0 0 0-3-3v1ZM10 1V0a3 3 0 0 0-3 3h2a1 1 0 0 1 1-1V1ZM8 7V6H3v2h5V7Zm3 4v-1H1v2h10v-1Zm-5 7v-1H4v2h2v-1Z" fill="currentColor"/></svg><svg viewBox="0 0 16 16" fill="none" id="excel" xmlns="http://www.w3.org/2000/svg"><path d="M7.9.172c-.475.111-1.353.293-1.97.404C5.326.697 4.388.88 3.863.99c-.525.1-1.07.192-1.201.192-.132 0-.515.07-.858.161-.333.091-.838.192-1.12.232l-.505.061-.03 6.318-.02 6.329.443.11c.253.061.556.112.687.112.13 0 .636.08 1.14.192 1.827.393 2.937.615 3.13.615.11 0 .615.091 1.11.192 1.685.363 2.846.545 3.007.485.142-.05.172-.223.172-.98v-.908h2.856c2.645 0 2.877-.01 3.028-.182.151-.171.172-.726.172-5.934 0-3.442-.04-5.804-.101-5.895-.081-.131-.555-.151-3.018-.182l-2.927-.03-.03-.928-.03-.929-.505-.02c-.273-.01-.889.07-1.363.171Zm1.11 7.823c0 3.966-.03 7.216-.071 7.216-.05 0-.394-.06-.788-.151-.676-.141-1.564-.313-3.956-.767a79.211 79.211 0 0 1-2.019-.404c-.504-.1-1.02-.192-1.13-.192-.212 0-.212-.01-.212-5.692V2.322l.888-.171c.484-.091 1.312-.253 1.837-.364.525-.1 1.433-.282 2.019-.393A75.298 75.298 0 0 0 7.546 1C8.05.89 8.576.798 8.736.788l.273-.01v7.217Zm6.055 0v5.4H9.817V11.88H11.028v-.707H9.817V9.256H11.028V8.55H9.817V7.036H11.028v-.707H9.817V4.815H11.028v-.807H9.817V2.595h5.248v5.4Z" fill="currentColor"/><path d="M2.247 5.007c0 .08.272.575.767 1.373.131.222.293.494.353.605.05.111.202.384.333.606.253.444.243.454-.292 1.252-.172.242-.344.514-.404.605-.05.08-.273.424-.475.747-.545.848-.534.878.404.878.777 0 .777 0 1.01-.353.12-.192.222-.414.222-.495 0-.08.04-.181.1-.212.051-.03.223-.313.374-.625.202-.414.293-.515.323-.374.02.101.111.303.202.444.1.142.333.555.515.929l.333.686h.847c.465 0 .838-.02.838-.05 0-.071-.313-.636-.706-1.272-.192-.303-.404-.646-.475-.757-.555-.878-.636-1.08-.514-1.221.12-.152.15-.192.565-.899.12-.222.343-.575.474-.797.141-.222.293-.505.353-.626a.972.972 0 0 1 .192-.282c.293-.182.05-.263-.706-.233-.808.03-.828.04-1 .354-.09.171-.242.434-.333.575-.09.141-.171.313-.171.384-.01.07-.111.252-.232.403l-.233.283-.181-.384a37.838 37.838 0 0 0-.454-.908 4.188 4.188 0 0 1-.202-.454c-.101-.263-.121-.273-.97-.273-.474 0-.857.04-.857.091ZM11.634 4.412v.403h2.624v-.807h-2.624v.404ZM11.634 6.683v.353h2.624v-.707h-2.624v.354ZM11.634 8.903v.353h2.624V8.55h-2.624v.353ZM11.634 11.527v.354h2.624v-.707h-2.624v.353Z" fill="currentColor"/></svg><svg viewBox="0 0 21 16" fill="none" id="eye" xmlns="http://www.w3.org/2000/svg"><path d="M19.923 7.551c-.18-.28-4.435-6.884-9.872-6.884S.356 7.27.178 7.55A.839.839 0 0 0 .05 8c0 .161.044.318.127.448.178.281 4.436 6.886 9.873 6.886 5.437 0 9.692-6.605 9.872-6.886A.837.837 0 0 0 20.051 8a.837.837 0 0 0-.128-.448Zm-9.872 6.265c-4.005 0-7.473-4.384-8.501-5.817 1.026-1.434 4.488-5.816 8.5-5.816 4.006 0 7.473 4.383 8.5 5.816-1.025 1.435-4.486 5.817-8.5 5.817Z" fill="currentColor"/><path d="M10.05 3.448C9 3.45 7.995 3.93 7.254 4.783c-.742.854-1.16 2.01-1.16 3.218 0 1.207.418 2.364 1.16 3.217.741.854 1.747 1.334 2.796 1.335 1.048-.001 2.054-.481 2.795-1.335.742-.853 1.16-2.01 1.16-3.217 0-1.207-.418-2.364-1.16-3.218-.741-.853-1.747-1.333-2.796-1.335Zm0 7.588c-.7-.001-1.37-.321-1.864-.89-.495-.57-.773-1.34-.774-2.145.001-.805.28-1.576.774-2.145.494-.57 1.164-.89 1.864-.89.699 0 1.37.32 1.864.89.494.569.772 1.34.773 2.145-.001.804-.28 1.576-.773 2.145-.495.569-1.165.889-1.864.89Z" fill="currentColor"/></svg><svg viewBox="0 0 30 27" fill="none" id="heart" xmlns="http://www.w3.org/2000/svg"><path d="m2.725 2.712.743.669-.743-.67Zm12 2.5-.781.624a1 1 0 0 0 1.561 0l-.78-.624Zm-9 11.5-.708.707.708-.707Zm9 9-.707.707a1 1 0 0 0 1.414 0l-.707-.707Zm9-9 .707.707-.707-.707Zm3-14-.744.669.744-.67ZM3.468 3.38C4.898 1.792 6.894 1.705 9 2.454c2.12.754 4.059 2.277 4.943 3.382l1.561-1.249C14.39 3.192 12.143 1.449 9.671.569 7.185-.315 4.18-.402 1.98 2.043L3.468 3.38Zm2.964 12.624c-.943-.943-2.723-3.084-3.718-5.543-.991-2.45-1.133-4.985.754-7.081L1.98 2.043C-.632 4.946-.274 8.41.861 11.212c1.129 2.79 3.1 5.15 4.156 6.207l1.415-1.414Zm9 9-9-9-1.415 1.414 9 9 1.415-1.414Zm0 1.414 9-9-1.415-1.414-9 9 1.415 1.414Zm9-9c1.057-1.057 3.027-3.417 4.157-6.207 1.134-2.801 1.492-6.266-1.121-9.17L25.98 3.382c1.887 2.096 1.745 4.632.754 7.08-.995 2.46-2.775 4.6-3.718 5.544l1.415 1.414Zm3.036-15.376c-2.2-2.445-5.204-2.358-7.69-1.474-2.472.88-4.718 2.623-5.834 4.018l1.561 1.25c.885-1.106 2.823-2.629 4.943-3.383 2.107-.75 4.104-.662 5.533.927l1.487-1.338Z" fill="currentColor"/></svg><svg viewBox="0 0 30 27" fill="none" id="heart-thin" xmlns="http://www.w3.org/2000/svg"><path d="m2.725 2.712.743.669-.743-.67Zm12 2.5-.781.624a1 1 0 0 0 1.561 0l-.78-.624Zm-9 11.5-.708.707.708-.707Zm9 9-.707.707a1 1 0 0 0 1.414 0l-.707-.707Zm9-9 .707.707-.707-.707Zm3-14-.744.669.744-.67ZM3.468 3.38C4.898 1.792 6.894 1.705 9 2.454c2.12.754 4.059 2.277 4.943 3.382l1.561-1.249C14.39 3.192 12.143 1.449 9.671.569 7.185-.315 4.18-.402 1.98 2.043L3.468 3.38Zm2.964 12.624c-.943-.943-2.723-3.084-3.718-5.543-.991-2.45-1.133-4.985.754-7.081L1.98 2.043C-.632 4.946-.274 8.41.861 11.212c1.129 2.79 3.1 5.15 4.156 6.207l1.415-1.414Zm9 9-9-9-1.415 1.414 9 9 1.415-1.414Zm0 1.414 9-9-1.415-1.414-9 9 1.415 1.414Zm9-9c1.057-1.057 3.027-3.417 4.157-6.207 1.134-2.801 1.492-6.266-1.121-9.17L25.98 3.382c1.887 2.096 1.745 4.632.754 7.08-.995 2.46-2.775 4.6-3.718 5.544l1.415 1.414Zm3.036-15.376c-2.2-2.445-5.204-2.358-7.69-1.474-2.472.88-4.718 2.623-5.834 4.018l1.561 1.25c.885-1.106 2.823-2.629 4.943-3.383 2.107-.75 4.104-.662 5.533.927l1.487-1.338Z" fill="currentColor"/></svg><svg viewBox="0 0 19 20" fill="none" id="home" xmlns="http://www.w3.org/2000/svg"><path d="M1.857 19V7l8-6 8 6v12h-6v-6h-4v6h-6Z" stroke="currentColor" stroke-width="1.5" stroke-linecap="round" stroke-linejoin="round"/></svg><svg viewBox="0 0 32 32" fill="none" id="instagram" xmlns="http://www.w3.org/2000/svg"><path d="M15.728 0c-4.272 0-4.809.018-6.486.094-1.675.077-2.818.344-3.818.73A7.703 7.703 0 0 0 2.638 2.64 7.674 7.674 0 0 0 .825 5.428c-.39 1-.654 2.146-.73 3.818C.017 10.924 0 11.46 0 15.732s.018 4.809.094 6.486c.077 1.675.344 2.818.73 3.818.402 1.035.94 1.913 1.814 2.786a7.685 7.685 0 0 0 2.786 1.813c1 .39 2.145.654 3.818.73 1.677.077 2.214.095 6.486.095s4.808-.018 6.486-.095c1.675-.075 2.818-.343 3.818-.73a7.723 7.723 0 0 0 2.788-1.813 7.714 7.714 0 0 0 1.813-2.786c.387-1 .654-2.145.73-3.818.076-1.677.095-2.214.095-6.486 0-4.271-.019-4.808-.095-6.486-.076-1.675-.343-2.818-.73-3.818A7.753 7.753 0 0 0 28.82 2.64 7.674 7.674 0 0 0 26.032.827c-1-.39-2.145-.654-3.818-.73C20.536.02 20 .002 15.728.002V0Zm0 2.834c4.2 0 4.698.016 6.357.092 1.534.07 2.368.327 2.921.542a4.873 4.873 0 0 1 1.809 1.177c.548.55.89 1.074 1.175 1.809.214.555.472 1.387.542 2.921.076 1.66.092 2.157.092 6.357s-.016 4.698-.092 6.357c-.07 1.535-.328 2.367-.542 2.922a4.897 4.897 0 0 1-1.175 1.809c-.55.55-1.074.891-1.809 1.177-.553.214-1.387.472-2.921.541-1.66.076-2.157.093-6.357.093s-4.698-.017-6.357-.093c-1.535-.069-2.367-.327-2.922-.541A4.873 4.873 0 0 1 4.64 26.82a4.873 4.873 0 0 1-1.177-1.81c-.214-.554-.472-1.386-.541-2.92-.076-1.66-.093-2.157-.093-6.358 0-4.2.017-4.698.093-6.357.069-1.534.327-2.366.541-2.921A4.873 4.873 0 0 1 4.64 4.645a4.873 4.873 0 0 1 1.81-1.177c.554-.215 1.386-.473 2.92-.542 1.66-.076 2.157-.092 6.358-.092Z" fill="currentColor"/><path d="M15.728 20.977a5.244 5.244 0 1 1 0-10.489 5.244 5.244 0 0 1 0 10.489Zm0-13.323a8.08 8.08 0 0 0 0 16.157 8.079 8.079 0 0 0 0-16.157ZM26.013 7.334a1.888 1.888 0 0 1-3.774 0 1.888 1.888 0 0 1 3.774 0Z" fill="currentColor"/></svg><svg viewBox="0 0 27 27" fill="none" id="like" xmlns="http://www.w3.org/2000/svg"><path d="M25.973 11.94c0-.48-.179-.9-.537-1.26-.359-.36-.777-.54-1.255-.54H15.25l1.344-6.33v-.3c0-.258-.03-.48-.09-.66a.913.913 0 0 0-.268-.42L15.07 1.5l-8.305 8.64H1V25.5h19.029c.454 0 .884-.15 1.296-.444.413-.3.705-.66.884-1.086l3.764-8.7c.06-.138 0-3.33 0-3.33Z" stroke="currentColor" stroke-width="2" stroke-miterlimit="10" stroke-linejoin="round"/></svg><svg viewBox="0 0 347 400" fill="none" id="lines" xmlns="http://www.w3.org/2000/svg"><path fill="currentColor" fill-opacity=".6" d="M-38.94 9.384 437.94-79v6.707L-38.94 16.09zM-38.94 18.476 437.94-69.91v6.707L-38.94 25.183zM-38.94 27.567l476.88-88.384v6.707L-38.94 34.274zM-38.94 36.659l476.88-88.385v6.707L-38.94 43.366zM-38.94 45.75l476.88-88.384v6.707L-38.94 52.457zM-38.94 54.842l476.88-88.385v6.707L-38.94 61.55zM-38.94 63.934l476.88-88.385v6.707L-38.94 70.641zM-38.94 73.025l476.88-88.384v6.707L-38.94 79.732zM-38.94 82.117 437.94-6.268V.44L-38.94 88.824zM-38.94 91.208 437.94 2.824V9.53L-38.94 97.915zM-38.94 100.3l476.88-88.384v6.707l-476.88 88.384zM-38.94 109.391l476.88-88.384v6.707l-476.88 88.384zM-38.94 118.483l476.88-88.384v6.707L-38.94 125.19zM-38.94 127.574 437.94 39.19v6.707L-38.94 134.28zM-38.94 136.666l476.88-88.384v6.707l-476.88 88.384zM-38.94 145.757l476.88-88.384v6.707l-476.88 88.384zM-38.94 154.849l476.88-88.384v6.707l-476.88 88.384zM-38.94 163.941l476.88-88.384v6.707l-476.88 88.384zM-38.94 173.032l476.88-88.384v6.707l-476.88 88.384zM-38.94 182.124 437.94 93.74v6.707L-38.94 188.83zM-38.94 191.215l476.88-88.384v6.707l-476.88 88.384zM-38.94 200.307l476.88-88.384v6.707l-476.88 88.384zM-38.94 209.398l476.88-88.384v6.707l-476.88 88.384zM-38.94 218.49l476.88-88.384v6.707l-476.88 88.384zM-38.94 227.581l476.88-88.384v6.707l-476.88 88.384zM-38.94 236.673l476.88-88.384v6.707L-38.94 243.38zM-38.94 245.765l476.88-88.384v6.707l-476.88 88.384zM-38.94 254.856l476.88-88.384v6.707l-476.88 88.384zM-38.94 263.948l476.88-88.384v6.707l-476.88 88.384zM-38.94 273.039l476.88-88.384v6.707l-476.88 88.384zM-38.94 282.131l476.88-88.384v6.707l-476.88 88.384zM-38.94 291.222l476.88-88.384v6.707l-476.88 88.384zM-38.94 300.314l476.88-88.384v6.707L-38.94 307.02zM-38.94 309.405l476.88-88.384v6.707l-476.88 88.384zM-38.94 318.497l476.88-88.384v6.707l-476.88 88.384zM-38.94 327.589l476.88-88.384v6.707l-476.88 88.384zM-38.94 336.68l476.88-88.384v6.707l-476.88 88.384zM-38.94 345.772l476.88-88.384v6.707l-476.88 88.384zM-38.94 354.863l476.88-88.384v6.707L-38.94 361.57zM-38.94 363.955l476.88-88.384v6.707l-476.88 88.384zM-38.94 373.046l476.88-88.384v6.707l-476.88 88.384zM-38.94 382.138l476.88-88.384v6.707l-476.88 88.384zM-38.94 391.229l476.88-88.384v6.707l-476.88 88.384zM-38.94 400.321l476.88-88.384v6.707l-476.88 88.384zM-38.94 409.412l476.88-88.384v6.707l-476.88 88.384zM-38.94 418.504l476.88-88.384v6.707L-38.94 425.21zM-38.94 427.596l476.88-88.384v6.707l-476.88 88.384zM-38.94 436.687l476.88-88.384v6.707l-476.88 88.384zM-38.94 445.779l476.88-88.384v6.707l-476.88 88.384zM-38.94 454.87l476.88-88.384v6.707l-476.88 88.384zM-38.94 463.962l476.88-88.384v6.707l-476.88 88.384z"/></svg><svg fill="none" viewBox="0 0 27 30" id="login" xmlns="http://www.w3.org/2000/svg"><path d="M1.192 28.723c1.577-3.383 6.374-5.846 12.056-5.846 5.683 0 10.44 2.44 12.033 5.797M13.15 17.772a8.276 8.276 0 1 0 .001-16.552 8.276 8.276 0 0 0 0 16.552ZM2.558 9.496h21.186M13.135 1.22V5.73M17.2 2.78v2.951M9.07 2.78v2.951" stroke="currentColor" stroke-width="2" stroke-linecap="round" stroke-linejoin="round"/></svg><svg viewBox="0 0 36 36" fill="none" id="logo" xmlns="http://www.w3.org/2000/svg"><rect x="2" y="2" width="32" height="32" rx="4" stroke="currentColor" stroke-width="2" stroke-linejoin="round" stroke-dasharray="8 8"/><path d="M11.838 18a.205.205 0 0 1-.126-.042.205.205 0 0 1-.042-.126V8.368c0-.047.014-.084.042-.112a.174.174 0 0 1 .126-.056h1.288c.047 0 .084.019.112.056a.133.133 0 0 1 .056.112v8.162c0 .047.024.07.07.07h3.85c.047 0 .084.019.112.056a.133.133 0 0 1 .056.112v1.064a.174.174 0 0 1-.056.126.151.151 0 0 1-.112.042h-5.376Zm9.566.126c-.616 0-1.162-.126-1.638-.378a2.723 2.723 0 0 1-1.092-1.064c-.252-.467-.378-1.003-.378-1.61v-3.948c0-.597.126-1.125.378-1.582a2.698 2.698 0 0 1 1.092-1.078c.476-.252 1.022-.378 1.638-.378.626 0 1.172.126 1.638.378.476.252.845.611 1.106 1.078.262.457.392.985.392 1.582v3.948c0 .607-.13 1.143-.392 1.61-.261.457-.63.812-1.106 1.064-.466.252-1.012.378-1.638.378Zm0-1.4c.458 0 .822-.145 1.092-.434.28-.299.42-.681.42-1.148v-4.06c0-.476-.14-.859-.42-1.148-.27-.299-.634-.448-1.092-.448-.448 0-.807.15-1.078.448-.27.29-.406.672-.406 1.148v4.06c0 .467.136.85.406 1.148.271.29.63.434 1.078.434Zm-7.22 12.386c-.606 0-1.143-.121-1.61-.364a2.707 2.707 0 0 1-1.077-1.022c-.252-.448-.378-.961-.378-1.54v-4.172c0-.579.126-1.087.378-1.526.261-.448.62-.793 1.078-1.036.466-.243 1.003-.364 1.61-.364.606 0 1.143.121 1.61.364.466.233.826.565 1.078.994.261.43.392.92.392 1.47v.322a.174.174 0 0 1-.056.126.151.151 0 0 1-.112.042h-1.288a.205.205 0 0 1-.126-.042.205.205 0 0 1-.042-.126v-.322c0-.42-.136-.76-.406-1.022-.262-.27-.612-.406-1.05-.406-.43 0-.78.14-1.05.42-.262.27-.392.63-.392 1.078v4.228c0 .448.135.812.406 1.092.28.27.639.406 1.078.406.429 0 .77-.121 1.022-.364.261-.252.392-.593.392-1.022V25.22c0-.047-.024-.07-.07-.07h-1.274a.205.205 0 0 1-.126-.042.205.205 0 0 1-.042-.126V23.96c0-.047.014-.084.042-.112a.174.174 0 0 1 .126-.056h2.8c.046 0 .084.019.112.056a.133.133 0 0 1 .056.112v2.184c0 .924-.28 1.652-.84 2.184-.56.523-1.307.784-2.24.784Zm7.562.014c-.616 0-1.162-.126-1.638-.378a2.724 2.724 0 0 1-1.092-1.064c-.252-.467-.378-1.003-.378-1.61v-3.948c0-.597.126-1.125.378-1.582a2.699 2.699 0 0 1 1.092-1.078c.476-.252 1.022-.378 1.638-.378.626 0 1.172.126 1.638.378.476.252.845.611 1.106 1.078.262.457.392.985.392 1.582v3.948c0 .607-.13 1.143-.392 1.61a2.7 2.7 0 0 1-1.106 1.064c-.466.252-1.012.378-1.638.378Zm0-1.4c.457 0 .822-.145 1.092-.434.28-.299.42-.681.42-1.148v-4.06c0-.476-.14-.859-.42-1.148-.27-.299-.635-.448-1.092-.448-.448 0-.807.15-1.078.448-.27.29-.406.672-.406 1.148v4.06c0 .467.136.85.406 1.148.27.29.63.434 1.078.434Z" fill="currentColor"/></svg><svg viewBox="0 0 27 27" fill="none" id="map" xmlns="http://www.w3.org/2000/svg"><path fill-rule="evenodd" clip-rule="evenodd" d="M17.5 4.703a4.002 4.002 0 0 1-3 3.874v8.126a1 1 0 1 1-2 0V8.577a4.002 4.002 0 0 1 1-7.874 4 4 0 0 1 4 4Zm-4-2a2 2 0 1 0 0 4 2 2 0 0 0 0-4Z" fill="currentColor"/><path fill-rule="evenodd" clip-rule="evenodd" d="M10.5 22.01v-9.932a1 1 0 0 0 .351-1.936l-.995-.373a1.002 1.002 0 0 0-.712 0l-7.995 2.998a1 1 0 0 0-.649.936v12a1 1 0 0 0 1.351.937L9.5 23.77l7.644 2.866.022.009a1 1 0 0 0 .69-.009l7.995-2.997a1 1 0 0 0 .649-.937v-12a1 1 0 0 0-1.351-.936L17.5 12.635l-.649-.243a1 1 0 1 0-.702 1.873l.351.131v9.864l-6-2.25Zm-2-9.864v9.864l-6 2.25v-9.864l6-2.25Zm16 9.864-6 2.25v-9.864l6-2.25v9.864Z" fill="currentColor"/></svg><svg viewBox="0 0 24 30" fill="none" id="marker" xmlns="http://www.w3.org/2000/svg"><path fill-rule="evenodd" clip-rule="evenodd" d="M12.009 29.992 12 30v-.008l-.023-.02c-4.016-3.418-7.016-6.591-8.992-9.525C.998 17.508 0 14.794 0 12.29c0-3.741 1.208-6.725 3.615-8.952C6.03 1.11 8.828 0 12 0c3.172 0 5.97 1.11 8.378 3.337C22.793 5.564 24 8.547 24 12.297c0 2.497-.997 5.219-2.977 8.158-1.728 2.555-4.226 5.29-7.494 8.212-.49.438-.996.88-1.52 1.325ZM2 12.29C2 9.021 3.033 6.6 4.972 4.806 7.03 2.909 9.347 2 12 2c2.653 0 4.97.91 7.02 2.805l.002.002C20.967 6.601 22 9.02 22 12.297c0 1.961-.787 4.295-2.636 7.04-1.64 2.424-4.075 5.093-7.36 8.01-3.29-2.92-5.727-5.592-7.36-8.017l-.002-.003C2.787 16.583 2 14.257 2 12.29ZM12 15a3 3 0 1 0 0-6 3 3 0 0 0 0 6Z" fill="currentColor"/></svg><svg fill="none" viewBox="0 0 20 33" id="menu-activity" xmlns="http://www.w3.org/2000/svg"><path d="M6.915 1 1 16.622h9.153L5.573 32 19 10.679h-8.235L14.706 1H6.915Z" stroke="currentColor" stroke-width="1.8" stroke-linecap="round" stroke-linejoin="round"/></svg><svg fill="none" viewBox="0 0 34 23" id="menu-clothes" xmlns="http://www.w3.org/2000/svg"><path d="M17.003 5.131v16.91h7.125l.506-11.91 3.602 9.496 4.388-1.572-5.899-13.553M16.886 5.139c-2.832 0-3.654-1.909-3.602-4.139h-1.028C9.916 1 8.31 2.362 7.282 4.502L1.376 18.055l4.388 1.572 3.601-9.504.507 11.911h7.131V5.131c-.044 0-.073.015-.117.015v-.007Z" stroke="currentColor" stroke-width="1.8" stroke-linecap="round" stroke-linejoin="round"/><path d="M26.725 4.502C25.698 2.355 24.091 1 21.751 1h-1.028c.052 2.238-.77 4.139-3.602 4.139l-.118-.015" stroke="currentColor" stroke-width="1.8" stroke-linecap="round" stroke-linejoin="round"/><path d="M20.724 1s-1.85.344-3.72.344c-1.871 0-3.72-.344-3.72-.344" stroke="currentColor" stroke-width="1.8" stroke-linecap="round" stroke-linejoin="round"/></svg><svg fill="none" viewBox="0 0 19 31" id="menu-gloves" xmlns="http://www.w3.org/2000/svg"><path d="M8.096 3.163c0-.623-.626-1.236-1.633-1.236-1.007 0-1.485 1.028-1.485 1.911v10.723M14.336 4.706v-1.22c0-.832-.595-1.575-1.409-1.658-.93-.088-1.713.654-1.713 1.584v-.748c0-.83-.596-1.574-1.41-1.657-.93-.088-1.713.655-1.713 1.585" stroke="currentColor" stroke-width="1.8" stroke-linecap="round" stroke-linejoin="round"/><path d="m4.973 12.898-1.078-2.706a1.484 1.484 0 0 0-2.172-.759 1.542 1.542 0 0 0-.62 1.865l2.95 7.284c1.17 3.06 1.007 4.02 1.007 4.02s.025.91-.199 2.188L4.15 30H16.93l-.483-5.444c-.117-1.21-.148-1.761-.148-1.761 0-2.748.885-4.364.885-6.878V5.475c0-.759-.544-1.434-1.281-1.507-.85-.083-1.562.598-1.562 1.444M14.336 4.706v7.22M11.213 3.418v8.509M8.096 2.602v9.325M5.161 24.69h4.603" stroke="currentColor" stroke-width="1.8" stroke-linecap="round" stroke-linejoin="round"/></svg><svg viewBox="0 0 34 27" fill="none" id="menu-new" xmlns="http://www.w3.org/2000/svg"><path d="M30.386 14.82 3.124 25.409C2.012 25.84.84 24.92 1.018 23.75l1.627-10.844c.081-.546.45-1.006.969-1.206L30.876 1.11c1.112-.433 2.283.488 2.106 1.658L31.355 13.61a1.535 1.535 0 0 1-.969 1.206v.003Z" stroke="currentColor" stroke-width="1.8" stroke-miterlimit="10"/><path d="m10.737 19.77-2.999-3.694-.072.028.178 4.791-1.593.62-.281-7.932 1.356-.526 2.97 3.664.073-.028-.175-4.75 1.592-.619.286 7.93-1.335.519v-.003ZM18.362 16.804l-4.706 1.83-.281-7.931 4.697-1.828.058 1.538-3.005 1.169.058 1.697 2.83-1.101.05 1.389-2.83 1.101.06 1.768 3.015-1.174.054 1.54v.002ZM20.857 15.835l-2.029-7.252 1.757-.684 1.099 5.123.086-.035.959-5.923 1.351-.526 1.396 5.007.087-.035.696-5.821L28.027 5l-1.461 8.61-1.61.627-1.391-4.543-.073.028-1.005 5.475-1.635.636.005.002Z" fill="currentColor"/></svg><svg fill="none" viewBox="0 0 28 31" id="menu-other" xmlns="http://www.w3.org/2000/svg"><path d="M22.982 25.694 17.718 2.33A1.704 1.704 0 0 0 16.058 1h-4.111a1.7 1.7 0 0 0-1.659 1.33l-5.27 23.364" stroke="currentColor" stroke-width="1.8" stroke-linecap="round" stroke-linejoin="round"/><path d="M6.806 25.694H1v4.183h26v-4.183H15.788M21.476 19.018H6.912M19.57 10.541H8.435" stroke="currentColor" stroke-width="1.8" stroke-linecap="round" stroke-linejoin="round"/></svg><svg fill="none" viewBox="0 0 34 35" id="menu-outlet" xmlns="http://www.w3.org/2000/svg"><path d="M16.008 31.992a3 3 0 0 1-4.242 0l-9.258-9.257a3 3 0 0 1 0-4.243l13.99-13.99a3 3 0 0 1 2.182-.879l9.252.183a3 3 0 0 1 2.94 2.991l.027 9.053a3 3 0 0 1-.879 2.13L16.008 31.992Z" stroke="currentColor" stroke-width="1.8" stroke-linecap="round" stroke-linejoin="round"/><path d="M21.677 12.826a2.18 2.18 0 1 0 3.082-3.083 2.18 2.18 0 0 0-3.082 3.083Z" stroke="currentColor" stroke-width="1.8" stroke-linecap="round" stroke-linejoin="round"/></svg><svg fill="none" viewBox="0 0 30 33" id="menu-profession" xmlns="http://www.w3.org/2000/svg"><path d="M19.767 21.887c-.42-.569-.76-1.316-.424-2.838M9.99 19.045c.335 1.522-.175 2.51-.333 2.837" stroke="currentColor" stroke-width="1.8" stroke-linecap="round" stroke-linejoin="round"/><path d="M7.96 11.802c.416 5.924 2.382 7.849 3.382 8.848.543.544 1.904.818 3.277.822h.1c1.373-.005 2.733-.278 3.277-.822 1.016-1.016 3.028-2.995 3.397-9.122M28.42 31.365c-.075-.605-.212-3.434-.448-4.355-.763-2.97-8.205-5.128-8.205-5.128s.083 3.485-5.057 3.485c-5.14 0-5.057-3.485-5.057-3.485s-7.442 2.153-8.205 5.128c-.236.92-.373 3.75-.448 4.355M16.27 1.299c0-.096-.058-.183-.145-.208 0 0-.473-.091-1.452-.091-.98 0-1.452.091-1.452.091-.087.025-.145.108-.145.208v8.047M18.912 5.795v-2.72c-.526-.387-1.472-.868-2.256-.955" stroke="currentColor" stroke-width="1.8" stroke-linecap="round" stroke-linejoin="round"/><path d="M9.662 3.73C7.567 5.8 7.06 7.438 6.944 8.59l-.05.49H6.34c-.568 0-.41 2.203.871 2.203h.133c.162 0 .323.05.464.14.112.075.22.154.332.233.913.651 1.398 1.46 6.534 1.46h.004c5.135 0 5.62-.809 6.533-1.46.112-.079.22-.158.332-.232a.849.849 0 0 1 .465-.141h.133c1.281 0 1.439-2.203.87-2.203h-.555l-.05-.49c-.112-1.153-.618-2.787-2.717-4.861" stroke="currentColor" stroke-width="1.8" stroke-linecap="round" stroke-linejoin="round"/><path d="M12.69 2.12c-.784.083-1.73.568-2.257.954v2.721M16.27 1.299v8.047" stroke="currentColor" stroke-width="1.8" stroke-linecap="round" stroke-linejoin="round"/></svg><svg fill="none" viewBox="0 0 28 32" id="menu-sale" xmlns="http://www.w3.org/2000/svg"><rect x="21.226" y="2.173" width="3.358" height="31.429" rx="1.679" transform="rotate(34.76 21.226 2.173)" stroke="currentColor" stroke-width="1.8" stroke-linejoin="round"/><circle cx="22" cy="24" r="5.1" stroke="currentColor" stroke-width="1.8"/><circle cx="6" cy="8" r="5.1" stroke="currentColor" stroke-width="1.8"/></svg><svg fill="none" viewBox="0 0 27 29" id="menu-shoes" xmlns="http://www.w3.org/2000/svg"><path d="M25.99 1c-.116 4.566-1.162 10.345-1.162 16.826 0 1.593.858 2.869.858 5.472s-.382 3.577-.382 3.577c-.162.671-.392 1.145-1.087 1.145h-6.458c-.35 0-.69-.12-.957-.344 0 0-1.11-1.025-2.28-.598-.989.359-2.207.942-4.534.942-3.577 0-8.268 0-8.65-.974 0 0-.888-3.264 1.025-4.805 2.244-1.806 8.31.12 9.675-3.14C13.183 16.37 12.32 2.87 12.32 1H26h-.01Z" stroke="currentColor" stroke-width="1.8" stroke-linecap="round" stroke-linejoin="round"/><path d="M1.13 25.209s3.059.468 5.616.468M25.618 25.052s-1.662.39-4.601.39M12.498 4.993h13.214" stroke="currentColor" stroke-width="1.8" stroke-linecap="round" stroke-linejoin="round"/></svg><svg fill="none" viewBox="0 0 33 32" id="menu-siz" xmlns="http://www.w3.org/2000/svg"><path d="M18.518 2.228c2.442 0 6.67 1.984 6.67 8.399.232.085.44.18.614.283.42.25.406.874-.023 1.11-.94.515-3.482 1.314-9.745 1.314-6.264 0-8.593-.799-9.538-1.318a.643.643 0 0 1-.023-1.11c.175-.104.378-.199.61-.284 0-6.415 4.227-8.399 6.669-8.399" stroke="currentColor" stroke-width="1.8" stroke-linecap="round" stroke-linejoin="round"/><path d="M19.104 7.91c-.213-1.865-.756-5.824-.85-6.13-.137-.459-.69-.78-1.328-.78H15.34c-.638 0-1.186.321-1.327.78-.095.306-.614 4.26-.827 6.13M16.213 18.41c-1.904 0-1.162 2.178-4.729 2.178-3.566 0-3.183-2.405-3.183-3.878 0-1.474 2.546-2.372 7.831-2.372 5.286 0 7.832.898 7.832 2.372 0 1.473.383 3.878-3.183 3.878-3.567 0-2.825-2.178-4.729-2.178M19.354 26.378c-.746 1.596-.317 3.278.959 3.75 1.275.473 2.91-.44 3.656-2.036s.316-3.278-.959-3.75c-1.275-.473-2.91.439-3.656 2.036ZM12.916 26.378c.746 1.596.316 3.278-.96 3.75-1.275.473-2.909-.44-3.655-2.036-.747-1.596-.317-3.278.959-3.75 1.275-.473 2.91.439 3.656 2.036Z" stroke="currentColor" stroke-width="1.8" stroke-linecap="round" stroke-linejoin="round"/><path d="m11.749 24.833 2.735-1.58c.732-.646 2.565-.646 3.297 0l2.735 1.58M13.194 28.683s1.313.902 2.938.902c1.625 0 2.854-.902 2.854-.902M28.93 12.88l.07-2.456c-.151-2.173-1.667-4.246-4.293-5.87L22 2.88M3.106 22.416h.828c.856 0 1.04-.71 1.04-1.583v-6.14c0-.874-.184-1.583-1.04-1.583h-.828v1.986M3.115 12.88 3 9.93c.247-2.61 2.718-5.1 7-7.05M3.106 13.116c-1.673 0-2.106.09-2.106 4.647 0 4.556.433 4.653 2.106 4.653M29.164 22.416h-.828c-.856 0-1.04-.71-1.04-1.583v-6.14c0-.874.184-1.583 1.04-1.583h.828v1.986M29.164 13.116c1.673 0 2.106.09 2.106 4.647 0 4.556-.433 4.653-2.106 4.653" stroke="currentColor" stroke-width="1.8" stroke-linecap="round" stroke-linejoin="round"/></svg><svg viewBox="0 0 400 400" id="ok" xmlns="http://www.w3.org/2000/svg"><path d="M184.766.499C106.232 12.043 66.662 101.65 110.895 167.78c42.092 62.927 136.424 62.588 178.617-.642 42-62.939 7.377-148.499-66.856-165.212-5.693-1.282-32.11-2.277-37.89-1.427m24.218 25.623c70.81 5.377 98.291 100.338 41.986 145.082-65.782 52.275-158.162-17.252-126.422-95.149 12.19-29.915 48.401-53.689 77.015-50.562 1.074.118 4.414.4 7.421.629m-17.187 22.039c-48.691 7.843-68.374 66.379-33.984 101.069 38.382 38.718 104.479 9.425 101.313-44.901-2.038-34.957-33.914-61.55-67.329-56.168m14.61 26.163c26.324 5.633 36.021 38.01 17.063 56.968-23.902 23.902-64.401.338-55.851-32.495 4.432-17.022 21.952-28.077 38.788-24.473M103.263 189.068c-21.227 4.487-34.708 31.074-25.546 50.385 7.983 16.827 42.884 38.476 72.502 44.972l4.516.991-28.418 28.581C95.304 345.188 93.881 346.998 92.19 357.4c-4.428 27.237 27.377 51.458 51.967 39.575 4.937-2.386 7.846-5.032 30.765-27.983l25.312-25.347 25.859 25.721c31.084 30.916 30.091 30.243 44.653 30.243 21.893 0 38.847-17.509 37.694-38.928-.666-12.359-.709-12.418-34.007-45.899l-29.199-29.36 4.532-.995c47.18-10.361 79.903-39.946 74.17-67.056-6.009-28.413-33.794-37.138-60.925-19.131-37.987 25.212-87.792 25.996-122.912 1.936-14.834-10.163-25.745-13.453-36.836-11.108m9.316 25.913c1.46.505 7.226 3.555 12.812 6.777 50.857 29.342 106.547 29.243 149.609-.265 13.511-9.258 18.842-9.406 23.342-.646 7.432 14.466-45.338 42.414-80.118 42.432-9.187.005-15.31 9.503-11.929 18.506.454 1.21 17.643 19.074 38.197 39.699 20.555 20.625 37.62 38.326 37.923 39.335 1.618 5.384-5.328 13.4-11.611 13.4-3.14 0-3.547-.367-33.281-29.993-32.832-32.713-31.657-31.726-37.745-31.726-5.882 0-6.141.221-37.406 31.852-14.894 15.069-27.997 27.999-29.116 28.732-5.316 3.483-15.287-3.166-15.287-10.193 0-3.784 2.202-6.21 38.281-42.188 38.724-38.614 38.283-38.105 38.277-44.297-.007-7.772-4.981-13.11-12.223-13.12-9.995-.012-31.641-4.898-45.213-10.204-13.98-5.466-36.088-21.434-36.4-26.291-.523-8.148 5.415-14.048 11.888-11.81" fill="currentColor" fill-rule="evenodd"/></svg><svg viewBox="0 0 30 30" fill="none" id="pdf" xmlns="http://www.w3.org/2000/svg"><path stroke="currentColor" stroke-width="2" d="M7 1h22v22H7z"/><path stroke="currentColor" stroke-opacity=".2" stroke-width="2" d="M7 1h22v22H7z"/><path d="M1.5 4.5v24h24" stroke="currentColor" stroke-width="2" stroke-linecap="round" stroke-linejoin="round"/><path d="M1.5 4.5v24h24" stroke="currentColor" stroke-opacity=".2" stroke-width="2" stroke-linecap="round" stroke-linejoin="round"/><path d="M22.023 16.5V7.62h3.876v1.164h-2.556v2.568h1.848v1.104h-1.848V16.5h-1.32Z" fill="currentColor"/><path d="M22.023 16.5V7.62h3.876v1.164h-2.556v2.568h1.848v1.104h-1.848V16.5h-1.32Z" fill="currentColor" fill-opacity=".2"/><path d="M16.046 16.5V7.62h1.752c2.064 0 3.216.996 3.216 4.428S19.826 16.5 17.798 16.5h-1.752Zm1.32-1.116h.6c1.296 0 1.716-.948 1.716-3.336 0-2.352-.42-3.276-1.728-3.276h-.588v6.612Z" fill="currentColor"/><path d="M16.046 16.5V7.62h1.752c2.064 0 3.216.996 3.216 4.428S19.826 16.5 17.798 16.5h-1.752Zm1.32-1.116h.6c1.296 0 1.716-.948 1.716-3.336 0-2.352-.42-3.276-1.728-3.276h-.588v6.612Z" fill="currentColor" fill-opacity=".2"/><path d="M10.55 16.5V7.62h2.088c1.344 0 2.508.612 2.508 2.712 0 2.304-1.272 2.808-2.556 2.808h-.744v3.36H10.55Zm1.296-4.452h.804c.804 0 1.2-.456 1.2-1.68 0-1.176-.384-1.608-1.212-1.608h-.792v3.288Z" fill="currentColor"/><path d="M10.55 16.5V7.62h2.088c1.344 0 2.508.612 2.508 2.712 0 2.304-1.272 2.808-2.556 2.808h-.744v3.36H10.55Zm1.296-4.452h.804c.804 0 1.2-.456 1.2-1.68 0-1.176-.384-1.608-1.212-1.608h-.792v3.288Z" fill="currentColor" fill-opacity=".2"/></svg><svg viewBox="0 0 30 30" fill="none" id="phone" xmlns="http://www.w3.org/2000/svg"><path d="M16.06 13.884V4.76h2.313v5.197L27.51.833l1.658 1.656-9.098 9.085h5.127v2.31H16.06Zm10.794 15.283c-3.138 0-6.253-.77-9.344-2.31a31.84 31.84 0 0 1-8.35-6.005 31.675 31.675 0 0 1-6.014-8.339C1.604 9.426.833 6.315.833 3.182c0-.485.17-.901.502-1.232.331-.331.747-.5 1.233-.5h5.397c.362 0 .678.123.948.361.27.247.447.57.517.986l1.04 4.85c.054.362.047.686-.015.978-.062.293-.2.547-.4.747L6.198 13.26c1.442 2.387 3.053 4.466 4.834 6.237A26.697 26.697 0 0 0 17.11 24l3.662-3.773c.254-.285.555-.477.886-.593.332-.115.671-.139 1.003-.062l4.587 1.001c.386.077.71.27.964.578.254.308.385.67.385 1.078v5.197c0 .485-.17.9-.5 1.232-.332.33-.749.5-1.235.5l-.007.008ZM5.035 11.15l3.123-3.156-.887-4.235H3.146c0 1.001.154 2.094.463 3.288.308 1.193.786 2.556 1.426 4.103ZM19.26 25.125c1.056.485 2.197.885 3.43 1.193 1.234.308 2.43.485 3.585.539v-4.12l-3.97-.807-3.045 3.195Z" fill="currentColor"/></svg><svg viewBox="0 0 33 42" fill="none" id="picture" xmlns="http://www.w3.org/2000/svg"><path d="M32.5.5v31H.5V.5h32Zm-30 29h28v-27h-28v27Z" fill="currentColor"/><path d="M32.5.5v31H.5V.5h32Zm-30 29h28v-27h-28v27Z" fill="currentColor" fill-opacity=".2"/><mask id="cia" style="mask-type:luminance" maskUnits="userSpaceOnUse" x="15" y="2" width="18" height="28"><path d="M32.5 2.5h-17v27h17v-27Z" fill="#fff"/></mask><g mask="url(#cia)" fill="currentColor"><path d="M28.286 21.36c4.815 0 9.144 2.062 10.67 5.277a1 1 0 0 1-1.807.857c-1.062-2.236-4.453-4.134-8.863-4.134-4.41 0-7.83 1.917-8.88 4.167a1 1 0 1 1-1.812-.846c1.511-3.24 5.878-5.32 10.692-5.32Z"/><path d="M28.286 21.36c4.815 0 9.144 2.062 10.67 5.277a1 1 0 0 1-1.807.857c-1.062-2.236-4.453-4.134-8.863-4.134-4.41 0-7.83 1.917-8.88 4.167a1 1 0 1 1-1.812-.846c1.511-3.24 5.878-5.32 10.692-5.32Z" fill-opacity=".2"/><path d="M33.924 11.5a5.718 5.718 0 1 0-11.435 0 5.718 5.718 0 0 0 11.435 0Zm2 0a7.717 7.717 0 1 1-15.434-.001 7.717 7.717 0 0 1 15.434 0Z"/><path d="M33.924 11.5a5.718 5.718 0 1 0-11.435 0 5.718 5.718 0 0 0 11.435 0Zm2 0a7.717 7.717 0 1 1-15.434-.001 7.717 7.717 0 0 1 15.434 0Z" fill-opacity=".2"/><path d="M36.804 10.499a1 1 0 1 1 0 2H19.608a1 1 0 1 1 0-2h17.196Z"/><path d="M36.804 10.499a1 1 0 1 1 0 2H19.608a1 1 0 1 1 0-2h17.196Z" fill-opacity=".2"/><path d="M27.193 8.444V4.782a1 1 0 1 1 2 0v3.662l-.005.102a1 1 0 0 1-1.99 0l-.005-.102Z"/><path d="M27.193 8.444V4.782a1 1 0 1 1 2 0v3.662l-.005.102a1 1 0 0 1-1.99 0l-.005-.102Z" fill-opacity=".2"/><path d="M30.493 8.444V6.05a1 1 0 1 1 2 0v2.395a1 1 0 0 1-2 0Z"/><path d="M30.493 8.444V6.05a1 1 0 1 1 2 0v2.395a1 1 0 0 1-2 0Z" fill-opacity=".2"/><path d="M23.894 8.444V6.05a1 1 0 0 1 2 0v2.395a1 1 0 0 1-2 0Z"/><path d="M23.894 8.444V6.05a1 1 0 0 1 2 0v2.395a1 1 0 0 1-2 0Z" fill-opacity=".2"/></g><path d="M10.605 5.053a1 1 0 0 1 1.79.894l-2.5 5a1 1 0 0 1-1.602.26l-2.5-2.5a1 1 0 1 1 1.414-1.414l1.519 1.519 1.88-3.76Z" fill="currentColor"/><path d="M10.605 5.053a1 1 0 0 1 1.79.894l-2.5 5a1 1 0 0 1-1.602.26l-2.5-2.5a1 1 0 1 1 1.414-1.414l1.519 1.519 1.88-3.76Z" fill="currentColor" fill-opacity=".2"/><path d="M10.605 13.053a1 1 0 0 1 1.79.894l-2.5 5a1 1 0 0 1-1.602.26l-2.5-2.5a1 1 0 1 1 1.414-1.414l1.519 1.518 1.88-3.758Z" fill="currentColor"/><path d="M10.605 13.053a1 1 0 0 1 1.79.894l-2.5 5a1 1 0 0 1-1.602.26l-2.5-2.5a1 1 0 1 1 1.414-1.414l1.519 1.518 1.88-3.758Z" fill="currentColor" fill-opacity=".2"/><path d="M10.605 21.053a1 1 0 0 1 1.79.894l-2.5 5a1 1 0 0 1-1.602.26l-2.5-2.5a1 1 0 1 1 1.414-1.414l1.519 1.518 1.88-3.758Z" fill="currentColor"/><path d="M10.605 21.053a1 1 0 0 1 1.79.894l-2.5 5a1 1 0 0 1-1.602.26l-2.5-2.5a1 1 0 1 1 1.414-1.414l1.519 1.518 1.88-3.758Z" fill="currentColor" fill-opacity=".2"/><path d="M15.5 38.5v-8a1 1 0 1 1 2 0v8a1 1 0 1 1-2 0Z" fill="currentColor"/><path d="M15.5 38.5v-8a1 1 0 1 1 2 0v8a1 1 0 1 1-2 0Z" fill="currentColor" fill-opacity=".2"/><path d="M8.192 30.451a1 1 0 0 1 1.902.617L6.9 40.927a1 1 0 0 1-1.902-.617l3.195-9.859Z" fill="currentColor"/><path d="M8.192 30.451a1 1 0 0 1 1.902.617L6.9 40.927a1 1 0 0 1-1.902-.617l3.195-9.859Z" fill="currentColor" fill-opacity=".2"/><path d="m26.101 40.926.036.096a1 1 0 0 0 1.893-.613l-.026-.1-3.196-9.858a1 1 0 1 0-1.902.617l3.195 9.858Z" fill="currentColor"/><path d="m26.101 40.926.036.096a1 1 0 0 0 1.893-.613l-.026-.1-3.196-9.858a1 1 0 1 0-1.902.617l3.195 9.858Z" fill="currentColor" fill-opacity=".2"/></svg><svg fill="none" viewBox="0 0 86 87" id="play" xmlns="http://www.w3.org/2000/svg"><circle cx="43" cy="43.067" r="43" fill="#000"/><g clip-path="url(#cja)"><path d="M60 43.067 31.5 59.52V26.612L60 43.067Z" fill="#FFE800" stroke="#FFE800" stroke-width="2"/></g><defs><clipPath id="cja"><path fill="#fff" transform="translate(25 25.067)" d="M0 0h36v36H0z"/></clipPath></defs></svg><svg viewBox="0 0 31 36" fill="none" id="play2" xmlns="http://www.w3.org/2000/svg"><path d="M1.5 34.376V1.468L30 17.922 1.5 34.376Z" stroke="#fff" stroke-width="2"/></svg><svg viewBox="0 0 21 20" fill="none" id="plus" xmlns="http://www.w3.org/2000/svg"><path d="M20.511 11.415h-8.773V20H8.766v-8.585H-.008V8.632h8.774V0h2.972v8.632h8.773v2.783Z" fill="currentColor"/></svg><svg viewBox="0 0 36 37" fill="none" id="plus-dashed" xmlns="http://www.w3.org/2000/svg"><path fill-rule="evenodd" clip-rule="evenodd" d="M1 27.5h2v3a3 3 0 0 0 3 3h3v2H6a5 5 0 0 1-5-5v-3Zm0-6h2v-6H1v6Zm0-12h2v-3a3 3 0 0 1 3-3h3v-2H6a5 5 0 0 0-5 5v3Zm14-8v2h6v-2h-6Zm12 0v2h3a3 3 0 0 1 3 3v3h2v-3a5 5 0 0 0-5-5h-3Zm8 14h-2v6h2v-6Zm0 12h-2v3a3 3 0 0 1-3 3h-3v2h3a5 5 0 0 0 5-5v-3Zm-14 8v-2h-6v2h6ZM18 12.5a1 1 0 0 1 1 1v10a1 1 0 1 1-2 0v-10a1 1 0 0 1 1-1Z" fill="currentColor"/><path fill-rule="evenodd" clip-rule="evenodd" d="M12 18.5a1 1 0 0 1 1-1h10a1 1 0 1 1 0 2H13a1 1 0 0 1-1-1Z" fill="currentColor"/></svg><svg viewBox="0 0 16 16" fill="none" id="printer" xmlns="http://www.w3.org/2000/svg"><path d="M11.167 5.167H4.833a.504.504 0 0 1-.5-.5V3.333c0-1.706.794-2.5 2.5-2.5h2.334c1.706 0 2.5.794 2.5 2.5v1.334c0 .273-.227.5-.5.5Zm-5.834-1h5.334v-.834c0-1.133-.367-1.5-1.5-1.5H6.833c-1.133 0-1.5.367-1.5 1.5v.834ZM8.667 15.167H7.333c-1.613 0-2.5-.887-2.5-2.5V10c0-.273.227-.5.5-.5h5.334c.273 0 .5.227.5.5v2.667c0 1.613-.887 2.5-2.5 2.5ZM5.833 10.5v2.167c0 1.053.447 1.5 1.5 1.5h1.334c1.053 0 1.5-.447 1.5-1.5V10.5H5.833Z" fill="currentColor"/><path d="M12 12.5h-1.333a.504.504 0 0 1-.5-.5v-1.5H5.833V12c0 .273-.226.5-.5.5H4c-1.613 0-2.5-.887-2.5-2.5V6.667c0-1.614.887-2.5 2.5-2.5h8c1.613 0 2.5.886 2.5 2.5V10c0 1.613-.887 2.5-2.5 2.5Zm-.833-1H12c1.053 0 1.5-.447 1.5-1.5V6.667c0-1.054-.447-1.5-1.5-1.5H4c-1.053 0-1.5.446-1.5 1.5V10c0 1.053.447 1.5 1.5 1.5h.833V10c0-.273.227-.5.5-.5h5.334c.273 0 .5.227.5.5v1.5Z" fill="currentColor"/><path d="M11.333 10.5H4.667a.504.504 0 0 1-.5-.5c0-.273.226-.5.5-.5h6.666c.274 0 .5.227.5.5s-.226.5-.5.5ZM6.667 7.833h-2a.504.504 0 0 1-.5-.5c0-.273.226-.5.5-.5h2c.273 0 .5.227.5.5 0 .274-.227.5-.5.5Z" fill="currentColor"/></svg><svg viewBox="0 0 24 24" fill="none" id="quantity" xmlns="http://www.w3.org/2000/svg"><rect x="2.101" y="12" width="5" height="5" rx="1" transform="rotate(-45 2.1 12)" stroke="currentColor" stroke-width="2"/><rect x="8.464" y="5.636" width="5" height="5" rx="1" transform="rotate(-45 8.464 5.636)" stroke="currentColor" stroke-width="2"/><rect x="8.464" y="18.364" width="5" height="5" rx="1" transform="rotate(-45 8.464 18.364)" stroke="currentColor" stroke-width="2"/><rect x="14.828" y="12" width="5" height="5" rx="1" transform="rotate(-45 14.828 12)" stroke="currentColor" stroke-width="2"/></svg><svg viewBox="0 0 30 30" fill="none" id="rocket" xmlns="http://www.w3.org/2000/svg"><path d="m4.769 12.426 3.718 1.593c.421-.85.87-1.685 1.354-2.513.477-.828.99-1.614 1.522-2.371l-2.77-.567-3.824 3.858Zm5.402 2.867L14.836 20a27.884 27.884 0 0 0 3.753-2.088c1.172-.779 2.119-1.536 2.841-2.265 1.895-1.911 3.284-3.872 4.175-5.875.89-2.003 1.368-4.269 1.438-6.796-2.505.071-4.75.553-6.735 1.452-1.985.898-3.929 2.3-5.823 4.211-.722.73-1.473 1.685-2.245 2.867a28.294 28.294 0 0 0-2.07 3.787Zm8.032-3.398c-.47-.474-.701-1.054-.701-1.755 0-.7.231-1.281.701-1.756.47-.474 1.046-.707 1.74-.707.695 0 1.27.233 1.74.707.47.475.701 1.055.701 1.756 0 .7-.231 1.281-.701 1.755-.47.475-1.045.708-1.74.708-.694 0-1.27-.233-1.74-.708Zm-.526 13.556 3.824-3.858-.562-2.796a28.68 28.68 0 0 1-2.35 1.536c-.82.481-1.648.941-2.49 1.366l1.578 3.752ZM29.112.888c.21 3.207-.19 6.137-1.192 8.778-1.004 2.64-2.666 5.131-4.981 7.467l-.07.071-.07.071.771 3.893c.07.354.056.694-.056 1.027a2.171 2.171 0 0 1-.547.884l-5.998 6.088-2.982-7.008-5.963-6.017-6.938-3.008 6.033-6.052a2.13 2.13 0 0 1 .877-.545c.33-.106.666-.128 1.017-.05l3.859.779s.049-.042.07-.05c.02-.014.049-.028.07-.05 2.315-2.335 4.785-4.013 7.401-5.039 2.617-1.048 5.521-1.451 8.7-1.239ZM3.436 20.425c.82-.828 1.817-1.246 2.996-1.253 1.178-.014 2.181.396 2.995 1.225.821.828 1.22 1.833 1.214 3.03-.007 1.195-.428 2.2-1.249 3.022-.61.615-1.55 1.118-2.827 1.522-1.277.403-3.185.778-5.732 1.132.351-2.57.723-4.509 1.102-5.804.386-1.296.884-2.251 1.494-2.867l.007-.007Zm1.473 1.522c-.33.354-.617.906-.877 1.663-.26.758-.477 1.72-.666 2.902 1.171-.19 2.126-.41 2.876-.672.75-.262 1.298-.552 1.649-.885.442-.403.673-.899.687-1.5.014-.602-.196-1.126-.617-1.572a2.148 2.148 0 0 0-1.564-.623 1.946 1.946 0 0 0-1.488.694v-.007Z" fill="currentColor"/></svg><svg viewBox="0 0 32 14" fill="none" id="ruler" xmlns="http://www.w3.org/2000/svg"><path stroke="currentColor" stroke-width="1.2" stroke-linejoin="round" d="M1.6.6h28.8v12.8H1.6z"/><path d="M9.6 7a.6.6 0 0 0-1.2 0h1.2Zm0 7V7H8.4v7h1.2ZM16.6 5a.6.6 0 1 0-1.2 0h1.2Zm0 9V5h-1.2v9h1.2ZM23.6 7a.6.6 0 1 0-1.2 0h1.2Zm0 7V7h-1.2v7h1.2Z" fill="currentColor"/></svg><svg viewBox="0 0 19 19" fill="none" id="search" xmlns="http://www.w3.org/2000/svg"><circle cx="8" cy="8" r="7" stroke="currentColor" stroke-width="1.3"/><path stroke="currentColor" stroke-width="1.3" stroke-linecap="round" d="M13.414 13 18 17.586"/></svg><svg viewBox="0 0 24 24" fill="none" id="settings" xmlns="http://www.w3.org/2000/svg"><path d="M4 6h10M4 12h5M4 18h5M17 6h3M12 12h8M12 18h8M14 4v4M9 10v4M12 16v4" stroke="currentColor" stroke-width="2" stroke-linecap="round"/></svg><svg viewBox="0 0 17 19" fill="none" id="share" xmlns="http://www.w3.org/2000/svg"><path fill-rule="evenodd" clip-rule="evenodd" d="M13.333 1.667a1.667 1.667 0 1 0 0 3.333 1.667 1.667 0 0 0 0-3.333ZM10 3.333a3.333 3.333 0 1 1 6.667 0 3.333 3.333 0 0 1-6.667 0ZM3.333 7.5a1.667 1.667 0 1 0 0 3.333 1.667 1.667 0 0 0 0-3.333ZM0 9.167a3.333 3.333 0 1 1 6.667 0 3.333 3.333 0 0 1-6.667 0ZM13.333 13.333a1.667 1.667 0 1 0 0 3.334 1.667 1.667 0 0 0 0-3.334ZM10 15a3.333 3.333 0 1 1 6.667 0A3.333 3.333 0 0 1 10 15Z" fill="currentColor"/><path fill-rule="evenodd" clip-rule="evenodd" d="M4.77 10.005a.833.833 0 0 1 1.14-.3l5.691 3.317a.833.833 0 0 1-.84 1.44l-5.69-3.317a.833.833 0 0 1-.301-1.14ZM11.893 4.172a.833.833 0 0 1-.3 1.14L5.91 8.627a.833.833 0 0 1-.84-1.44l5.683-3.316a.833.833 0 0 1 1.14.3Z" fill="currentColor"/></svg><svg viewBox="0 0 34 22" fill="none" id="size" xmlns="http://www.w3.org/2000/svg"><path d="M12 0c3.147 0 6.044.578 8.192 1.554 1.884.856 3.508 2.183 3.77 3.946H24V6c0 .98.548 1.955 1.613 2.725 1.065.769 2.585 1.275 4.31 1.275H32a2 2 0 0 1 2 2v8a2 2 0 0 1-2 2h-2.077v-.002c-2.088-.014-4.017-.621-5.454-1.648a6.432 6.432 0 0 1-1.644-1.68c-.69.723-1.624 1.318-2.633 1.777C18.044 21.423 15.147 22 12 22c-3.147 0-6.044-.577-8.192-1.553C1.75 19.51 0 18.014 0 16V5.5h.038C.3 3.737 1.924 2.41 3.808 1.554 5.956.578 8.853 0 12 0Zm10 9.396a8.954 8.954 0 0 1-1 .643V14a1 1 0 1 1-2 0v-3.08a17.69 17.69 0 0 1-2 .56V16a1 1 0 1 1-2 0v-4.182a24.21 24.21 0 0 1-2 .16V14a1 1 0 1 1-2 0V11.98a24.21 24.21 0 0 1-2-.161V16a1 1 0 1 1-2 0v-4.52a17.687 17.687 0 0 1-2-.56V14a1 1 0 1 1-2 0V10.04a8.951 8.951 0 0 1-1-.643V16c0 .748.712 1.751 2.636 2.625C6.469 19.46 9.072 20 12 20s5.531-.541 7.364-1.375C21.288 17.751 22 16.748 22 16V9.396ZM31 20h1v-8h-1v8Zm-7-4c0 .974.551 1.95 1.632 2.722.867.62 2.035 1.069 3.368 1.22v-7.984c-.34-.03-.674-.073-1-.134V16l-.005.103a1 1 0 0 1-1.99 0L26 16v-4.78a8.131 8.131 0 0 1-1.558-.873c-.153-.11-.3-.227-.442-.349V16ZM12 2c-2.928 0-5.531.542-7.364 1.375C2.712 4.25 2 5.253 2 6c0 .748.712 1.751 2.636 2.625C6.469 9.46 9.072 10 12 10s5.531-.541 7.364-1.375C21.288 7.751 22 6.748 22 6c0-.747-.712-1.75-2.636-2.625C17.531 2.542 14.928 2 12 2Zm0 1c1.226 0 2.385.247 3.275.692C16.105 4.107 17 4.865 17 6c0 1.135-.894 1.894-1.725 2.309C14.385 8.754 13.226 9 12 9s-2.385-.246-3.275-.691C7.895 7.894 7 7.135 7 6c0-1.135.894-1.893 1.725-2.308C9.615 3.247 10.774 3 12 3Zm0 2c-.983 0-1.823.202-2.38.48-.28.14-.45.28-.542.388a.43.43 0 0 0-.077.127A.04.04 0 0 0 9 6l.001.006a.43.43 0 0 0 .077.127c.091.108.263.248.541.387.558.279 1.398.48 2.381.48.983 0 1.823-.201 2.38-.48.28-.14.45-.279.542-.387a.432.432 0 0 0 .077-.127L15 6l-.001-.005a.432.432 0 0 0-.077-.127c-.091-.108-.263-.248-.541-.387C13.823 5.202 12.983 5 12 5Z" fill="currentColor"/></svg><svg fill="none" viewBox="0 0 88 84" id="star-big" xmlns="http://www.w3.org/2000/svg"><path d="m44 0 16.223 23.671 27.526 8.114-17.5 22.744.79 28.686L44 73.6l-27.038 9.615.789-28.686L.25 31.785l27.526-8.114L44 0Z" fill="#FFE800"/></svg><svg fill="none" viewBox="0 0 21 19" id="star-grey" xmlns="http://www.w3.org/2000/svg"><path d="m10.5 0 3.333 5.631 6.653 1.279-4.594 4.759.78 6.421L10.5 15.4l-6.172 2.69.78-6.421-4.594-4.76 6.653-1.278L10.5 0Z" fill="#979797"/></svg><svg fill="none" viewBox="0 0 17 16" id="star-orange" xmlns="http://www.w3.org/2000/svg"><path d="m15.626 5.72-4.919-.753L8.503.263c-.165-.35-.74-.35-.905 0L5.394 4.967l-4.92.752a.5.5 0 0 0-.281.845l3.573 3.668-.844 5.186a.502.502 0 0 0 .735.519l4.393-2.432 4.394 2.432a.5.5 0 0 0 .735-.518l-.844-5.186 3.573-3.669a.501.501 0 0 0-.282-.845Z" fill="#FF8A00"/></svg><svg fill="none" viewBox="0 0 20 19" id="star-purple" xmlns="http://www.w3.org/2000/svg"><path d="m10 0 3.174 5.631 6.337 1.279-4.375 4.759.742 6.421L10 15.4l-5.878 2.69.742-6.421L.49 6.909l6.337-1.278L10 0Z" fill="#583F99"/></svg><svg fill="none" viewBox="0 0 20 19" id="star-yellow" xmlns="http://www.w3.org/2000/svg"><path d="m10 0 3.174 5.631 6.337 1.279-4.375 4.759.742 6.421L10 15.4l-5.878 2.69.742-6.421L.49 6.909l6.337-1.278L10 0Z" fill="#FFE800"/></svg><svg viewBox="0 0 400 339.063" id="telegram" xmlns="http://www.w3.org/2000/svg"><path d="M363.322 1.695c-1.482.426-19.587 7.222-40.235 15.103C-17.485 146.8 11.783 135.345 6.106 140.855c-11.342 11.008-6.69 27.552 9.689 34.453 2.7 1.138 20.863 6.62 40.364 12.182 19.501 5.563 35.524 10.214 35.608 10.336.084.121 8.858 25.182 19.498 55.69 10.639 30.507 20.28 57.198 21.423 59.311 9.62 17.793 30.816 22.69 47.233 10.912 2.235-1.603 13.844-11.907 25.799-22.897 11.954-10.991 21.974-20.064 22.265-20.163.292-.1 15.12 11.593 32.953 25.983 39.316 31.728 39.783 32.01 53.088 32.01 13.174 0 21.035-5.054 26.703-17.165 4.38-9.359 59.426-283.393 59.09-294.163-.618-19.796-16.936-31.263-36.497-25.649m12.459 27.498c0 4.046-54.933 276.018-56.716 280.8-3.561 9.551-1.861 10.622-69.065-43.507a159185.888 159185.888 0 0 0-56.754-45.701c-.062-.045 27.567-29.494 61.4-65.442 33.832-35.948 61.965-66.452 62.518-67.786 2.385-5.758-1.067-13.85-6.701-15.71-5.707-1.883-7.289-1.203-60.463 26.003-128.553 65.77-149.402 76.37-150.258 76.394-1.411.038-68.482-19.114-68.486-19.556-.003-.215 40.689-15.925 90.425-34.912a710152.15 710152.15 0 0 0 168.553-64.371c92.92-35.504 85.547-33.245 85.547-26.212m-129.823 99.518c-1.095 1.182-19.657 20.94-41.25 43.907-21.592 22.967-39.752 42.83-40.355 44.141-.604 1.31-4.436 16.093-8.516 32.85-4.079 16.758-7.677 31.085-7.994 31.837-.39.924-5.633-13.121-16.165-43.307-8.574-24.571-15.253-44.789-14.844-44.929.409-.141 29.924-15.179 65.588-33.419 35.664-18.239 64.997-33.178 65.185-33.196.188-.018-.554.934-1.649 2.116m-50.409 125.236c6.96 5.608 12.711 10.442 12.781 10.742.07.3-9.023 8.949-20.208 19.22-11.184 10.271-20.152 18.005-19.929 17.187.223-.818 3.511-14.055 7.306-29.416 3.795-15.362 7.012-27.93 7.149-27.93.136 0 5.942 4.589 12.901 10.197" fill="currentColor" fill-rule="evenodd"/></svg><svg viewBox="0 0 16 16" fill="none" id="trash" xmlns="http://www.w3.org/2000/svg"><path d="M14 4.487h-.053C10.42 4.133 6.9 4 3.413 4.353l-1.36.134a.503.503 0 0 1-.106-1l1.36-.134c3.546-.36 7.14-.22 10.74.134a.5.5 0 0 1 .446.546.494.494 0 0 1-.493.454Z" fill="currentColor"/><path d="M5.667 3.813c-.027 0-.054 0-.087-.006a.502.502 0 0 1-.407-.574l.147-.873c.107-.64.253-1.527 1.807-1.527h1.746c1.56 0 1.707.92 1.807 1.534l.147.866a.495.495 0 0 1-.407.574.495.495 0 0 1-.573-.407L9.7 2.533c-.093-.58-.113-.693-.82-.693H7.133c-.706 0-.72.093-.82.687l-.153.866a.5.5 0 0 1-.493.42ZM10.14 15.167H5.86c-2.327 0-2.42-1.287-2.493-2.327l-.434-6.713a.505.505 0 0 1 .467-.534.505.505 0 0 1 .533.467l.434 6.713c.073 1.014.1 1.394 1.493 1.394h4.28c1.4 0 1.427-.38 1.493-1.394l.434-6.713a.51.51 0 0 1 .533-.467.5.5 0 0 1 .467.534l-.434 6.713c-.073 1.04-.166 2.327-2.493 2.327Z" fill="currentColor"/><path d="M9.107 11.5h-2.22a.504.504 0 0 1-.5-.5c0-.273.226-.5.5-.5h2.22c.273 0 .5.227.5.5s-.227.5-.5.5ZM9.667 8.833H6.333a.504.504 0 0 1-.5-.5c0-.273.227-.5.5-.5h3.334c.273 0 .5.227.5.5 0 .274-.227.5-.5.5Z" fill="currentColor"/></svg><svg viewBox="0 0 31 19" fill="none" id="vk" xmlns="http://www.w3.org/2000/svg"><path d="M30.921 17.513c-.306-.984-1.402-2.41-2.858-4.102-.792-.963-1.977-2.002-2.337-2.52-.502-.668-.36-.964 0-1.558 0 0 4.133-6.007 4.564-8.046C30.506.546 30.29 0 29.263 0H25.87c-.863 0-1.26.47-1.474.989 0 0-1.725 4.338-4.168 7.155-.79.817-1.15 1.076-1.58 1.076-.216 0-.527-.26-.527-1V1.287c0-.89-.252-1.287-.97-1.287h-5.328c-.538 0-.863.413-.863.805 0 .844 1.223 1.04 1.348 3.412v5.155c0 1.128-.198 1.335-.63 1.335-1.149 0-3.948-4.357-5.606-9.344C5.75.395 5.422.003 4.555.003H1.163C.193.002 0 .472 0 .99c0 .927 1.15 5.524 5.353 11.606C8.156 16.75 12.104 19 15.696 19c2.156 0 2.423-.5 2.423-1.363V14.5c0-1 .205-1.2.887-1.2.503 0 1.365.26 3.377 2.262 2.298 2.375 2.678 3.437 3.972 3.437h3.392c.97 0 1.454-.5 1.174-1.487v.002Z" fill="currentColor"/></svg><svg viewBox="0 0 400 400" id="vk-stroke" xmlns="http://www.w3.org/2000/svg"><path d="M17.578 47.945c-7.033 2.253-12.227 6.78-15.356 13.383L.001 66.016v23.898c-.004 137.495 74.982 244.031 183.99 261.406 14.922 2.378 54.958 2.047 60.129-.498 13.112-6.452 14.001-9.382 14.474-47.697l.39-31.641 5.717 5.779c13.342 13.488 22.522 28.373 33.023 53.544 4.923 11.802 9.027 17.034 15.737 20.067l4.117 1.86H381.641l4.423-2.172c10.706-5.259 16.692-18.887 13.156-29.952-10.718-33.537-36.806-81.175-56.547-103.257-5.389-6.028-5.76-4.506 3.156-12.944 29.229-27.661 41.323-59.634 42.23-111.641.575-33.031-2.575-40.686-18.528-45.022-7.238-1.967-58.948-.85-63.883 1.38-12.078 5.459-14.29 11.326-15.052 39.937-.648 24.321-1.189 27.794-5.634 36.165-4.071 7.668-15.302 16.304-24.592 18.909l-1.739.488-.214-45.164-.214-45.164-1.742-2.443c-3.652-5.119-2.123-4.979-54.266-4.979-56.578 0-56.785.031-66.376 9.923-17.722 18.28-8.991 46.78 16.503 53.868 3.313.921 5.402 2.041 6.712 3.598l1.903 2.262v122.722l-2.929-2.205c-38.89-29.269-59.393-78.99-60.863-147.59-.628-29.301-2.363-34.199-14.165-39.995l-4.464-2.192-28.907-.162c-21.736-.121-29.681.088-32.031.841m55.184 44.314c1.817 76.027 27.193 133.587 73.4 166.493 20.542 14.629 32.387 17.027 37.805 7.654 1.834-3.173 2.941-138.106 1.239-150.995-1.859-14.076-9.832-23.258-23.927-27.558-8.859-2.702-11.648-6.245-9.313-11.832 2.05-4.907 2.23-4.927 44.493-4.927h37.916V163.459l1.752 3.117c4.32 7.687 16.737 7.401 36.542-.844 31.226-12.999 41.448-31.22 42.692-76.095l.515-18.565 23.898.206 23.898.206.245 14.063c.91 52.243-13.178 85.513-47.058 111.135-14.191 10.732-14.159 14.532.246 29.513 18.657 19.403 31.713 39.115 43.364 65.47 6.707 15.171 15.312 35.688 15.312 36.509 0 .472-9.767.676-26.232.547l-26.232-.205-3.868-9.375c-15.428-37.396-35.931-63.378-62.716-79.477-9.079-5.456-15.709-5.079-20.148 1.145l-1.819 2.55-.391 42.579-.391 42.578-19.531-.087c-50.302-.225-90.665-18.028-124.77-55.034-43.774-47.498-65.464-108.202-65.464-183.214v-19.11l24.023.207 24.024.206.496 20.775" fill="currentColor" fill-rule="evenodd"/></svg><svg viewBox="0 0 30 21" fill="none" id="youtube" xmlns="http://www.w3.org/2000/svg"><path d="M29.374 3.28A3.756 3.756 0 0 0 26.722.627C24.38 0 15 0 15 0S5.619 0 3.28.628A3.755 3.755 0 0 0 .628 3.279C0 5.62 0 10.5 0 10.5s0 4.882.626 7.22a3.758 3.758 0 0 0 2.652 2.652C5.62 21 14.998 21 14.998 21s9.381 0 11.722-.628a3.755 3.755 0 0 0 2.652-2.651c.626-2.34.626-7.221.626-7.221s0-4.882-.626-7.22h.002ZM11.932 14.931V6.068l7.84 4.432-7.84 4.432Z" fill="currentColor"/></svg></svg>