<svg viewBox="0 0 27 27" fill="none" xmlns="http://www.w3.org/2000/svg">
<path fill-rule="evenodd" clip-rule="evenodd" d="M9.5 9.70312C9.5 7.49399 11.2909 5.70312 13.5 5.70312C15.7091 5.70312 17.5 7.49399 17.5 9.70312C17.5 11.9123 15.7091 13.7031 13.5 13.7031C11.2909 13.7031 9.5 11.9123 9.5 9.70312ZM13.5 7.70312C12.3954 7.70312 11.5 8.59856 11.5 9.70312C11.5 10.8077 12.3954 11.7031 13.5 11.7031C14.6046 11.7031 15.5 10.8077 15.5 9.70312C15.5 8.59856 14.6046 7.70312 13.5 7.70312Z" fill="currentColor"/>
<path fill-rule="evenodd" clip-rule="evenodd" d="M4.5 9.70312C4.5 4.73256 8.52944 0.703125 13.5 0.703125C18.4706 0.703125 22.5 4.73256 22.5 9.70312C22.5 10.6945 22.0333 11.9964 21.4366 13.2685C20.8175 14.588 19.9787 16.0379 19.0821 17.3828C18.187 18.7254 17.2146 19.9932 16.3197 20.9377C15.8741 21.4081 15.4253 21.8223 14.9962 22.1264C14.6045 22.404 14.0755 22.7031 13.5 22.7031C12.9245 22.7031 12.3955 22.404 12.0038 22.1264C11.5747 21.8223 11.1259 21.4081 10.6803 20.9377C9.78545 19.9932 8.81301 18.7254 7.91795 17.3828C7.02132 16.0379 6.18247 14.588 5.56343 13.2685C4.96666 11.9964 4.5 10.6945 4.5 9.70312ZM13.5 2.70312C9.63401 2.70312 6.5 5.83713 6.5 9.70312C6.5 10.2118 6.78334 11.1598 7.37407 12.419C7.94253 13.6307 8.72868 14.9934 9.58205 16.2734C10.437 17.5558 11.3396 18.7256 12.1322 19.5623C12.5303 19.9825 12.8784 20.2949 13.1603 20.4947C13.3447 20.6254 13.4546 20.6747 13.5 20.6929C13.5454 20.6747 13.6553 20.6254 13.8397 20.4947C14.1216 20.2949 14.4697 19.9825 14.8678 19.5623C15.6604 18.7256 16.563 17.5558 17.4179 16.2734C18.2713 14.9934 19.0575 13.6307 19.6259 12.419C20.2167 11.1598 20.5 10.2118 20.5 9.70312C20.5 5.83713 17.366 2.70312 13.5 2.70312Z" fill="currentColor"/>
<path d="M5.78589 19.6799C6.31512 19.522 6.61616 18.965 6.45826 18.4358C6.30037 17.9065 5.74334 17.6055 5.21411 17.7634C3.92916 18.1467 2.81018 18.6365 1.98995 19.235C1.18984 19.8188 0.5 20.6418 0.5 21.7031C0.5 22.6931 1.10284 23.4771 1.82405 24.0455C2.55653 24.6228 3.55447 25.0989 4.69849 25.4802C6.99699 26.2464 10.1087 26.7031 13.5 26.7031C16.8913 26.7031 20.003 26.2464 22.3015 25.4802C23.4455 25.0989 24.4435 24.6228 25.176 24.0455C25.8972 23.4771 26.5 22.6931 26.5 21.7031C26.5 20.6418 25.8102 19.8188 25.01 19.235C24.1898 18.6365 23.0708 18.1467 21.7859 17.7634C21.2567 17.6055 20.6996 17.9065 20.5417 18.4358C20.3838 18.965 20.6849 19.522 21.2141 19.6799C22.3842 20.029 23.2652 20.4376 23.8312 20.8506C24.4173 21.2783 24.5 21.5798 24.5 21.7031C24.5 21.8177 24.4313 22.086 23.938 22.4747C23.456 22.8545 22.6966 23.2404 21.6691 23.5829C19.6244 24.2644 16.7361 24.7031 13.5 24.7031C10.2639 24.7031 7.3756 24.2644 5.33095 23.5829C4.30339 23.2404 3.54398 22.8545 3.06199 22.4747C2.56873 22.086 2.5 21.8177 2.5 21.7031C2.5 21.5798 2.58266 21.2783 3.1688 20.8506C3.73482 20.4376 4.61584 20.029 5.78589 19.6799Z" fill="currentColor"/>
</svg>
