<svg viewBox="0 0 8 19" fill="none" xmlns="http://www.w3.org/2000/svg">
<path d="M0.494141 14.1562V13.4141C1.26888 13.7982 1.80924 14.0879 2.11523 14.2832C2.42773 14.4785 2.89323 14.8236 3.51172 15.3184V0.923828H4.49805V15.3184C5.20117 14.6478 6.20703 14.0065 7.51562 13.3945V14.1465C6.57812 14.9863 5.86523 15.709 5.37695 16.3145C4.89518 16.9199 4.5013 17.5449 4.19531 18.1895H3.74609C3.50521 17.6296 3.13737 17.0339 2.64258 16.4023C2.1543 15.7708 1.43815 15.0221 0.494141 14.1562Z" fill="currentColor"/>
<path d="M0.494141 14.1562V13.4141C1.26888 13.7982 1.80924 14.0879 2.11523 14.2832C2.42773 14.4785 2.89323 14.8236 3.51172 15.3184V0.923828H4.49805V15.3184C5.20117 14.6478 6.20703 14.0065 7.51562 13.3945V14.1465C6.57812 14.9863 5.86523 15.709 5.37695 16.3145C4.89518 16.9199 4.5013 17.5449 4.19531 18.1895H3.74609C3.50521 17.6296 3.13737 17.0339 2.64258 16.4023C2.1543 15.7708 1.43815 15.0221 0.494141 14.1562Z" fill="currentColor" fill-opacity="0.2"/>
</svg>
