<svg viewBox="0 0 43 42" fill="none" xmlns="http://www.w3.org/2000/svg">
<path fill-rule="evenodd" clip-rule="evenodd" d="M0.5 21C0.5 32.598 9.83768 42 21.3563 42C32.8749 42 42.2126 32.598 42.2126 21C42.2126 9.40202 32.8749 0 21.3563 0C9.83768 0 0.5 9.40202 0.5 21ZM38.4205 21C38.4205 30.4893 30.7806 38.1818 21.3563 38.1818C11.932 38.1818 4.29205 30.4893 4.29205 21C4.29205 11.5108 11.932 3.81821 21.3563 3.81821C30.7806 3.81821 38.4205 11.5108 38.4205 21ZM21.3569 32.4514C22.4044 32.4514 23.2536 31.5967 23.2536 30.5423C23.2536 29.4879 22.4044 28.6332 21.3569 28.6332C20.3094 28.6332 19.4603 29.4879 19.4603 30.5423C19.4603 31.5967 20.3094 32.4514 21.3569 32.4514ZM23.2591 9.54239H19.4658V24.8151H23.2591V9.54239Z" fill="currentColor"/>
</svg>
