<svg viewBox="0 0 35 26" fill="none" xmlns="http://www.w3.org/2000/svg">
<path d="M9.5 0.5C8.94772 0.5 8.5 0.947715 8.5 1.5C8.5 2.05228 8.94772 2.5 9.5 2.5V1.5V0.5ZM24.5 1.5L25.4777 1.70984L25.7374 0.5H24.5V1.5ZM20.6368 19.5V20.5H21.445L21.6146 19.7098L20.6368 19.5ZM29.8195 7.5L30.6578 6.95471C30.4733 6.67109 30.1579 6.5 29.8195 6.5V7.5ZM33.5 13.1579L34.4811 13.3515C34.5315 13.096 34.4803 12.8309 34.3383 12.6126L33.5 13.1579ZM32.2483 19.5V20.5C32.726 20.5 33.1369 20.1622 33.2294 19.6936L32.2483 19.5ZM2.5 18.5C1.94772 18.5 1.5 18.9477 1.5 19.5C1.5 20.0523 1.94772 20.5 2.5 20.5V19.5V18.5ZM3.5 9.5C2.94772 9.5 2.5 9.94772 2.5 10.5C2.5 11.0523 2.94772 11.5 3.5 11.5V10.5V9.5ZM1.5 4.5C0.947715 4.5 0.5 4.94772 0.5 5.5C0.5 6.05228 0.947715 6.5 1.5 6.5V5.5V4.5ZM9.5 1.5V2.5H24.5V1.5V0.5H9.5V1.5ZM24.5 1.5L23.5223 1.29016L19.6591 19.2902L20.6368 19.5L21.6146 19.7098L25.4777 1.70984L24.5 1.5ZM20.6368 19.5V18.5H15.5V19.5V20.5H20.6368V19.5ZM15.265 19.5H14.265C14.265 21.7091 12.4741 23.5 10.265 23.5V24.5V25.5C13.5787 25.5 16.265 22.8137 16.265 19.5H15.265ZM10.265 24.5V23.5C8.05586 23.5 6.265 21.7091 6.265 19.5H5.265H4.265C4.265 22.8137 6.95129 25.5 10.265 25.5V24.5ZM5.265 19.5H6.265C6.265 17.2909 8.05586 15.5 10.265 15.5V14.5V13.5C6.95129 13.5 4.265 16.1863 4.265 19.5H5.265ZM10.265 14.5V15.5C12.4741 15.5 14.265 17.2909 14.265 19.5H15.265H16.265C16.265 16.1863 13.5787 13.5 10.265 13.5V14.5ZM28.42 21H27.42C27.42 22.3807 26.3007 23.5 24.92 23.5V24.5V25.5C27.4053 25.5 29.42 23.4853 29.42 21H28.42ZM24.92 24.5V23.5C23.5393 23.5 22.42 22.3807 22.42 21H21.42H20.42C20.42 23.4853 22.4347 25.5 24.92 25.5V24.5ZM21.42 21H22.42C22.42 19.6193 23.5393 18.5 24.92 18.5V17.5V16.5C22.4347 16.5 20.42 18.5147 20.42 21H21.42ZM24.92 17.5V18.5C26.3007 18.5 27.42 19.6193 27.42 21H28.42H29.42C29.42 18.5147 27.4053 16.5 24.92 16.5V17.5ZM23 7.5V8.5H29.8195V7.5V6.5H23V7.5ZM29.8195 7.5L28.9813 8.04529L32.6617 13.7031L33.5 13.1579L34.3383 12.6126L30.6578 6.95471L29.8195 7.5ZM33.5 13.1579L32.5189 12.9642L31.2673 19.3064L32.2483 19.5L33.2294 19.6936L34.4811 13.3515L33.5 13.1579ZM32.2483 19.5V18.5H28.5V19.5V20.5H32.2483V19.5ZM4.5 19.5V18.5H2.5V19.5V20.5H4.5V19.5ZM18.5 10.5V9.5H3.5V10.5V11.5H18.5V10.5ZM9 5.5V4.5H1.5V5.5V6.5H9V5.5ZM33.5 14.5V13.5H21.5V14.5V15.5H33.5V14.5Z" fill="currentColor"/>
<path d="M9.5 0.5C8.94772 0.5 8.5 0.947715 8.5 1.5C8.5 2.05228 8.94772 2.5 9.5 2.5V1.5V0.5ZM24.5 1.5L25.4777 1.70984L25.7374 0.5H24.5V1.5ZM20.6368 19.5V20.5H21.445L21.6146 19.7098L20.6368 19.5ZM29.8195 7.5L30.6578 6.95471C30.4733 6.67109 30.1579 6.5 29.8195 6.5V7.5ZM33.5 13.1579L34.4811 13.3515C34.5315 13.096 34.4803 12.8309 34.3383 12.6126L33.5 13.1579ZM32.2483 19.5V20.5C32.726 20.5 33.1369 20.1622 33.2294 19.6936L32.2483 19.5ZM2.5 18.5C1.94772 18.5 1.5 18.9477 1.5 19.5C1.5 20.0523 1.94772 20.5 2.5 20.5V19.5V18.5ZM3.5 9.5C2.94772 9.5 2.5 9.94772 2.5 10.5C2.5 11.0523 2.94772 11.5 3.5 11.5V10.5V9.5ZM1.5 4.5C0.947715 4.5 0.5 4.94772 0.5 5.5C0.5 6.05228 0.947715 6.5 1.5 6.5V5.5V4.5ZM9.5 1.5V2.5H24.5V1.5V0.5H9.5V1.5ZM24.5 1.5L23.5223 1.29016L19.6591 19.2902L20.6368 19.5L21.6146 19.7098L25.4777 1.70984L24.5 1.5ZM20.6368 19.5V18.5H15.5V19.5V20.5H20.6368V19.5ZM15.265 19.5H14.265C14.265 21.7091 12.4741 23.5 10.265 23.5V24.5V25.5C13.5787 25.5 16.265 22.8137 16.265 19.5H15.265ZM10.265 24.5V23.5C8.05586 23.5 6.265 21.7091 6.265 19.5H5.265H4.265C4.265 22.8137 6.95129 25.5 10.265 25.5V24.5ZM5.265 19.5H6.265C6.265 17.2909 8.05586 15.5 10.265 15.5V14.5V13.5C6.95129 13.5 4.265 16.1863 4.265 19.5H5.265ZM10.265 14.5V15.5C12.4741 15.5 14.265 17.2909 14.265 19.5H15.265H16.265C16.265 16.1863 13.5787 13.5 10.265 13.5V14.5ZM28.42 21H27.42C27.42 22.3807 26.3007 23.5 24.92 23.5V24.5V25.5C27.4053 25.5 29.42 23.4853 29.42 21H28.42ZM24.92 24.5V23.5C23.5393 23.5 22.42 22.3807 22.42 21H21.42H20.42C20.42 23.4853 22.4347 25.5 24.92 25.5V24.5ZM21.42 21H22.42C22.42 19.6193 23.5393 18.5 24.92 18.5V17.5V16.5C22.4347 16.5 20.42 18.5147 20.42 21H21.42ZM24.92 17.5V18.5C26.3007 18.5 27.42 19.6193 27.42 21H28.42H29.42C29.42 18.5147 27.4053 16.5 24.92 16.5V17.5ZM23 7.5V8.5H29.8195V7.5V6.5H23V7.5ZM29.8195 7.5L28.9813 8.04529L32.6617 13.7031L33.5 13.1579L34.3383 12.6126L30.6578 6.95471L29.8195 7.5ZM33.5 13.1579L32.5189 12.9642L31.2673 19.3064L32.2483 19.5L33.2294 19.6936L34.4811 13.3515L33.5 13.1579ZM32.2483 19.5V18.5H28.5V19.5V20.5H32.2483V19.5ZM4.5 19.5V18.5H2.5V19.5V20.5H4.5V19.5ZM18.5 10.5V9.5H3.5V10.5V11.5H18.5V10.5ZM9 5.5V4.5H1.5V5.5V6.5H9V5.5ZM33.5 14.5V13.5H21.5V14.5V15.5H33.5V14.5Z" fill="currentColor" fill-opacity="0.2"/>
</svg>
