<svg width="20" height="21" viewBox="0 0 20 21" fill="none" xmlns="http://www.w3.org/2000/svg">
<path fill-rule="evenodd" clip-rule="evenodd" d="M11.3429 4.81961L12.7679 6.23262L6.44974 12.6926C6.1327 13.0184 6.1327 13.5428 6.44974 13.8686C6.75058 14.1778 7.25315 14.1763 7.55079 13.8669L14.5022 6.7566C15.517 5.71384 15.517 4.03916 14.5022 2.9964C13.5339 2.00149 11.8208 2.02363 10.8718 2.9983L3.28454 10.7535C1.57154 12.513 1.57154 15.3383 3.28454 17.0977C4.94795 18.8063 7.80544 18.7784 9.44287 17.0962L18.2919 8.04701L19.717 9.45989L10.8696 18.5074C8.45572 20.9874 4.31008 21.0278 1.85633 18.5075C-0.619061 15.9649 -0.619061 11.8863 1.85804 9.34205L9.44533 1.58683C11.1687 -0.183357 14.1701 -0.222128 15.9307 1.58697C17.7075 3.41273 17.7075 6.34028 15.9291 8.16768L8.98186 15.2736C7.90719 16.3912 6.10934 16.3962 5.02113 15.2779C3.94224 14.1691 3.94224 12.392 5.02293 11.2814L11.3429 4.81961Z" fill="currentColor"/>
</svg>
