<svg viewBox="0 0 26 25" fill="none" xmlns="http://www.w3.org/2000/svg">
<path d="M0.292893 6.11336C-0.0976311 5.72283 -0.0976311 5.08967 0.292893 4.69914L4.29289 0.699143C4.68342 0.308619 5.31658 0.308619 5.70711 0.699143C6.09763 1.08967 6.09763 1.72283 5.70711 2.11336L1.70711 6.11336C1.31658 6.50388 0.683418 6.50388 0.292893 6.11336Z" fill="currentColor"/>
<path d="M14 8.40625C14 7.85396 13.5523 7.40625 13 7.40625C12.4477 7.40625 12 7.85396 12 8.40625V13.4062C12 13.6715 12.1054 13.9258 12.2929 14.1134L15.7929 17.6134C16.1834 18.0039 16.8166 18.0039 17.2071 17.6134C17.5976 17.2228 17.5976 16.5897 17.2071 16.1991L14 12.992V8.40625Z" fill="currentColor"/>
<path fill-rule="evenodd" clip-rule="evenodd" d="M13 2.40625C6.92487 2.40625 2 7.33112 2 13.4062C2 19.4814 6.92487 24.4062 13 24.4062C19.0751 24.4062 24 19.4814 24 13.4062C24 7.33112 19.0751 2.40625 13 2.40625ZM4 13.4062C4 8.43569 8.02944 4.40625 13 4.40625C17.9706 4.40625 22 8.43569 22 13.4062C22 18.3768 17.9706 22.4062 13 22.4062C8.02944 22.4062 4 18.3768 4 13.4062Z" fill="currentColor"/>
<path d="M25.7071 4.69914C26.0976 5.08967 26.0976 5.72283 25.7071 6.11336C25.3166 6.50388 24.6834 6.50388 24.2929 6.11336L20.2929 2.11336C19.9024 1.72283 19.9024 1.08967 20.2929 0.699143C20.6834 0.308619 21.3166 0.308619 21.7071 0.699143L25.7071 4.69914Z" fill="currentColor"/>
</svg>
