<svg width="21" height="21" viewBox="0 0 21 21" fill="none" xmlns="http://www.w3.org/2000/svg">
<path d="M17.2136 17.2132C15.3383 19.0885 12.7947 20.1421 10.1426 20.1421C7.49041 20.1421 4.94687 19.0885 3.07151 17.2132C1.19615 15.3378 0.142578 12.7943 0.142578 10.1421C0.142578 7.48993 1.19615 4.94639 3.07151 3.07102C4.94687 1.19566 7.49041 0.14209 10.1426 0.14209C12.7947 0.14209 15.3383 1.19566 17.2136 3.07102C19.089 4.94639 20.1426 7.48992 20.1426 10.1421C20.1426 12.7943 19.089 15.3378 17.2136 17.2132ZM15.7994 15.7989C17.2997 14.2987 18.1426 12.2638 18.1426 10.1421C18.1426 8.02036 17.2997 5.98553 15.7994 4.48524C14.2991 2.98494 12.2643 2.14209 10.1426 2.14209C8.02085 2.14209 5.98601 2.98494 4.48572 4.48524C2.98543 5.98553 2.14258 8.02036 2.14258 10.1421C2.14258 12.2638 2.98543 14.2987 4.48572 15.7989C5.98601 17.2992 8.02085 18.1421 10.1426 18.1421C12.2643 18.1421 14.2991 17.2992 15.7994 15.7989Z" fill="white"/>
<path d="M14.4857 7.48524L13.0715 6.07102L6.00044 13.1421L7.41466 14.5563L14.4857 7.48524Z" fill="white"/>
<path d="M7.41466 6.1421L6.00044 7.55631L13.0715 14.6274L14.4857 13.2132L7.41466 6.1421Z" fill="white"/>
</svg>
