<svg viewBox="0 0 33 25" fill="none" xmlns="http://www.w3.org/2000/svg">
<path fill-rule="evenodd" clip-rule="evenodd" d="M2.19443 1H30.1475C30.8048 1 31.3496 1.52423 31.3496 2.16625V17.4442C31.3496 18.083 30.8048 18.6062 30.1475 18.6062H28.0813L28.1415 23.1714C28.1502 23.3858 28.0364 23.5662 27.8385 23.667C27.6481 23.7678 27.4228 23.7678 27.25 23.633L20.6599 18.6062H2.19443C1.53596 18.6062 1 18.0819 1 17.4442V2.16625C1 1.52423 1.53596 1 2.19443 1Z" stroke="currentColor" stroke-width="2" stroke-miterlimit="10"/>
<path fill-rule="evenodd" clip-rule="evenodd" d="M15.0537 12.0012H17.3613C17.3636 11.7195 17.4006 11.4055 17.5234 11.1479C17.6507 10.886 17.8992 10.682 18.1524 10.5272L18.1547 10.5242C18.6903 10.2623 19.1333 9.89764 19.4814 9.43393C19.8233 8.98048 20 8.48081 20 7.92391C20 7.08453 19.7237 6.35006 19.0469 5.79023C18.3229 5.18857 17.3675 5 16.4251 5C15.5376 5 14.6384 5.16876 13.9207 5.68897C13.2276 6.19304 12.9895 6.93118 13.0003 7.73681L13.3185 7.74121H15.2566C15.2721 7.44112 15.3601 7.14616 15.6024 6.93851C15.8339 6.73967 16.1149 6.65383 16.4259 6.65383C16.7824 6.65383 17.1197 6.74408 17.3636 7.00015C17.6075 7.25622 17.6947 7.58493 17.6947 7.92391C17.6947 8.2629 17.6121 8.60335 17.4153 8.90124C17.2231 9.19253 16.9638 9.42512 16.6551 9.60635C16.3896 9.78245 16.1257 9.97028 15.8833 10.1757C15.7104 10.3232 15.5352 10.4898 15.3994 10.6717C15.1293 11.0364 15.0606 11.561 15.0537 12.0012ZM16.2075 12.8384C15.5746 12.8384 15.0606 13.322 15.0606 13.9192C15.0606 14.5165 15.5746 15 16.2075 15C16.8403 15 17.3528 14.5157 17.3528 13.9192C17.3528 13.3227 16.8403 12.8384 16.2075 12.8384Z" fill="currentColor"/>
</svg>
