<svg viewBox="0 0 33 25" fill="none" xmlns="http://www.w3.org/2000/svg">
  <path fill-rule="evenodd" clip-rule="evenodd" d="M2.19443 1H30.1475C30.8048 1 31.3496 1.52423 31.3496 2.16625V17.4442C31.3496 18.083 30.8048 18.6062 30.1475 18.6062H28.0813L28.1415 23.1714C28.1502 23.3858 28.0364 23.5662 27.8385 23.667C27.6482 23.7678 27.4228 23.7678 27.25 23.633L20.6599 18.6062H2.19443C1.53596 18.6062 1 18.0819 1 17.4442V2.16625C1 1.52423 1.53596 1 2.19443 1Z" stroke="currentColor" stroke-width="2" stroke-miterlimit="10"/>
  <path fill-rule="evenodd" clip-rule="evenodd" d="M10.1333 8.38477C10.9372 8.38477 11.5935 9.0183 11.5935 9.80357C11.5935 10.5889 10.9362 11.2256 10.1333 11.2256C9.33046 11.2256 8.6709 10.5878 8.6709 9.80357C8.6709 9.01936 9.31952 8.38477 10.1333 8.38477Z" fill="currentColor"/>
  <path fill-rule="evenodd" clip-rule="evenodd" d="M21.3598 8.38477C22.1638 8.38477 22.8222 9.0183 22.8222 9.80357C22.8222 10.5889 22.1638 11.2256 21.3598 11.2256C20.5559 11.2256 19.8887 10.5878 19.8887 9.80357C19.8887 9.01936 20.546 8.38477 21.3598 8.38477Z" fill="currentColor"/>
  <path fill-rule="evenodd" clip-rule="evenodd" d="M15.7468 8.38477C16.5518 8.38477 17.2092 9.0183 17.2092 9.80357C17.2092 10.5889 16.5518 11.2256 15.7468 11.2256C14.9418 11.2256 14.2778 10.5878 14.2778 9.80357C14.2778 9.01936 14.9352 8.38477 15.7468 8.38477Z" fill="currentColor"/>
</svg>
