<svg viewBox="0 0 27 27" fill="none" xmlns="http://www.w3.org/2000/svg">
  <path d="M1.02655 15.06C1.02655 15.54 1.20579 15.96 1.56426 16.32C1.92273 16.68 2.34095 16.86 2.81891 16.86L11.7508 16.86L10.4065 23.19L10.4065 23.49C10.4065 23.748 10.4364 23.97 10.4961 24.15C10.5559 24.33 10.6455 24.468 10.765 24.57L11.93 25.5L20.2346 16.86L26 16.86L26 1.5L6.97119 1.5C6.51713 1.5 6.08696 1.65 5.67472 1.944C5.26248 2.244 4.96973 2.604 4.79049 3.03L1.02655 11.73C0.966809 11.868 1.02655 15.06 1.02655 15.06Z" stroke="currentColor" stroke-width="2" stroke-miterlimit="10" stroke-linejoin="round"/>
</svg>
