<svg viewBox="0 0 18 21" fill="none" xmlns="http://www.w3.org/2000/svg">
<path d="M9.30585 19.3295C7.26881 19.3295 5.52344 18.6423 4.07436 17.2589C2.62529 15.88 1.89844 14.1982 1.89844 12.2089C1.89844 11.2143 2.09288 10.2921 2.47714 9.44211C2.8614 8.59217 3.39381 7.83265 4.07436 7.17258L9.30585 2.14978L14.5373 7.16806C15.2179 7.83265 15.7503 8.58765 16.1345 9.43759C16.5188 10.2875 16.7133 11.2098 16.7133 12.2044C16.7133 14.1801 15.991 15.8574 14.5512 17.2453C13.1068 18.6333 11.3614 19.325 9.30585 19.325V19.3295Z" stroke="currentColor" stroke-width="2" stroke-miterlimit="10"/>
<line x1="10" y1="2.44446" x2="10" y2="19.5556" stroke="currentColor" stroke-width="2"/>
<line x1="13" y1="6" x2="13" y2="18" stroke="currentColor" stroke-width="2"/>
</svg>
