<svg viewBox="0 0 36 22" fill="none" xmlns="http://www.w3.org/2000/svg">
<path d="M21.5 11L21.0114 11.8725C21.315 12.0425 21.685 12.0425 21.9886 11.8725L21.5 11ZM8 8C8.55228 8 9 7.55229 9 7C9 6.44772 8.55228 6 8 6L8 7L8 8ZM3 6C2.44772 6 2 6.44772 2 7C2 7.55229 2.44772 8 3 8L3 7L3 6ZM11 12C11.5523 12 12 11.5523 12 11C12 10.4477 11.5523 10 11 10V11V12ZM1 10C0.447715 10 0 10.4477 0 11C0 11.5523 0.447715 12 1 12V11V10ZM6 19C6.55228 19 7 18.5523 7 18C7 17.4477 6.55228 17 6 17V18V19ZM4 17C3.44772 17 3 17.4477 3 18C3 18.5523 3.44772 19 4 19V18V17ZM9 4L8.5114 4.87251L21.0114 11.8725L21.5 11L21.9886 10.1275L9.4886 3.12749L9 4ZM21.5 11L21.9886 11.8725L34.4886 4.87251L34 4L33.5114 3.12749L21.0114 10.1275L21.5 11ZM10 1V2H33V1V0H10V1ZM35 3H34V19H35H36V3H35ZM33 21V20H10V21V22H33V21ZM8 19H9V3H8H7V19H8ZM10 21V20C9.44772 20 9 19.5523 9 19H8H7C7 20.6569 8.34315 22 10 22V21ZM35 19H34C34 19.5523 33.5523 20 33 20V21V22C34.6569 22 36 20.6569 36 19H35ZM33 1V2C33.5523 2 34 2.44772 34 3H35H36C36 1.34315 34.6569 0 33 0V1ZM10 1V0C8.34315 0 7 1.34315 7 3H8H9C9 2.44772 9.44772 2 10 2V1ZM8 7L8 6L3 6L3 7L3 8L8 8L8 7ZM11 11V10H1V11V12H11V11ZM6 18V17H4V18V19H6V18Z" fill="currentColor"/>
</svg>
