<svg viewBox="0 0 26 21" fill="none" xmlns="http://www.w3.org/2000/svg">
<path d="M5.52996 4.55825C5.06162 4.26554 4.44467 4.40791 4.15196 4.87625C3.85925 5.34459 4.00163 5.96154 4.46996 6.25425L12.47 11.2542C12.7942 11.4569 13.2057 11.4569 13.53 11.2542L21.53 6.25425C21.9983 5.96154 22.1407 5.34459 21.848 4.87625C21.5553 4.40792 20.9383 4.26554 20.47 4.55825L13 9.227L5.52996 4.55825Z" fill="currentColor"/>
<path d="M8.6 10.6062C9.04183 10.9376 9.13137 11.5644 8.8 12.0063L5.8 16.0063C5.46863 16.4481 4.84183 16.5376 4.4 16.2063C3.95817 15.8749 3.86863 15.2481 4.2 14.8062L7.2 10.8062C7.53137 10.3644 8.15817 10.2749 8.6 10.6062Z" fill="currentColor"/>
<path d="M17.2 12.0063C16.8686 11.5644 16.9582 10.9376 17.4 10.6062C17.8418 10.2749 18.4686 10.3644 18.8 10.8062L21.8 14.8062C22.1314 15.2481 22.0418 15.8749 21.6 16.2063C21.1582 16.5376 20.5314 16.4481 20.2 16.0063L17.2 12.0063Z" fill="currentColor"/>
<path fill-rule="evenodd" clip-rule="evenodd" d="M4 0.40625C1.79086 0.40625 0 2.19711 0 4.40625V16.4062C0 18.6154 1.79086 20.4062 4 20.4062H22C24.2091 20.4062 26 18.6154 26 16.4062V4.40625C26 2.19711 24.2091 0.40625 22 0.40625H4ZM2 4.40625C2 3.30168 2.89543 2.40625 4 2.40625H22C23.1046 2.40625 24 3.30168 24 4.40625V16.4062C24 17.5108 23.1046 18.4062 22 18.4062H4C2.89543 18.4062 2 17.5108 2 16.4062V4.40625Z" fill="currentColor"/>
</svg>
