<svg viewBox="0 0 16 16" fill="none" xmlns="http://www.w3.org/2000/svg">
<path d="M7.89907 0.172439C7.42469 0.283464 6.54658 0.465142 5.93089 0.576168C5.3253 0.697287 4.38663 0.878965 3.86178 0.98999C3.33693 1.09092 2.7919 1.18176 2.66069 1.18176C2.52948 1.18176 2.14593 1.25241 1.80276 1.34325C1.46969 1.43409 0.965027 1.53502 0.682416 1.5754L0.177755 1.63596L0.147475 7.95432L0.127289 14.2828L0.571391 14.3938C0.823721 14.4544 1.12652 14.5048 1.25773 14.5048C1.38894 14.5048 1.8936 14.5856 2.39826 14.6966C4.22514 15.0902 5.33539 15.3123 5.52716 15.3123C5.63819 15.3123 6.14285 15.4031 6.63742 15.504C8.32299 15.8674 9.48371 16.0491 9.6452 15.9885C9.78651 15.9381 9.81679 15.7665 9.81679 15.0095V14.1011H12.6732C15.3176 14.1011 15.5497 14.091 15.7011 13.9194C15.8525 13.7478 15.8727 13.1927 15.8727 7.9846C15.8727 4.54281 15.8323 2.18099 15.7718 2.09015C15.691 1.95894 15.2167 1.93875 12.7539 1.90847L9.82688 1.87819L9.7966 0.949617L9.76632 0.0210409L9.26166 0.000854492C8.98914 -0.0092392 8.37345 0.0715065 7.89907 0.172439ZM9.00933 7.99469C9.00933 11.9613 8.97905 15.2113 8.93867 15.2113C8.88821 15.2113 8.54504 15.1508 8.1514 15.0599C7.47516 14.9186 6.58695 14.7471 4.19486 14.2929C3.58927 14.1818 2.69097 14.0002 2.17621 13.8891C1.67155 13.7882 1.1568 13.6974 1.04577 13.6974C0.833815 13.6974 0.833815 13.6873 0.833815 8.00478V2.3223L1.72202 2.15071C2.20649 2.05987 3.03414 1.89838 3.55899 1.78736C4.08383 1.68642 4.99222 1.50474 5.57763 1.39372C6.16304 1.28269 7.05124 1.11111 7.54581 1.00008C8.05047 0.889058 8.57532 0.798219 8.73681 0.788126L9.00933 0.778032V7.99469ZM15.0653 7.99469V13.3946H12.441H9.81679V12.6376V11.8806H10.4224H11.028V11.5273V11.1741H10.4224H9.81679V10.2152V9.25634H10.4224H11.028V8.90308V8.54982H10.4224H9.81679V7.79282V7.03583H10.4224H11.028V6.68257V6.32931H10.4224H9.81679V5.57232V4.81532H10.4224H11.028V4.41159V4.00786H10.4224H9.81679V3.30134V2.59481H12.441H15.0653V7.99469Z" fill="currentColor"/>
<path d="M2.24687 5.00712C2.24687 5.08787 2.51938 5.58244 3.01395 6.3798C3.14516 6.60185 3.30666 6.87437 3.36721 6.98539C3.41768 7.09642 3.56908 7.36894 3.70029 7.59099C3.95262 8.03509 3.94253 8.04518 3.40759 8.84255C3.236 9.08479 3.06442 9.3573 3.00386 9.44814C2.95339 9.52889 2.73134 9.87206 2.52948 10.195C1.98444 11.0429 1.99454 11.0732 2.93321 11.0732C3.71038 11.0732 3.71038 11.0732 3.94253 10.7199C4.06365 10.5281 4.16458 10.3061 4.16458 10.2253C4.16458 10.1446 4.20495 10.0436 4.26551 10.0134C4.31598 9.98308 4.48756 9.70047 4.63896 9.38758C4.84083 8.97376 4.93166 8.87283 4.96194 9.01413C4.98213 9.11506 5.07297 9.31693 5.16381 9.45823C5.26474 9.59954 5.49689 10.0134 5.67856 10.3868L6.01164 11.0732H6.85947C7.32376 11.0732 7.69721 11.053 7.69721 11.0227C7.69721 10.952 7.38432 10.3868 6.99068 9.75094C6.79891 9.44814 6.58695 9.10497 6.5163 8.99395C5.96117 8.11584 5.88043 7.91397 6.00155 7.77267C6.12267 7.62127 6.15295 7.58089 6.56677 6.87437C6.68789 6.65232 6.90994 6.29905 7.04115 6.077C7.18245 5.85495 7.33385 5.57234 7.39441 5.45122C7.44488 5.3402 7.53572 5.20899 7.58618 5.16861C7.87889 4.98694 7.63665 4.90619 6.87966 4.93647C6.0722 4.96675 6.05201 4.97684 5.88043 5.28973C5.78959 5.46132 5.63819 5.72374 5.54735 5.86505C5.45651 6.00635 5.37577 6.17794 5.37577 6.24859C5.36567 6.31924 5.26474 6.50092 5.14362 6.65232L4.91148 6.93493L4.7298 6.55139C4.55822 6.19812 4.49766 6.077 4.2756 5.64299C4.22514 5.55216 4.1343 5.35029 4.07374 5.1888C3.97281 4.92638 3.95262 4.91628 3.10479 4.91628C2.63041 4.91628 2.24687 4.95666 2.24687 5.00712Z" fill="currentColor"/>
<path d="M11.6336 4.41161V4.81534H12.9457H14.2578V4.41161V4.00788H12.9457H11.6336V4.41161Z" fill="currentColor"/>
<path d="M11.6336 6.68253V7.0358H12.9457H14.2578V6.68253V6.32927H12.9457H11.6336V6.68253Z" fill="currentColor"/>
<path d="M11.6336 8.90308V9.25635H12.9457H14.2578V8.90308V8.54982H12.9457H11.6336V8.90308Z" fill="currentColor"/>
<path d="M11.6336 11.5274V11.8806H12.9457H14.2578V11.5274V11.1741H12.9457H11.6336V11.5274Z" fill="currentColor"/>
</svg>
