<svg viewBox="0 0 21 16" fill="none" xmlns="http://www.w3.org/2000/svg">
<path d="M19.9234 7.5512C19.7434 7.27042 15.4877 0.666656 10.0506 0.666656C4.61359 0.666656 0.356496 7.27042 0.177839 7.5512C0.0952768 7.68126 0.0507812 7.83816 0.0507812 7.99922C0.0507812 8.16029 0.0952768 8.31719 0.177839 8.44725C0.356496 8.72803 4.61359 15.3333 10.0506 15.3333C15.4877 15.3333 19.7434 8.72803 19.9234 8.44725C20.0062 8.31728 20.0508 8.16035 20.0508 7.99922C20.0508 7.8381 20.0062 7.68116 19.9234 7.5512ZM10.0506 13.8159C6.04551 13.8159 2.57771 9.43229 1.54976 7.99922C2.57637 6.56462 6.03751 2.18258 10.0506 2.18258C14.0557 2.18258 17.5235 6.56616 18.5501 7.99922C17.5249 9.43382 14.0637 13.8159 10.0506 13.8159Z" fill="currentColor"/>
<path d="M10.0495 3.44836C9.00072 3.44958 7.99516 3.9296 7.25354 4.78307C6.51192 5.63653 6.09481 6.79374 6.09375 8.00072C6.09481 9.20771 6.51192 10.3649 7.25354 11.2184C7.99516 12.0719 9.00072 12.5519 10.0495 12.5531C11.0983 12.5519 12.1039 12.0719 12.8455 11.2184C13.5871 10.3649 14.0042 9.20771 14.0053 8.00072C14.0042 6.79374 13.5871 5.63653 12.8455 4.78307C12.1039 3.9296 11.0983 3.44958 10.0495 3.44836ZM10.0495 11.0356C9.35032 11.0348 8.67995 10.7148 8.18554 10.1458C7.69112 9.57685 7.41305 8.80538 7.41234 8.00072C7.41305 7.19607 7.69112 6.4246 8.18554 5.85562C8.67995 5.28664 9.35032 4.96663 10.0495 4.96582C10.7487 4.96663 11.4191 5.28664 11.9135 5.85562C12.4079 6.4246 12.686 7.19607 12.6867 8.00072C12.686 8.80538 12.4079 9.57685 11.9135 10.1458C11.4191 10.7148 10.7487 11.0348 10.0495 11.0356Z" fill="currentColor"/>
</svg>
