<svg viewBox="0 0 30 27" fill="none" xmlns="http://www.w3.org/2000/svg">
<path d="M2.72456 2.71166L3.46786 3.38063L2.72456 2.71166ZM14.7246 5.21168L13.9437 5.83638C14.1335 6.07359 14.4208 6.21168 14.7246 6.21168C15.0283 6.21168 15.3157 6.07359 15.5054 5.83638L14.7246 5.21168ZM5.72456 16.7117L5.01745 17.4188L5.72456 16.7117ZM14.7246 25.7117L14.0175 26.4188C14.408 26.8093 15.0411 26.8093 15.4317 26.4188L14.7246 25.7117ZM23.7246 16.7117L24.4317 17.4188L23.7246 16.7117ZM26.7246 2.71166L25.9813 3.38063L26.7246 2.71166ZM3.46786 3.38063C4.89739 1.79225 6.89384 1.70455 9.00071 2.45387C11.1212 3.20801 13.0595 4.73112 13.9437 5.83638L15.5054 4.58699C14.3896 3.19225 12.143 1.44869 9.67089 0.569495C7.18526 -0.314528 4.18171 -0.402237 1.98127 2.0427L3.46786 3.38063ZM6.43167 16.0046C5.48878 15.0617 3.70948 12.9209 2.71401 10.4615C1.72289 8.01284 1.58107 5.47706 3.46786 3.38063L1.98127 2.0427C-0.631952 4.94628 -0.273771 8.41051 0.860112 11.2119C1.98964 14.0025 3.96033 16.3617 5.01745 17.4188L6.43167 16.0046ZM15.4317 25.0046L6.43167 16.0046L5.01745 17.4188L14.0175 26.4188L15.4317 25.0046ZM15.4317 26.4188L24.4317 17.4188L23.0175 16.0046L14.0175 25.0046L15.4317 26.4188ZM24.4317 17.4188C25.4888 16.3617 27.4595 14.0025 28.589 11.2119C29.7229 8.41051 30.0811 4.94628 27.4679 2.0427L25.9813 3.38063C27.8681 5.47706 27.7262 8.01284 26.7351 10.4615C25.7396 12.9209 23.9603 15.0617 23.0175 16.0046L24.4317 17.4188ZM27.4679 2.0427C25.2674 -0.402238 22.2639 -0.314528 19.7782 0.569495C17.3062 1.44869 15.0595 3.19225 13.9437 4.58699L15.5054 5.83638C16.3896 4.73112 18.328 3.20801 20.4484 2.45387C22.5553 1.70455 24.5517 1.79225 25.9813 3.38063L27.4679 2.0427Z" fill="currentColor"/>
</svg>
