<svg viewBox="0 0 32 32" fill="none" xmlns="http://www.w3.org/2000/svg">
<path d="M15.7277 0C11.4559 0 10.9191 0.0184326 9.24169 0.0944675C7.56662 0.170502 6.42379 0.437776 5.42382 0.824862C4.38928 1.22808 3.51143 1.76493 2.63818 2.64048C1.76263 3.51603 1.22577 4.39159 0.824862 5.42843C0.435472 6.4284 0.170502 7.57353 0.0944675 9.2463C0.0184326 10.9237 0 11.4605 0 15.7323C0 20.0041 0.0184326 20.5409 0.0944675 22.2183C0.170502 23.8934 0.437776 25.0362 0.824862 26.0362C1.22577 27.0707 1.76493 27.9486 2.63818 28.8218C3.51373 29.6974 4.38928 30.2342 5.42382 30.6351C6.42379 31.0245 7.56892 31.2895 9.24169 31.3655C10.9191 31.4416 11.4559 31.46 15.7277 31.46C19.9995 31.46 20.5363 31.4416 22.2137 31.3655C23.8888 31.2895 25.0316 31.0222 26.0316 30.6351C27.0661 30.2342 27.944 29.6951 28.8195 28.8218C29.6928 27.9463 30.2319 27.0707 30.6328 26.0362C31.0199 25.0362 31.2872 23.8911 31.3632 22.2183C31.4393 20.5409 31.4577 20.0041 31.4577 15.7323C31.4577 11.4605 31.4393 10.9237 31.3632 9.2463C31.2872 7.57123 31.0199 6.4284 30.6328 5.42843C30.2296 4.39389 29.6928 3.51603 28.8195 2.64048C27.944 1.76493 27.0684 1.22808 26.0316 0.827167C25.0316 0.437776 23.8865 0.172806 22.2137 0.0967712C20.5363 0.0207363 19.9995 0.0023037 15.7277 0.0023037V0ZM15.7277 2.83403C19.928 2.83403 20.4257 2.85015 22.0847 2.92619C23.6192 2.99531 24.4533 3.25337 25.0062 3.46765C25.7412 3.75336 26.2643 4.09436 26.815 4.64504C27.3633 5.19571 27.7043 5.71874 27.99 6.45375C28.2043 7.00903 28.4624 7.84081 28.5315 9.37533C28.6075 11.0343 28.6237 11.5319 28.6237 15.7323C28.6237 19.9326 28.6075 20.4303 28.5315 22.0893C28.4624 23.6238 28.2043 24.4556 27.99 25.0109C27.7043 25.7459 27.3633 26.2689 26.815 26.8196C26.2643 27.3702 25.7412 27.7112 25.0062 27.9969C24.4533 28.2112 23.6192 28.4693 22.0847 28.5384C20.4257 28.6144 19.928 28.6306 15.7277 28.6306C11.5273 28.6306 11.0297 28.6144 9.37072 28.5384C7.8362 28.4693 7.00442 28.2112 6.44914 27.9969C5.71413 27.7112 5.1911 27.3702 4.64043 26.8196C4.08975 26.2689 3.74875 25.7459 3.46304 25.0109C3.24876 24.4556 2.9907 23.6238 2.92158 22.0893C2.84555 20.4303 2.82942 19.9326 2.82942 15.7323C2.82942 11.5319 2.84555 11.0343 2.92158 9.37533C2.9907 7.84081 3.24876 7.00903 3.46304 6.45375C3.74875 5.71874 4.08975 5.19571 4.64043 4.64504C5.1911 4.09436 5.71413 3.75336 6.44914 3.46765C7.00442 3.25337 7.8362 2.99531 9.37072 2.92619C11.0297 2.85015 11.5273 2.83403 15.7277 2.83403Z" fill="currentColor"/>
<path d="M15.7277 20.9765C12.8314 20.9765 10.4836 18.6287 10.4836 15.7324C10.4836 12.8362 12.8314 10.4883 15.7277 10.4883C18.6239 10.4883 20.9718 12.8362 20.9718 15.7324C20.9718 18.6287 18.6239 20.9765 15.7277 20.9765ZM15.7277 7.6543C11.267 7.6543 7.64954 11.2717 7.64954 15.7324C7.64954 20.1931 11.267 23.8105 15.7277 23.8105C20.1884 23.8105 23.8058 20.1931 23.8058 15.7324C23.8058 11.2717 20.1884 7.6543 15.7277 7.6543Z" fill="currentColor"/>
<path d="M26.0131 7.33382C26.0131 8.37527 25.1675 9.22087 24.1261 9.22087C23.0846 9.22087 22.239 8.37527 22.239 7.33382C22.239 6.29238 23.0846 5.44678 24.1261 5.44678C25.1675 5.44678 26.0131 6.29238 26.0131 7.33382Z" fill="currentColor"/>
</svg>
