<svg viewBox="0 0 347 400" fill="none" xmlns="http://www.w3.org/2000/svg">
<rect width="485" height="6.70731" transform="matrix(0.983255 -0.182236 0 1 -38.9395 9.38428)" fill="currentColor" fill-opacity="0.6"/>
<rect width="485" height="6.70731" transform="matrix(0.983255 -0.182236 0 1 -38.9395 18.4758)" fill="currentColor" fill-opacity="0.6"/>
<rect width="485" height="6.70731" transform="matrix(0.983255 -0.182236 0 1 -38.9395 27.5674)" fill="currentColor" fill-opacity="0.6"/>
<rect width="485" height="6.70731" transform="matrix(0.983255 -0.182236 0 1 -38.9395 36.6589)" fill="currentColor" fill-opacity="0.6"/>
<rect width="485" height="6.70731" transform="matrix(0.983255 -0.182236 0 1 -38.9395 45.7504)" fill="currentColor" fill-opacity="0.6"/>
<rect width="485" height="6.70731" transform="matrix(0.983255 -0.182236 0 1 -38.9395 54.8419)" fill="currentColor" fill-opacity="0.6"/>
<rect width="485" height="6.70731" transform="matrix(0.983255 -0.182236 0 1 -38.9395 63.9335)" fill="currentColor" fill-opacity="0.6"/>
<rect width="485" height="6.70731" transform="matrix(0.983255 -0.182236 0 1 -38.9395 73.025)" fill="currentColor" fill-opacity="0.6"/>
<rect width="485" height="6.70731" transform="matrix(0.983255 -0.182236 0 1 -38.9395 82.1166)" fill="currentColor" fill-opacity="0.6"/>
<rect width="485" height="6.70731" transform="matrix(0.983255 -0.182236 0 1 -38.9395 91.2081)" fill="currentColor" fill-opacity="0.6"/>
<rect width="485" height="6.70731" transform="matrix(0.983255 -0.182236 0 1 -38.9395 100.3)" fill="currentColor" fill-opacity="0.6"/>
<rect width="485" height="6.70731" transform="matrix(0.983255 -0.182236 0 1 -38.9395 109.391)" fill="currentColor" fill-opacity="0.6"/>
<rect width="485" height="6.70731" transform="matrix(0.983255 -0.182236 0 1 -38.9395 118.483)" fill="currentColor" fill-opacity="0.6"/>
<rect width="485" height="6.70731" transform="matrix(0.983255 -0.182236 0 1 -38.9395 127.574)" fill="currentColor" fill-opacity="0.6"/>
<rect width="485" height="6.70731" transform="matrix(0.983255 -0.182236 0 1 -38.9395 136.666)" fill="currentColor" fill-opacity="0.6"/>
<rect width="485" height="6.70731" transform="matrix(0.983255 -0.182236 0 1 -38.9395 145.757)" fill="currentColor" fill-opacity="0.6"/>
<rect width="485" height="6.70731" transform="matrix(0.983255 -0.182236 0 1 -38.9395 154.849)" fill="currentColor" fill-opacity="0.6"/>
<rect width="485" height="6.70731" transform="matrix(0.983255 -0.182236 0 1 -38.9395 163.941)" fill="currentColor" fill-opacity="0.6"/>
<rect width="485" height="6.70731" transform="matrix(0.983255 -0.182236 0 1 -38.9395 173.032)" fill="currentColor" fill-opacity="0.6"/>
<rect width="485" height="6.70731" transform="matrix(0.983255 -0.182236 0 1 -38.9395 182.124)" fill="currentColor" fill-opacity="0.6"/>
<rect width="485" height="6.70731" transform="matrix(0.983255 -0.182236 0 1 -38.9395 191.215)" fill="currentColor" fill-opacity="0.6"/>
<rect width="485" height="6.70731" transform="matrix(0.983255 -0.182236 0 1 -38.9395 200.307)" fill="currentColor" fill-opacity="0.6"/>
<rect width="485" height="6.70731" transform="matrix(0.983255 -0.182236 0 1 -38.9395 209.398)" fill="currentColor" fill-opacity="0.6"/>
<rect width="485" height="6.70731" transform="matrix(0.983255 -0.182236 0 1 -38.9395 218.49)" fill="currentColor" fill-opacity="0.6"/>
<rect width="485" height="6.70731" transform="matrix(0.983255 -0.182236 0 1 -38.9395 227.581)" fill="currentColor" fill-opacity="0.6"/>
<rect width="485" height="6.70731" transform="matrix(0.983255 -0.182236 0 1 -38.9395 236.673)" fill="currentColor" fill-opacity="0.6"/>
<rect width="485" height="6.70731" transform="matrix(0.983255 -0.182236 0 1 -38.9395 245.765)" fill="currentColor" fill-opacity="0.6"/>
<rect width="485" height="6.70731" transform="matrix(0.983255 -0.182236 0 1 -38.9395 254.856)" fill="currentColor" fill-opacity="0.6"/>
<rect width="485" height="6.70731" transform="matrix(0.983255 -0.182236 0 1 -38.9395 263.948)" fill="currentColor" fill-opacity="0.6"/>
<rect width="485" height="6.70731" transform="matrix(0.983255 -0.182236 0 1 -38.9395 273.039)" fill="currentColor" fill-opacity="0.6"/>
<rect width="485" height="6.70731" transform="matrix(0.983255 -0.182236 0 1 -38.9395 282.131)" fill="currentColor" fill-opacity="0.6"/>
<rect width="485" height="6.70731" transform="matrix(0.983255 -0.182236 0 1 -38.9395 291.222)" fill="currentColor" fill-opacity="0.6"/>
<rect width="485" height="6.70731" transform="matrix(0.983255 -0.182236 0 1 -38.9395 300.314)" fill="currentColor" fill-opacity="0.6"/>
<rect width="485" height="6.70731" transform="matrix(0.983255 -0.182236 0 1 -38.9395 309.405)" fill="currentColor" fill-opacity="0.6"/>
<rect width="485" height="6.70731" transform="matrix(0.983255 -0.182236 0 1 -38.9395 318.497)" fill="currentColor" fill-opacity="0.6"/>
<rect width="485" height="6.70731" transform="matrix(0.983255 -0.182236 0 1 -38.9395 327.589)" fill="currentColor" fill-opacity="0.6"/>
<rect width="485" height="6.70731" transform="matrix(0.983255 -0.182236 0 1 -38.9395 336.68)" fill="currentColor" fill-opacity="0.6"/>
<rect width="485" height="6.70731" transform="matrix(0.983255 -0.182236 0 1 -38.9395 345.772)" fill="currentColor" fill-opacity="0.6"/>
<rect width="485" height="6.70731" transform="matrix(0.983255 -0.182236 0 1 -38.9395 354.863)" fill="currentColor" fill-opacity="0.6"/>
<rect width="485" height="6.70731" transform="matrix(0.983255 -0.182236 0 1 -38.9395 363.955)" fill="currentColor" fill-opacity="0.6"/>
<rect width="485" height="6.70731" transform="matrix(0.983255 -0.182236 0 1 -38.9395 373.046)" fill="currentColor" fill-opacity="0.6"/>
<rect width="485" height="6.70731" transform="matrix(0.983255 -0.182236 0 1 -38.9395 382.138)" fill="currentColor" fill-opacity="0.6"/>
<rect width="485" height="6.70731" transform="matrix(0.983255 -0.182236 0 1 -38.9395 391.229)" fill="currentColor" fill-opacity="0.6"/>
<rect width="485" height="6.70731" transform="matrix(0.983255 -0.182236 0 1 -38.9395 400.321)" fill="currentColor" fill-opacity="0.6"/>
<rect width="485" height="6.70731" transform="matrix(0.983255 -0.182236 0 1 -38.9395 409.412)" fill="currentColor" fill-opacity="0.6"/>
<rect width="485" height="6.70731" transform="matrix(0.983255 -0.182236 0 1 -38.9395 418.504)" fill="currentColor" fill-opacity="0.6"/>
<rect width="485" height="6.70731" transform="matrix(0.983255 -0.182236 0 1 -38.9395 427.596)" fill="currentColor" fill-opacity="0.6"/>
<rect width="485" height="6.70731" transform="matrix(0.983255 -0.182236 0 1 -38.9395 436.687)" fill="currentColor" fill-opacity="0.6"/>
<rect width="485" height="6.70731" transform="matrix(0.983255 -0.182236 0 1 -38.9395 445.779)" fill="currentColor" fill-opacity="0.6"/>
<rect width="485" height="6.70731" transform="matrix(0.983255 -0.182236 0 1 -38.9395 454.87)" fill="currentColor" fill-opacity="0.6"/>
<rect width="485" height="6.70731" transform="matrix(0.983255 -0.182236 0 1 -38.9395 463.962)" fill="currentColor" fill-opacity="0.6"/>
</svg>
