<svg viewBox="0 0 36 36" fill="none" xmlns="http://www.w3.org/2000/svg">
<rect x="2" y="2" width="32" height="32" rx="4" stroke="currentColor" stroke-width="2" stroke-linejoin="round" stroke-dasharray="8 8"/>
<path d="M11.8384 18C11.7917 18 11.7497 17.986 11.7124 17.958C11.6844 17.9207 11.6704 17.8787 11.6704 17.832V8.368C11.6704 8.32133 11.6844 8.284 11.7124 8.256C11.7497 8.21867 11.7917 8.2 11.8384 8.2H13.1264C13.1731 8.2 13.2104 8.21867 13.2384 8.256C13.2757 8.284 13.2944 8.32133 13.2944 8.368V16.53C13.2944 16.5767 13.3177 16.6 13.3644 16.6H17.2144C17.2611 16.6 17.2984 16.6187 17.3264 16.656C17.3637 16.684 17.3824 16.7213 17.3824 16.768V17.832C17.3824 17.8787 17.3637 17.9207 17.3264 17.958C17.2984 17.986 17.2611 18 17.2144 18H11.8384ZM21.4044 18.126C20.7884 18.126 20.2424 18 19.7664 17.748C19.2997 17.496 18.9357 17.1413 18.6744 16.684C18.4224 16.2173 18.2964 15.6807 18.2964 15.074V11.126C18.2964 10.5287 18.4224 10.0013 18.6744 9.544C18.9357 9.07733 19.2997 8.718 19.7664 8.466C20.2424 8.214 20.7884 8.088 21.4044 8.088C22.0297 8.088 22.5757 8.214 23.0424 8.466C23.5184 8.718 23.887 9.07733 24.1484 9.544C24.4097 10.0013 24.5404 10.5287 24.5404 11.126V15.074C24.5404 15.6807 24.4097 16.2173 24.1484 16.684C23.887 17.1413 23.5184 17.496 23.0424 17.748C22.5757 18 22.0297 18.126 21.4044 18.126ZM21.4044 16.726C21.8617 16.726 22.2257 16.5813 22.4964 16.292C22.7764 15.9933 22.9164 15.6107 22.9164 15.144V11.084C22.9164 10.608 22.7764 10.2253 22.4964 9.936C22.2257 9.63733 21.8617 9.488 21.4044 9.488C20.9564 9.488 20.597 9.63733 20.3264 9.936C20.0557 10.2253 19.9204 10.608 19.9204 11.084V15.144C19.9204 15.6107 20.0557 15.9933 20.3264 16.292C20.597 16.5813 20.9564 16.726 21.4044 16.726ZM14.1846 29.112C13.578 29.112 13.0413 28.9907 12.5746 28.748C12.1173 28.5053 11.758 28.1647 11.4966 27.726C11.2446 27.278 11.1186 26.7647 11.1186 26.186V22.014C11.1186 21.4353 11.2446 20.9267 11.4966 20.488C11.758 20.04 12.1173 19.6947 12.5746 19.452C13.0413 19.2093 13.578 19.088 14.1846 19.088C14.7913 19.088 15.328 19.2093 15.7946 19.452C16.2613 19.6853 16.6206 20.0167 16.8726 20.446C17.134 20.8753 17.2646 21.3653 17.2646 21.916V22.238C17.2646 22.2847 17.246 22.3267 17.2086 22.364C17.1806 22.392 17.1433 22.406 17.0966 22.406H15.8086C15.762 22.406 15.72 22.392 15.6826 22.364C15.6546 22.3267 15.6406 22.2847 15.6406 22.238V21.916C15.6406 21.496 15.5053 21.1553 15.2346 20.894C14.9733 20.6233 14.6233 20.488 14.1846 20.488C13.7553 20.488 13.4053 20.628 13.1346 20.908C12.8733 21.1787 12.7426 21.538 12.7426 21.986V26.214C12.7426 26.662 12.878 27.026 13.1486 27.306C13.4286 27.5767 13.788 27.712 14.2266 27.712C14.656 27.712 14.9966 27.5907 15.2486 27.348C15.51 27.096 15.6406 26.7553 15.6406 26.326V25.22C15.6406 25.1733 15.6173 25.15 15.5706 25.15H14.2966C14.25 25.15 14.208 25.136 14.1706 25.108C14.1426 25.0707 14.1286 25.0287 14.1286 24.982V23.96C14.1286 23.9133 14.1426 23.876 14.1706 23.848C14.208 23.8107 14.25 23.792 14.2966 23.792H17.0966C17.1433 23.792 17.1806 23.8107 17.2086 23.848C17.246 23.876 17.2646 23.9133 17.2646 23.96V26.144C17.2646 27.068 16.9846 27.796 16.4246 28.328C15.8646 28.8507 15.118 29.112 14.1846 29.112ZM21.7461 29.126C21.1301 29.126 20.5841 29 20.1081 28.748C19.6415 28.496 19.2775 28.1413 19.0161 27.684C18.7641 27.2173 18.6381 26.6807 18.6381 26.074V22.126C18.6381 21.5287 18.7641 21.0013 19.0161 20.544C19.2775 20.0773 19.6415 19.718 20.1081 19.466C20.5841 19.214 21.1301 19.088 21.7461 19.088C22.3715 19.088 22.9175 19.214 23.3841 19.466C23.8601 19.718 24.2288 20.0773 24.4901 20.544C24.7515 21.0013 24.8821 21.5287 24.8821 22.126V26.074C24.8821 26.6807 24.7515 27.2173 24.4901 27.684C24.2288 28.1413 23.8601 28.496 23.3841 28.748C22.9175 29 22.3715 29.126 21.7461 29.126ZM21.7461 27.726C22.2035 27.726 22.5675 27.5813 22.8381 27.292C23.1181 26.9933 23.2581 26.6107 23.2581 26.144V22.084C23.2581 21.608 23.1181 21.2253 22.8381 20.936C22.5675 20.6373 22.2035 20.488 21.7461 20.488C21.2981 20.488 20.9388 20.6373 20.6681 20.936C20.3975 21.2253 20.2621 21.608 20.2621 22.084V26.144C20.2621 26.6107 20.3975 26.9933 20.6681 27.292C20.9388 27.5813 21.2981 27.726 21.7461 27.726Z" fill="currentColor"/>
</svg>
