<svg viewBox="0 0 27 27" fill="none" xmlns="http://www.w3.org/2000/svg">
<path fill-rule="evenodd" clip-rule="evenodd" d="M17.5 4.70312C17.5 6.56696 16.2252 8.13306 14.5 8.57711V16.7031C14.5 17.2554 14.0523 17.7031 13.5 17.7031C12.9477 17.7031 12.5 17.2554 12.5 16.7031V8.57711C10.7748 8.13306 9.5 6.56696 9.5 4.70312C9.5 2.49399 11.2909 0.703125 13.5 0.703125C15.7091 0.703125 17.5 2.49399 17.5 4.70312ZM13.5 2.70312C12.3954 2.70312 11.5 3.59856 11.5 4.70312C11.5 5.80769 12.3954 6.70312 13.5 6.70312C14.6046 6.70312 15.5 5.80769 15.5 4.70312C15.5 3.59856 14.6046 2.70312 13.5 2.70312Z" fill="currentColor"/>
<path fill-rule="evenodd" clip-rule="evenodd" d="M10.5 22.0101V12.0784C10.9048 12.0783 11.2858 11.8307 11.4363 11.4293C11.6302 10.9121 11.3682 10.3357 10.8511 10.1418L9.85602 9.76864C9.82669 9.75747 9.79692 9.74771 9.7668 9.73937C9.59365 9.69145 9.40918 9.69063 9.2332 9.73937C9.20308 9.74771 9.17331 9.75747 9.14398 9.76864L1.14888 12.7668C0.758573 12.9132 0.5 13.2863 0.5 13.7031V25.7031C0.5 26.0311 0.66083 26.3382 0.930405 26.5251C1.19998 26.7119 1.54403 26.7546 1.85112 26.6395L9.5 23.7711L17.1437 26.6375L17.1662 26.6458C17.3558 26.7129 17.5628 26.7218 17.7595 26.6689C17.7922 26.6601 17.8245 26.6496 17.8563 26.6375L25.8511 23.6395C26.2414 23.4931 26.5 23.12 26.5 22.7031V10.7031C26.5 10.3752 26.3392 10.068 26.0696 9.88121C25.8 9.69439 25.456 9.65164 25.1489 9.7668L17.5 12.6351L16.8511 12.3918C16.334 12.1979 15.7576 12.4599 15.5637 12.977C15.3698 13.4941 15.6318 14.0705 16.1489 14.2645L16.5 14.3961V24.2601L10.5 22.0101ZM8.5 12.1461V22.0101L2.5 24.2601V14.3961L8.5 12.1461ZM24.5 22.0101L18.5 24.2601V14.3961L24.5 12.1461V22.0101Z" fill="currentColor"/>
</svg>
