<svg viewBox="0 0 24 30" fill="none" xmlns="http://www.w3.org/2000/svg">
  <path fill-rule="evenodd" clip-rule="evenodd" d="M12.0088 29.9925L12 30V29.9925L11.9769 29.9728C7.96099 26.5537 4.96121 23.381 2.985 20.4474C0.9975 17.5081 0 14.7938 0 12.2894C0 8.54786 1.2075 5.56361 3.615 3.33667C6.03 1.10972 8.8275 0 12 0C15.1725 0 17.97 1.10972 20.3775 3.33667C22.7925 5.56361 24 8.54786 24 12.2969C24 14.7938 23.0025 17.5156 21.0225 20.4549C19.2951 23.0095 16.7972 25.7453 13.5289 28.6673C13.0394 29.1049 12.5328 29.5466 12.0088 29.9925ZM2 12.2894C2 9.0212 3.03277 6.60024 4.97194 4.80592C7.03002 2.90855 9.34746 2 12 2C14.6535 2 16.97 2.90913 19.0194 4.80486L19.0217 4.80697C20.9667 6.60053 22 9.02021 22 12.2969C22 14.2585 21.2128 16.5922 19.3645 19.3363C17.7247 21.7609 15.289 24.4303 12.0042 27.347C8.71433 24.4265 6.27741 21.7551 4.64375 19.33L4.64178 19.3271C2.78651 16.5834 2 14.2576 2 12.2894ZM12 15C13.6569 15 15 13.6569 15 12C15 10.3431 13.6569 9 12 9C10.3431 9 9 10.3431 9 12C9 13.6569 10.3431 15 12 15Z" fill="currentColor"/>
</svg>
