<svg width="33" height="32" viewBox="0 0 33 32" fill="none" xmlns="http://www.w3.org/2000/svg">
<path d="M18.5182 2.22819C20.9603 2.22819 25.188 4.21214 25.188 10.6269C25.4195 10.712 25.6273 10.8064 25.8021 10.9104C26.2225 11.1607 26.2083 11.7842 25.7785 12.0204C24.8385 12.5353 22.2971 13.3336 16.0335 13.3336C9.76987 13.3336 7.44108 12.5353 6.49634 12.0157C6.06649 11.7795 6.05232 11.156 6.47273 10.9056C6.6475 10.8017 6.85062 10.7072 7.08208 10.6222C7.08208 4.20742 11.3098 2.22346 13.7519 2.22346" stroke="currentColor" stroke-width="1.8" stroke-linecap="round" stroke-linejoin="round"/>
<path d="M19.1039 7.91079C18.8913 6.04493 18.3481 2.08647 18.2536 1.77943C18.1166 1.32123 17.5639 1.00002 16.9262 1.00002H15.3391C14.7014 1.00002 14.1534 1.32123 14.0117 1.77943C13.9172 2.08647 13.3976 6.0402 13.1851 7.91079" stroke="currentColor" stroke-width="1.8" stroke-linecap="round" stroke-linejoin="round"/>
<path d="M16.2127 18.4102C14.3091 18.4102 15.0507 20.5878 11.4843 20.5878C7.9179 20.5878 8.30052 18.1834 8.30052 16.7096C8.30052 15.2358 10.8466 14.3383 16.1324 14.3383C21.4182 14.3383 23.9643 15.2358 23.9643 16.7096C23.9643 18.1834 24.3469 20.5878 20.7805 20.5878C17.2141 20.5878 17.9558 18.4102 16.0521 18.4102" stroke="currentColor" stroke-width="1.8" stroke-linecap="round" stroke-linejoin="round"/>
<path d="M19.3538 26.3776C18.6075 27.9742 19.0373 29.6559 20.3127 30.1282C21.5881 30.6006 23.2225 29.6889 23.9689 28.0923C24.7152 26.4957 24.2854 24.8141 23.01 24.3417C21.7346 23.8693 20.1002 24.781 19.3538 26.3776Z" stroke="currentColor" stroke-width="1.8" stroke-linecap="round" stroke-linejoin="round"/>
<path d="M12.9157 26.3776C13.662 27.9742 13.2322 29.6559 11.9568 30.1282C10.6814 30.6006 9.04695 29.6889 8.30061 28.0923C7.55426 26.4957 7.98412 24.8141 9.25952 24.3417C10.5349 23.8693 12.1693 24.781 12.9157 26.3776Z" stroke="currentColor" stroke-width="1.8" stroke-linecap="round" stroke-linejoin="round"/>
<path d="M11.749 24.833L14.484 23.2538C15.2162 22.6067 17.049 22.6067 17.7812 23.2538L20.5162 24.833" stroke="currentColor" stroke-width="1.8" stroke-linecap="round" stroke-linejoin="round"/>
<path d="M13.1943 28.6828C13.1943 28.6828 14.5075 29.585 16.1325 29.585C17.7574 29.585 18.9856 28.6828 18.9856 28.6828" stroke="currentColor" stroke-width="1.8" stroke-linecap="round" stroke-linejoin="round"/>
<path d="M28.9293 12.8795L29 10.4239C28.8485 8.25093 27.3333 6.17776 24.7071 4.55359L22 2.87953" stroke="currentColor" stroke-width="1.8" stroke-linecap="round" stroke-linejoin="round"/>
<path d="M3.10596 22.4159H3.93398C4.78979 22.4159 4.97317 21.7066 4.97317 20.8328V14.6933C4.97317 13.8194 4.78979 13.1102 3.93398 13.1102H3.10596V15.0962" stroke="currentColor" stroke-width="1.8" stroke-linecap="round" stroke-linejoin="round"/>
<path d="M3.11529 12.8795L3 9.93013C3.24706 7.32028 5.71765 4.83026 10 2.87953" stroke="currentColor" stroke-width="1.8" stroke-linecap="round" stroke-linejoin="round"/>
<path d="M3.10617 13.1158C1.43346 13.1158 1 13.2066 1 17.763C1 22.3195 1.43346 22.4159 3.10617 22.4159" stroke="currentColor" stroke-width="1.8" stroke-linecap="round" stroke-linejoin="round"/>
<path d="M29.1636 22.4159H28.3356C27.4798 22.4159 27.2964 21.7066 27.2964 20.8328V14.6933C27.2964 13.8194 27.4798 13.1102 28.3356 13.1102H29.1636V15.0962" stroke="currentColor" stroke-width="1.8" stroke-linecap="round" stroke-linejoin="round"/>
<path d="M29.1641 13.1158C30.8368 13.1158 31.2702 13.2066 31.2702 17.763C31.2702 22.3195 30.8368 22.4159 29.1641 22.4159" stroke="currentColor" stroke-width="1.8" stroke-linecap="round" stroke-linejoin="round"/>
</svg>
