<svg width="30" height="33" viewBox="0 0 30 33" fill="none" xmlns="http://www.w3.org/2000/svg">
<path d="M19.7665 21.8865C19.3475 21.3182 19.0074 20.5715 19.3434 19.0491" stroke="currentColor" stroke-width="1.8" stroke-linecap="round" stroke-linejoin="round"/>
<path d="M9.98909 19.0449C10.3251 20.5673 9.81486 21.5546 9.65723 21.8823" stroke="currentColor" stroke-width="1.8" stroke-linecap="round" stroke-linejoin="round"/>
<path d="M7.96094 11.802C8.37576 17.7258 10.342 19.6505 11.3418 20.6503C11.8852 21.1937 13.2458 21.4675 14.6189 21.4716C14.6355 21.4716 14.6521 21.4716 14.6687 21.4716C14.6853 21.4716 14.7019 21.4716 14.7184 21.4716C16.0915 21.4675 17.4521 21.1937 17.9956 20.6503C19.0119 19.634 21.0238 17.6552 21.393 11.5283" stroke="currentColor" stroke-width="1.8" stroke-linecap="round" stroke-linejoin="round"/>
<path d="M28.42 31.3652C28.3453 30.7596 28.2084 27.9305 27.972 27.0096C27.2087 24.0394 19.7667 21.8823 19.7667 21.8823C19.7667 21.8823 19.8497 25.3669 14.71 25.3669C9.5703 25.3669 9.65326 21.8823 9.65326 21.8823C9.65326 21.8823 2.21129 24.0353 1.44801 27.0096C1.21156 27.9305 1.07467 30.7596 1 31.3652" stroke="currentColor" stroke-width="1.8" stroke-linecap="round" stroke-linejoin="round"/>
<path d="M16.2698 1.29867C16.2698 1.20326 16.2118 1.11615 16.1247 1.09126C16.1247 1.09126 15.6518 1 14.6728 1C13.6938 1 13.2209 1.09126 13.2209 1.09126C13.1338 1.11615 13.0757 1.19912 13.0757 1.29867V9.34629" stroke="currentColor" stroke-width="1.8" stroke-linecap="round" stroke-linejoin="round"/>
<path d="M18.9124 5.79538V3.07412C18.3856 2.68834 17.4398 2.20714 16.6558 2.12003" stroke="currentColor" stroke-width="1.8" stroke-linecap="round" stroke-linejoin="round"/>
<path d="M9.66161 3.72958C7.56674 5.79956 7.06066 7.43813 6.9445 8.59134L6.89473 9.08083H6.33886C5.77055 9.08083 5.92818 11.2836 7.20999 11.2836H7.34274C7.50452 11.2836 7.6663 11.3333 7.80734 11.4246C7.91934 11.4993 8.0272 11.5781 8.1392 11.6569C9.05182 12.3082 9.53716 13.1171 14.6727 13.1171H14.6769C19.8124 13.1171 20.2977 12.3082 21.2104 11.6569C21.3224 11.5781 21.4302 11.4993 21.5422 11.4246C21.6833 11.3333 21.8409 11.2836 22.0068 11.2836H22.1396C23.4214 11.2836 23.579 9.08083 23.0107 9.08083H22.4548L22.4051 8.59134C22.2931 7.43813 21.787 5.80371 19.6879 3.72958" stroke="currentColor" stroke-width="1.8" stroke-linecap="round" stroke-linejoin="round"/>
<path d="M12.6898 2.12003C11.9057 2.20299 10.9599 2.68834 10.4331 3.07412V5.79538" stroke="currentColor" stroke-width="1.8" stroke-linecap="round" stroke-linejoin="round"/>
<path d="M16.2695 1.29865V9.34626" stroke="currentColor" stroke-width="1.8" stroke-linecap="round" stroke-linejoin="round"/>
</svg>
