<svg width="19" height="31" viewBox="0 0 19 31" fill="none" xmlns="http://www.w3.org/2000/svg">
<path d="M8.09567 3.163C8.09567 2.53961 7.47011 1.92661 6.4631 1.92661C5.4561 1.92661 4.97803 2.9552 4.97803 3.83834L4.97803 14.5607" stroke="currentColor" stroke-width="1.8" stroke-linecap="round" stroke-linejoin="round"/>
<path d="M14.3363 4.70592V3.48512C14.3363 2.65393 13.7412 1.91105 12.9275 1.82793C11.9968 1.73962 11.2135 2.4825 11.2135 3.41239V2.66432C11.2135 1.83313 10.6185 1.09026 9.80476 1.00714C8.87404 0.918824 8.09082 1.6617 8.09082 2.59159" stroke="currentColor" stroke-width="1.8" stroke-linecap="round" stroke-linejoin="round"/>
<path d="M4.97318 12.8983L3.89498 10.1918C3.55931 9.30344 2.52179 8.93979 1.72331 9.43331C1.09774 9.81773 0.838364 10.6022 1.10283 11.2983L4.05264 18.5816C5.22239 21.6414 5.05964 22.6024 5.05964 22.6024C5.05964 22.6024 5.08507 23.5115 4.86129 24.7895L4.14927 30H16.9301L16.4469 24.5557C16.3299 23.3453 16.2994 22.7946 16.2994 22.7946C16.2994 20.0465 17.1844 18.4309 17.1844 15.9166V5.47478C17.1844 4.71632 16.6402 4.04098 15.9027 3.96825C15.0534 3.88513 14.3414 4.56567 14.3414 5.41244" stroke="currentColor" stroke-width="1.8" stroke-linecap="round" stroke-linejoin="round"/>
<path d="M14.3364 4.70592V11.9269" stroke="currentColor" stroke-width="1.8" stroke-linecap="round" stroke-linejoin="round"/>
<path d="M11.2134 3.4176V11.9269" stroke="currentColor" stroke-width="1.8" stroke-linecap="round" stroke-linejoin="round"/>
<path d="M8.0957 2.60196V11.9268" stroke="currentColor" stroke-width="1.8" stroke-linecap="round" stroke-linejoin="round"/>
<path d="M5.16113 24.6908H9.76385" stroke="currentColor" stroke-width="1.8" stroke-linecap="round" stroke-linejoin="round"/>
</svg>
