<svg viewBox="0 0 34 27" fill="none" xmlns="http://www.w3.org/2000/svg">
<path d="M30.386 14.8197L3.12388 25.4086C2.012 25.8411 0.841305 24.9206 1.01775 23.7505L2.64496 12.9065C2.72618 12.3603 3.09588 11.9 3.61401 11.7004L30.8761 1.10872C31.988 0.676178 33.1587 1.59671 32.9823 2.76679L31.355 13.6108C31.2738 14.157 30.9041 14.6173 30.386 14.8169V14.8197Z" stroke="currentColor" stroke-width="1.8" stroke-miterlimit="10"/>
<path d="M10.7369 19.7705L7.73846 16.0762L7.66584 16.104L7.84387 20.8953L6.25093 21.5145L5.96982 13.5831L7.32616 13.0567L10.2965 16.7209L10.3692 16.6931L10.1935 11.9435L11.7864 11.3243L12.0722 19.2534L10.7369 19.7729V19.7705Z" fill="currentColor"/>
<path d="M18.362 16.8043L13.6558 18.6341L13.3747 10.7027L18.0715 8.87524L18.1301 10.4128L15.1246 11.5817L15.1831 13.2793L18.0129 12.1777L18.0621 13.5668L15.2323 14.6684L15.2932 16.4356L18.3081 15.2621L18.362 16.802V16.8043Z" fill="currentColor"/>
<path d="M20.8568 15.835L18.8282 8.58305L20.5851 7.89891L21.6837 13.0219L21.7704 12.9871L22.7285 7.06403L24.0802 6.53758L25.4764 11.5446L25.563 11.5098L26.2588 5.68878L28.0274 5L26.5657 13.6109L24.9563 14.2371L23.5648 9.69392L23.4922 9.72175L22.4872 15.1972L20.8521 15.8327L20.8568 15.835Z" fill="currentColor"/>
</svg>
