<svg width="27" height="29" viewBox="0 0 27 29" fill="none" xmlns="http://www.w3.org/2000/svg">
<path d="M25.9894 0.999985C25.8743 5.56579 24.8285 11.3446 24.8285 17.8263C24.8285 19.4194 25.6861 20.6949 25.6861 23.298C25.6861 25.9011 25.3043 26.8746 25.3043 26.8746C25.1422 27.5462 24.9122 28.02 24.2167 28.02H17.7585C17.4081 28.02 17.0682 27.9002 16.8015 27.6764C16.8015 27.6764 15.6929 26.6508 14.5215 27.0777C13.5332 27.4369 12.3148 28.02 9.98775 28.02C6.41092 28.02 1.72024 28.02 1.3385 27.0464C1.3385 27.0464 0.449521 23.7822 2.36344 22.2411C4.60681 20.4346 10.6728 22.3609 12.0376 19.1018C13.1828 16.3686 12.32 2.869 12.32 0.999985H25.9998H25.9894Z" stroke="currentColor" stroke-width="1.8" stroke-linecap="round" stroke-linejoin="round"/>
<path d="M1.12939 25.2086C1.12939 25.2086 4.18853 25.6772 6.74565 25.6772" stroke="currentColor" stroke-width="1.8" stroke-linecap="round" stroke-linejoin="round"/>
<path d="M25.6184 25.0525C25.6184 25.0525 23.9555 25.4429 21.0166 25.4429" stroke="currentColor" stroke-width="1.8" stroke-linecap="round" stroke-linejoin="round"/>
<path d="M12.498 4.99311H25.7125" stroke="currentColor" stroke-width="1.8" stroke-linecap="round" stroke-linejoin="round"/>
</svg>
