<svg width="34" height="35" viewBox="0 0 34 35" fill="none" xmlns="http://www.w3.org/2000/svg">
<path d="M16.0081 31.9919C14.8365 33.1635 12.937 33.1635 11.7655 31.9919L2.50809 22.7346C1.33652 21.563 1.33652 19.6635 2.50809 18.4919L16.4988 4.50117C17.076 3.92399 17.8635 3.60691 18.6796 3.62308L27.9324 3.80646C29.5624 3.83876 30.8683 5.16697 30.8729 6.79733L30.8987 15.8501C30.901 16.6487 30.5847 17.4153 30.02 17.98L16.0081 31.9919Z" stroke="currentColor" stroke-width="1.8" stroke-linecap="round" stroke-linejoin="round"/>
<path d="M21.6771 12.8259C22.5283 13.677 23.9083 13.677 24.7594 12.8259C25.6106 11.9747 25.6106 10.5947 24.7594 9.74355C23.9083 8.89239 22.5283 8.89239 21.6771 9.74355C20.826 10.5947 20.826 11.9747 21.6771 12.8259Z" stroke="currentColor" stroke-width="1.8" stroke-linecap="round" stroke-linejoin="round"/>
</svg>
