<svg width="34" height="23" viewBox="0 0 34 23" fill="none" xmlns="http://www.w3.org/2000/svg">
<path d="M17.0034 5.13102V22.0415H24.1278L24.6341 10.1302L28.2359 19.6271L32.6236 18.0555L26.7252 4.50238" stroke="currentColor" stroke-width="1.8" stroke-linecap="round" stroke-linejoin="round"/>
<path d="M16.8861 5.13851C14.0539 5.13851 13.2321 3.23015 13.2835 0.999992H12.2563C9.91573 0.999992 8.30888 2.36204 7.28168 4.50239L1.37598 18.0555L5.76361 19.6271L9.36544 10.1227L9.8717 22.034H17.0034V5.13103C16.9594 5.13103 16.9301 5.14599 16.8861 5.14599V5.13851Z" stroke="currentColor" stroke-width="1.8" stroke-linecap="round" stroke-linejoin="round"/>
<path d="M26.7252 4.50239C25.698 2.35455 24.0911 0.999992 21.7506 0.999992H20.7234C20.7747 3.23764 19.953 5.13851 17.1208 5.13851L17.0034 5.12354" stroke="currentColor" stroke-width="1.8" stroke-linecap="round" stroke-linejoin="round"/>
<path d="M20.7236 0.999992C20.7236 0.999992 18.8746 1.34425 17.0036 1.34425C15.1327 1.34425 13.2837 0.999992 13.2837 0.999992" stroke="currentColor" stroke-width="1.8" stroke-linecap="round" stroke-linejoin="round"/>
</svg>
