<svg xmlns="http://www.w3.org/2000/svg" viewBox="0 0 400 400">
<path id="path0" d="M184.766 0.499 C 106.232 12.043,66.662 101.650,110.895 167.780 C 152.987 230.707,247.319 230.368,289.512 167.138 C 331.512 104.199,296.889 18.639,222.656 1.926 C 216.963 0.644,190.546 -0.351,184.766 0.499 M208.984 26.122 C 279.794 31.499,307.275 126.460,250.970 171.204 C 185.188 223.479,92.808 153.952,124.548 76.055 C 136.738 46.140,172.949 22.366,201.563 25.493 C 202.637 25.611,205.977 25.893,208.984 26.122 M191.797 48.161 C 143.106 56.004,123.423 114.540,157.813 149.230 C 196.195 187.948,262.292 158.655,259.126 104.329 C 257.088 69.372,225.212 42.779,191.797 48.161 M206.407 74.324 C 232.731 79.957,242.428 112.334,223.470 131.292 C 199.568 155.194,159.069 131.630,167.619 98.797 C 172.051 81.775,189.571 70.720,206.407 74.324 M103.263 189.068 C 82.036 193.555,68.555 220.142,77.717 239.453 C 85.700 256.280,120.601 277.929,150.219 284.425 L 154.735 285.416 126.317 313.997 C 95.304 345.188,93.881 346.998,92.190 357.400 C 87.762 384.637,119.567 408.858,144.157 396.975 C 149.094 394.589,152.003 391.943,174.922 368.992 L 200.234 343.645 226.093 369.366 C 257.177 400.282,256.184 399.609,270.746 399.609 C 292.639 399.609,309.593 382.100,308.440 360.681 C 307.774 348.322,307.731 348.263,274.433 314.782 L 245.234 285.422 249.766 284.427 C 296.946 274.066,329.669 244.481,323.936 217.371 C 317.927 188.958,290.142 180.233,263.011 198.240 C 225.024 223.452,175.219 224.236,140.099 200.176 C 125.265 190.013,114.354 186.723,103.263 189.068 M112.579 214.981 C 114.039 215.486,119.805 218.536,125.391 221.758 C 176.248 251.100,231.938 251.001,275.000 221.493 C 288.511 212.235,293.842 212.087,298.342 220.847 C 305.774 235.313,253.004 263.261,218.224 263.279 C 209.037 263.284,202.914 272.782,206.295 281.785 C 206.749 282.995,223.938 300.859,244.492 321.484 C 265.047 342.109,282.112 359.810,282.415 360.819 C 284.033 366.203,277.087 374.219,270.804 374.219 C 267.664 374.219,267.257 373.852,237.523 344.226 C 204.691 311.513,205.866 312.500,199.778 312.500 C 193.896 312.500,193.637 312.721,162.372 344.352 C 147.478 359.421,134.375 372.351,133.256 373.084 C 127.940 376.567,117.969 369.918,117.969 362.891 C 117.969 359.107,120.171 356.681,156.250 320.703 C 194.974 282.089,194.533 282.598,194.527 276.406 C 194.520 268.634,189.546 263.296,182.304 263.286 C 172.309 263.274,150.663 258.388,137.091 253.082 C 123.111 247.616,101.003 231.648,100.691 226.791 C 100.168 218.643,106.106 212.743,112.579 214.981 " stroke="none" fill="currentColor" fill-rule="evenodd"></path></svg>