<svg viewBox="0 0 30 30" fill="none" xmlns="http://www.w3.org/2000/svg">
<rect x="7" y="1" width="22" height="22" stroke="currentColor" stroke-width="2"/>
<rect x="7" y="1" width="22" height="22" stroke="currentColor" stroke-opacity="0.2" stroke-width="2"/>
<path d="M1.5 4.5V28.5H25.5" stroke="currentColor" stroke-width="2" stroke-linecap="round" stroke-linejoin="round"/>
<path d="M1.5 4.5V28.5H25.5" stroke="currentColor" stroke-opacity="0.2" stroke-width="2" stroke-linecap="round" stroke-linejoin="round"/>
<path d="M22.0229 16.5V7.62H25.8989V8.784H23.3429V11.352H25.1909V12.456H23.3429V16.5H22.0229Z" fill="currentColor"/>
<path d="M22.0229 16.5V7.62H25.8989V8.784H23.3429V11.352H25.1909V12.456H23.3429V16.5H22.0229Z" fill="currentColor" fill-opacity="0.2"/>
<path d="M16.0464 16.5V7.62H17.7984C19.8624 7.62 21.0144 8.616 21.0144 12.048C21.0144 15.48 19.8264 16.5 17.7984 16.5H16.0464ZM17.3664 15.384H17.9664C19.2624 15.384 19.6824 14.436 19.6824 12.048C19.6824 9.69599 19.2624 8.77199 17.9544 8.77199H17.3664V15.384Z" fill="currentColor"/>
<path d="M16.0464 16.5V7.62H17.7984C19.8624 7.62 21.0144 8.616 21.0144 12.048C21.0144 15.48 19.8264 16.5 17.7984 16.5H16.0464ZM17.3664 15.384H17.9664C19.2624 15.384 19.6824 14.436 19.6824 12.048C19.6824 9.69599 19.2624 8.77199 17.9544 8.77199H17.3664V15.384Z" fill="currentColor" fill-opacity="0.2"/>
<path d="M10.5503 16.5V7.62H12.6383C13.9823 7.62 15.1463 8.232 15.1463 10.332C15.1463 12.636 13.8743 13.14 12.5903 13.14H11.8463V16.5H10.5503ZM11.8463 12.048H12.6503C13.4543 12.048 13.8503 11.592 13.8503 10.368C13.8503 9.19199 13.4663 8.75999 12.6383 8.75999H11.8463V12.048Z" fill="currentColor"/>
<path d="M10.5503 16.5V7.62H12.6383C13.9823 7.62 15.1463 8.232 15.1463 10.332C15.1463 12.636 13.8743 13.14 12.5903 13.14H11.8463V16.5H10.5503ZM11.8463 12.048H12.6503C13.4543 12.048 13.8503 11.592 13.8503 10.368C13.8503 9.19199 13.4663 8.75999 12.6383 8.75999H11.8463V12.048Z" fill="currentColor" fill-opacity="0.2"/>
</svg>
