<svg viewBox="0 0 30 30" fill="none" xmlns="http://www.w3.org/2000/svg">
<path d="M16.0601 13.8838V4.76013H18.3731V9.95714L27.5091 0.833496L29.1667 2.48884L20.0692 11.574H25.1962V13.8838H16.0601V13.8838ZM26.8538 29.1668C23.7159 29.1668 20.6012 28.3969 17.5096 26.857C14.418 25.3172 11.627 23.3154 9.1599 20.8516C6.69278 18.3878 4.68825 15.6084 3.1463 12.5133C1.60435 9.42589 0.833374 6.31538 0.833374 3.18177C0.833374 2.69672 1.00299 2.28096 1.33451 1.94989C1.66603 1.61882 2.08235 1.44944 2.56807 1.44944H7.96489C8.32725 1.44944 8.64335 1.57263 8.91319 1.8113C9.18303 2.05768 9.36036 2.38105 9.42974 2.79681L10.4706 7.64735C10.5245 8.00922 10.5168 8.33259 10.4551 8.62516C10.3935 8.91773 10.2547 9.17181 10.0542 9.37199L6.19936 13.2601C7.64108 15.6469 9.25242 17.7257 11.0334 19.4965C12.822 21.2674 14.842 22.7687 17.1087 24.0006L20.7708 20.228C21.0252 19.9431 21.3259 19.7506 21.6574 19.6351C21.9889 19.5196 22.3282 19.4965 22.6597 19.5735L27.247 20.5744C27.6325 20.6514 27.9563 20.8439 28.2107 21.1519C28.4651 21.4599 28.5962 21.8217 28.5962 22.2298V27.4268C28.5962 27.9118 28.4266 28.3276 28.0951 28.6587C27.7635 28.9897 27.3472 29.1591 26.8615 29.1591L26.8538 29.1668ZM5.03519 11.1505L8.15764 7.99382L7.27102 3.75922H3.1463C3.1463 4.76013 3.30049 5.85342 3.60888 7.04681C3.91727 8.2402 4.39528 9.60297 5.03519 11.1505ZM19.2597 25.1247C20.3159 25.6098 21.457 26.0101 22.6905 26.3181C23.9241 26.6261 25.1191 26.8032 26.2755 26.857V22.7379L22.305 21.9295L19.2597 25.1247V25.1247Z" fill="currentColor"/>
</svg>
