<svg viewBox="0 0 33 42" fill="none" xmlns="http://www.w3.org/2000/svg">
<path d="M32.5 0.5V31.5H0.5V0.5H32.5ZM2.5 29.5H30.5V2.5H2.5V29.5Z" fill="currentColor"/>
<path d="M32.5 0.5V31.5H0.5V0.5H32.5ZM2.5 29.5H30.5V2.5H2.5V29.5Z" fill="currentColor" fill-opacity="0.2"/>
<mask id="mask0_3442_2175" style="mask-type:luminance" maskUnits="userSpaceOnUse" x="15" y="2" width="18" height="28">
<path d="M32.5 2.5H15.5V29.5H32.5V2.5Z" fill="white"/>
</mask>
<g mask="url(#mask0_3442_2175)">
<path d="M28.2863 21.3602C33.1006 21.3604 37.4299 23.4224 38.9553 26.6366C39.1918 27.1354 38.9794 27.7319 38.4807 27.9686C37.9818 28.2054 37.3855 27.9927 37.1486 27.494C36.0875 25.258 32.6965 23.3604 28.2863 23.3602C23.8755 23.3602 20.4557 25.2772 19.4064 27.5272C19.173 28.0278 18.5779 28.244 18.0773 28.0106C17.577 27.7771 17.3606 27.182 17.5939 26.6815C19.105 23.4418 23.4725 21.3602 28.2863 21.3602Z" fill="currentColor"/>
<path d="M28.2863 21.3602C33.1006 21.3604 37.4299 23.4224 38.9553 26.6366C39.1918 27.1354 38.9794 27.7319 38.4807 27.9686C37.9818 28.2054 37.3855 27.9927 37.1486 27.494C36.0875 25.258 32.6965 23.3604 28.2863 23.3602C23.8755 23.3602 20.4557 25.2772 19.4064 27.5272C19.173 28.0278 18.5779 28.244 18.0773 28.0106C17.577 27.7771 17.3606 27.182 17.5939 26.6815C19.105 23.4418 23.4725 21.3602 28.2863 21.3602Z" fill="currentColor" fill-opacity="0.2"/>
<path d="M33.9238 11.4995C33.9238 8.34203 31.3644 5.78199 28.207 5.78174C25.0494 5.78174 22.4893 8.34188 22.4893 11.4995C22.4895 14.6568 25.0496 17.2163 28.207 17.2163C31.3643 17.2161 33.9236 14.6567 33.9238 11.4995ZM35.9238 11.4995C35.9236 15.7612 32.4689 19.2161 28.207 19.2163C23.945 19.2163 20.4895 15.7614 20.4893 11.4995C20.4893 7.23733 23.9448 3.78174 28.207 3.78174C32.469 3.78199 35.9238 7.23749 35.9238 11.4995Z" fill="currentColor"/>
<path d="M33.9238 11.4995C33.9238 8.34203 31.3644 5.78199 28.207 5.78174C25.0494 5.78174 22.4893 8.34188 22.4893 11.4995C22.4895 14.6568 25.0496 17.2163 28.207 17.2163C31.3643 17.2161 33.9236 14.6567 33.9238 11.4995ZM35.9238 11.4995C35.9236 15.7612 32.4689 19.2161 28.207 19.2163C23.945 19.2163 20.4895 15.7614 20.4893 11.4995C20.4893 7.23733 23.9448 3.78174 28.207 3.78174C32.469 3.78199 35.9238 7.23749 35.9238 11.4995Z" fill="currentColor" fill-opacity="0.2"/>
<path d="M36.8037 10.499C37.356 10.499 37.8037 10.9467 37.8037 11.499C37.8037 12.0513 37.356 12.499 36.8037 12.499H19.6084C19.0561 12.499 18.6084 12.0513 18.6084 11.499C18.6084 10.9467 19.0561 10.499 19.6084 10.499H36.8037Z" fill="currentColor"/>
<path d="M36.8037 10.499C37.356 10.499 37.8037 10.9467 37.8037 11.499C37.8037 12.0513 37.356 12.499 36.8037 12.499H19.6084C19.0561 12.499 18.6084 12.0513 18.6084 11.499C18.6084 10.9467 19.0561 10.499 19.6084 10.499H36.8037Z" fill="currentColor" fill-opacity="0.2"/>
<path d="M27.1934 8.44385V4.78174C27.1934 4.22945 27.6411 3.78174 28.1934 3.78174C28.7456 3.78174 29.1934 4.22945 29.1934 4.78174V8.44385L29.1885 8.54639C29.1372 9.05056 28.7111 9.44385 28.1934 9.44385C27.6757 9.44385 27.2495 9.05056 27.1982 8.54639L27.1934 8.44385Z" fill="currentColor"/>
<path d="M27.1934 8.44385V4.78174C27.1934 4.22945 27.6411 3.78174 28.1934 3.78174C28.7456 3.78174 29.1934 4.22945 29.1934 4.78174V8.44385L29.1885 8.54639C29.1372 9.05056 28.7111 9.44385 28.1934 9.44385C27.6757 9.44385 27.2495 9.05056 27.1982 8.54639L27.1934 8.44385Z" fill="currentColor" fill-opacity="0.2"/>
<path d="M30.4927 8.44421V6.04871C30.4927 5.49642 30.9404 5.04871 31.4927 5.04871C32.045 5.04871 32.4927 5.49642 32.4927 6.04871V8.44421C32.4925 8.99639 32.0449 9.44421 31.4927 9.44421C30.9405 9.44421 30.4928 8.99639 30.4927 8.44421Z" fill="currentColor"/>
<path d="M30.4927 8.44421V6.04871C30.4927 5.49642 30.9404 5.04871 31.4927 5.04871C32.045 5.04871 32.4927 5.49642 32.4927 6.04871V8.44421C32.4925 8.99639 32.0449 9.44421 31.4927 9.44421C30.9405 9.44421 30.4928 8.99639 30.4927 8.44421Z" fill="currentColor" fill-opacity="0.2"/>
<path d="M23.894 8.44421V6.04871C23.894 5.49642 24.3418 5.04871 24.894 5.04871C25.4463 5.04871 25.894 5.49642 25.894 6.04871V8.44421C25.8939 8.99639 25.4462 9.44421 24.894 9.44421C24.3418 9.44421 23.8942 8.99639 23.894 8.44421Z" fill="currentColor"/>
<path d="M23.894 8.44421V6.04871C23.894 5.49642 24.3418 5.04871 24.894 5.04871C25.4463 5.04871 25.894 5.49642 25.894 6.04871V8.44421C25.8939 8.99639 25.4462 9.44421 24.894 9.44421C24.3418 9.44421 23.8942 8.99639 23.894 8.44421Z" fill="currentColor" fill-opacity="0.2"/>
</g>
<path d="M10.6054 5.05274C10.8524 4.55876 11.4532 4.35849 11.9472 4.60548C12.4412 4.85247 12.6414 5.45329 12.3945 5.94727L9.89446 10.9473C9.7507 11.2348 9.47737 11.4358 9.16008 11.4873C8.84281 11.5388 8.52017 11.4343 8.29289 11.207L5.79289 8.70704C5.40237 8.31651 5.40237 7.6835 5.79289 7.29298C6.18342 6.90245 6.81643 6.90245 7.20696 7.29298L8.72551 8.81153L10.6054 5.05274Z" fill="currentColor"/>
<path d="M10.6054 5.05274C10.8524 4.55876 11.4532 4.35849 11.9472 4.60548C12.4412 4.85247 12.6414 5.45329 12.3945 5.94727L9.89446 10.9473C9.7507 11.2348 9.47737 11.4358 9.16008 11.4873C8.84281 11.5388 8.52017 11.4343 8.29289 11.207L5.79289 8.70704C5.40237 8.31651 5.40237 7.6835 5.79289 7.29298C6.18342 6.90245 6.81643 6.90245 7.20696 7.29298L8.72551 8.81153L10.6054 5.05274Z" fill="currentColor" fill-opacity="0.2"/>
<path d="M10.6054 13.0527C10.8524 12.5588 11.4532 12.3585 11.9472 12.6055C12.4412 12.8525 12.6414 13.4533 12.3945 13.9473L9.89446 18.9473C9.7507 19.2348 9.47737 19.4358 9.16008 19.4873C8.84281 19.5388 8.52017 19.4343 8.29289 19.207L5.79289 16.707C5.40237 16.3165 5.40237 15.6835 5.79289 15.293C6.18342 14.9025 6.81643 14.9025 7.20696 15.293L8.72551 16.8115L10.6054 13.0527Z" fill="currentColor"/>
<path d="M10.6054 13.0527C10.8524 12.5588 11.4532 12.3585 11.9472 12.6055C12.4412 12.8525 12.6414 13.4533 12.3945 13.9473L9.89446 18.9473C9.7507 19.2348 9.47737 19.4358 9.16008 19.4873C8.84281 19.5388 8.52017 19.4343 8.29289 19.207L5.79289 16.707C5.40237 16.3165 5.40237 15.6835 5.79289 15.293C6.18342 14.9025 6.81643 14.9025 7.20696 15.293L8.72551 16.8115L10.6054 13.0527Z" fill="currentColor" fill-opacity="0.2"/>
<path d="M10.6054 21.0527C10.8524 20.5588 11.4532 20.3585 11.9472 20.6055C12.4412 20.8525 12.6414 21.4533 12.3945 21.9473L9.89446 26.9473C9.7507 27.2348 9.47737 27.4358 9.16008 27.4873C8.84281 27.5388 8.52017 27.4343 8.29289 27.207L5.79289 24.707C5.40237 24.3165 5.40237 23.6835 5.79289 23.293C6.18342 22.9025 6.81643 22.9025 7.20696 23.293L8.72551 24.8115L10.6054 21.0527Z" fill="currentColor"/>
<path d="M10.6054 21.0527C10.8524 20.5588 11.4532 20.3585 11.9472 20.6055C12.4412 20.8525 12.6414 21.4533 12.3945 21.9473L9.89446 26.9473C9.7507 27.2348 9.47737 27.4358 9.16008 27.4873C8.84281 27.5388 8.52017 27.4343 8.29289 27.207L5.79289 24.707C5.40237 24.3165 5.40237 23.6835 5.79289 23.293C6.18342 22.9025 6.81643 22.9025 7.20696 23.293L8.72551 24.8115L10.6054 21.0527Z" fill="currentColor" fill-opacity="0.2"/>
<path d="M15.5 38.5V30.5C15.5 29.9477 15.9477 29.5 16.5 29.5C17.0523 29.5 17.5 29.9477 17.5 30.5V38.5C17.5 39.0523 17.0523 39.5 16.5 39.5C15.9477 39.5 15.5 39.0523 15.5 38.5Z" fill="currentColor"/>
<path d="M15.5 38.5V30.5C15.5 29.9477 15.9477 29.5 16.5 29.5C17.0523 29.5 17.5 29.9477 17.5 30.5V38.5C17.5 39.0523 17.0523 39.5 16.5 39.5C15.9477 39.5 15.5 39.0523 15.5 38.5Z" fill="currentColor" fill-opacity="0.2"/>
<path d="M8.19203 30.451C8.36244 29.9259 8.92653 29.6382 9.4518 29.8084C9.97691 29.9789 10.2646 30.543 10.0944 31.0682L6.89907 40.9266C6.72879 41.452 6.16468 41.7404 5.6393 41.5702C5.11406 41.3998 4.82656 40.8357 4.99672 40.3104L8.19203 30.451Z" fill="currentColor"/>
<path d="M8.19203 30.451C8.36244 29.9259 8.92653 29.6382 9.4518 29.8084C9.97691 29.9789 10.2646 30.543 10.0944 31.0682L6.89907 40.9266C6.72879 41.452 6.16468 41.7404 5.6393 41.5702C5.11406 41.3998 4.82656 40.8357 4.99672 40.3104L8.19203 30.451Z" fill="currentColor" fill-opacity="0.2"/>
<path d="M26.101 40.9263L26.1372 41.0224C26.3414 41.4864 26.868 41.729 27.3606 41.5693C27.8532 41.4097 28.1374 40.9043 28.0305 40.4088L28.0036 40.3097L24.8085 30.4513C24.6383 29.9259 24.0743 29.638 23.5489 29.8083C23.0236 29.9785 22.7357 30.5425 22.906 31.0679L26.101 40.9263Z" fill="currentColor"/>
<path d="M26.101 40.9263L26.1372 41.0224C26.3414 41.4864 26.868 41.729 27.3606 41.5693C27.8532 41.4097 28.1374 40.9043 28.0305 40.4088L28.0036 40.3097L24.8085 30.4513C24.6383 29.9259 24.0743 29.638 23.5489 29.8083C23.0236 29.9785 22.7357 30.5425 22.906 31.0679L26.101 40.9263Z" fill="currentColor" fill-opacity="0.2"/>
</svg>
