<svg viewBox="0 0 36 37" fill="none" xmlns="http://www.w3.org/2000/svg">
  <path fill-rule="evenodd" clip-rule="evenodd" d="M1 27.5H3V30.5C3 32.1569 4.34315 33.5 6 33.5H9V35.5H6C3.23858 35.5 1 33.2614 1 30.5V27.5ZM1 21.5H3V15.5H1V21.5ZM1 9.5H3V6.5C3 4.84315 4.34315 3.5 6 3.5H9V1.5H6C3.23858 1.5 1 3.73858 1 6.5V9.5ZM15 1.5V3.5H21V1.5H15ZM27 1.5V3.5H30C31.6569 3.5 33 4.84315 33 6.5V9.5H35V6.5C35 3.73858 32.7614 1.5 30 1.5H27ZM35 15.5H33V21.5H35V15.5ZM35 27.5H33V30.5C33 32.1569 31.6569 33.5 30 33.5H27V35.5H30C32.7614 35.5 35 33.2614 35 30.5V27.5ZM21 35.5V33.5H15V35.5H21Z" fill="currentColor"/>
  <path fill-rule="evenodd" clip-rule="evenodd" d="M18 12.5C18.5523 12.5 19 12.9477 19 13.5L19 23.5C19 24.0523 18.5523 24.5 18 24.5C17.4477 24.5 17 24.0523 17 23.5L17 13.5C17 12.9477 17.4477 12.5 18 12.5Z" fill="currentColor"/>
  <path fill-rule="evenodd" clip-rule="evenodd" d="M12 18.5C12 17.9477 12.4477 17.5 13 17.5H23C23.5523 17.5 24 17.9477 24 18.5C24 19.0523 23.5523 19.5 23 19.5H13C12.4477 19.5 12 19.0523 12 18.5Z" fill="currentColor"/>
</svg>
