<svg viewBox="0 0 16 16" fill="none" xmlns="http://www.w3.org/2000/svg">
<path d="M11.1667 5.16668H4.83334C4.56001 5.16668 4.33334 4.94001 4.33334 4.66668V3.33334C4.33334 1.62668 5.12668 0.833344 6.83334 0.833344H9.16668C10.8733 0.833344 11.6667 1.62668 11.6667 3.33334V4.66668C11.6667 4.94001 11.44 5.16668 11.1667 5.16668ZM5.33334 4.16668H10.6667V3.33334C10.6667 2.20001 10.3 1.83334 9.16668 1.83334H6.83334C5.70001 1.83334 5.33334 2.20001 5.33334 3.33334V4.16668Z" fill="currentColor"/>
<path d="M8.66668 15.1667H7.33334C5.72001 15.1667 4.83334 14.28 4.83334 12.6667V10C4.83334 9.72667 5.06001 9.5 5.33334 9.5H10.6667C10.94 9.5 11.1667 9.72667 11.1667 10V12.6667C11.1667 14.28 10.28 15.1667 8.66668 15.1667ZM5.83334 10.5V12.6667C5.83334 13.72 6.28001 14.1667 7.33334 14.1667H8.66668C9.72001 14.1667 10.1667 13.72 10.1667 12.6667V10.5H5.83334Z" fill="currentColor"/>
<path d="M12 12.5H10.6667C10.3933 12.5 10.1667 12.2733 10.1667 12V10.5H5.83333V12C5.83333 12.2733 5.60667 12.5 5.33333 12.5H4C2.38667 12.5 1.5 11.6133 1.5 9.99999V6.66666C1.5 5.05332 2.38667 4.16666 4 4.16666H12C13.6133 4.16666 14.5 5.05332 14.5 6.66666V9.99999C14.5 11.6133 13.6133 12.5 12 12.5ZM11.1667 11.5H12C13.0533 11.5 13.5 11.0533 13.5 9.99999V6.66666C13.5 5.61332 13.0533 5.16666 12 5.16666H4C2.94667 5.16666 2.5 5.61332 2.5 6.66666V9.99999C2.5 11.0533 2.94667 11.5 4 11.5H4.83333V9.99999C4.83333 9.72666 5.06 9.49999 5.33333 9.49999H10.6667C10.94 9.49999 11.1667 9.72666 11.1667 9.99999V11.5Z" fill="currentColor"/>
<path d="M11.3333 10.5H4.66666C4.39332 10.5 4.16666 10.2733 4.16666 10C4.16666 9.72667 4.39332 9.5 4.66666 9.5H11.3333C11.6067 9.5 11.8333 9.72667 11.8333 10C11.8333 10.2733 11.6067 10.5 11.3333 10.5Z" fill="currentColor"/>
<path d="M6.66666 7.83334H4.66666C4.39332 7.83334 4.16666 7.60668 4.16666 7.33334C4.16666 7.06001 4.39332 6.83334 4.66666 6.83334H6.66666C6.93999 6.83334 7.16666 7.06001 7.16666 7.33334C7.16666 7.60668 6.93999 7.83334 6.66666 7.83334Z" fill="currentColor"/>
</svg>
