<svg viewBox="0 0 30 30" fill="none" xmlns="http://www.w3.org/2000/svg">
  <path d="M4.76898 12.4262L8.48712 14.0189C8.90804 13.1694 9.35702 12.3342 9.84108 11.506C10.3181 10.6778 10.8302 9.89211 11.3634 9.13471L8.59235 8.56843L4.76898 12.4262V12.4262ZM10.1708 15.293L14.836 20.0002C16.1689 19.3844 17.4177 18.6907 18.5892 17.912C19.7608 17.1334 20.7079 16.376 21.4304 15.6469C23.3246 13.7357 24.7136 11.775 25.6046 9.77177C26.4955 7.76856 26.9726 5.50344 27.0427 2.97642C24.5382 3.04721 22.2933 3.52855 20.308 4.42751C18.3226 5.32648 16.3794 6.72802 14.4852 8.63921C13.7627 9.3683 13.012 10.3239 12.2403 11.506C11.4686 12.6881 10.7811 13.9481 10.1708 15.293ZM18.2034 11.8953C17.7333 11.4211 17.5018 10.8406 17.5018 10.1399C17.5018 9.43908 17.7333 8.85865 18.2034 8.38439C18.6734 7.91013 19.2487 7.67654 19.9432 7.67654C20.6377 7.67654 21.213 7.91013 21.683 8.38439C22.153 8.85865 22.3845 9.43908 22.3845 10.1399C22.3845 10.8406 22.153 11.4211 21.683 11.8953C21.213 12.3696 20.6377 12.6032 19.9432 12.6032C19.2487 12.6032 18.6734 12.3696 18.2034 11.8953ZM17.6772 25.4506L21.5006 21.5928L20.9394 18.7968C20.1887 19.3419 19.41 19.8515 18.5892 20.3329C17.7684 20.8142 16.9406 21.2743 16.0988 21.699L17.6772 25.4506V25.4506ZM29.1122 0.888271C29.3227 4.09483 28.9228 7.02532 27.9196 9.66559C26.9164 12.3059 25.2538 14.7975 22.9387 17.1334L22.8686 17.2042L22.7984 17.275L23.5701 21.1681C23.6403 21.5221 23.6262 21.8618 23.514 22.1945C23.4088 22.5272 23.2264 22.8174 22.9668 23.0793L16.9687 29.1668L13.9872 22.1591L8.02411 16.1424L1.08593 13.1341L7.11913 7.08195C7.37869 6.82004 7.66632 6.64308 7.99604 6.5369C8.32577 6.43073 8.6625 6.40949 9.01327 6.48735L12.8717 7.26599C12.8717 7.26599 12.9208 7.22352 12.9419 7.21644C12.9629 7.20228 12.991 7.18812 13.012 7.16689C15.3271 4.83099 17.7965 3.15339 20.4132 2.12701C23.0299 1.07939 25.9343 0.675917 29.1122 0.888271ZM3.43607 20.4249C4.25686 19.5967 5.25304 19.1791 6.43162 19.172C7.6102 19.1578 8.61339 19.5684 9.42717 20.3966C10.248 21.2248 10.6478 22.2299 10.6408 23.4262C10.6338 24.6224 10.2129 25.6276 9.3921 26.4487C8.78176 27.0645 7.84171 27.5671 6.56491 27.9706C5.28812 28.374 3.37995 28.7492 0.833374 29.1031C1.18414 26.5336 1.55595 24.5941 1.93478 23.2988C2.32063 22.0034 2.81872 21.0478 3.42905 20.432L3.43607 20.4249ZM4.90929 21.9468C4.57957 22.3007 4.29194 22.8528 4.03237 23.6102C3.7728 24.3676 3.55533 25.3303 3.36591 26.5124C4.53748 26.3213 5.49156 26.1018 6.24221 25.8399C6.99285 25.578 7.54005 25.2878 7.89081 24.9551C8.33278 24.5517 8.56429 24.0562 8.57832 23.4545C8.59235 22.8528 8.38189 22.329 7.96097 21.8831C7.519 21.4584 6.99285 21.2531 6.39654 21.2602C5.80024 21.2743 5.30215 21.5008 4.90929 21.9538V21.9468Z" fill="currentColor"/>
</svg>
