<svg viewBox="0 0 32 14" fill="none" xmlns="http://www.w3.org/2000/svg">
<rect x="1.6" y="0.6" width="28.8" height="12.8" stroke="currentColor" stroke-width="1.2" stroke-linejoin="round"/>
<path d="M9.6 7C9.6 6.66863 9.33137 6.4 9 6.4C8.66863 6.4 8.4 6.66863 8.4 7H9.6ZM9.6 14V7H8.4V14H9.6Z" fill="currentColor"/>
<path d="M16.6 5C16.6 4.66863 16.3314 4.4 16 4.4C15.6686 4.4 15.4 4.66863 15.4 5H16.6ZM16.6 14V5H15.4V14H16.6Z" fill="currentColor"/>
<path d="M23.6 7C23.6 6.66863 23.3314 6.4 23 6.4C22.6686 6.4 22.4 6.66863 22.4 7H23.6ZM23.6 14V7H22.4V14H23.6Z" fill="currentColor"/>
</svg>
