<svg viewBox="0 0 17 19" fill="none" xmlns="http://www.w3.org/2000/svg">
<path fill-rule="evenodd" clip-rule="evenodd" d="M13.3333 1.66667C12.4128 1.66667 11.6667 2.41286 11.6667 3.33333C11.6667 4.25381 12.4128 5 13.3333 5C14.2538 5 15 4.25381 15 3.33333C15 2.41286 14.2538 1.66667 13.3333 1.66667ZM10 3.33333C10 1.49238 11.4924 0 13.3333 0C15.1743 0 16.6667 1.49238 16.6667 3.33333C16.6667 5.17428 15.1743 6.66667 13.3333 6.66667C11.4924 6.66667 10 5.17428 10 3.33333Z" fill="currentColor"/>
<path fill-rule="evenodd" clip-rule="evenodd" d="M3.33333 7.49999C2.41286 7.49999 1.66667 8.24616 1.66667 9.16666C1.66667 10.0872 2.41286 10.8333 3.33333 10.8333C4.25381 10.8333 5 10.0872 5 9.16666C5 8.24616 4.25381 7.49999 3.33333 7.49999ZM0 9.16666C0 7.32571 1.49238 5.83333 3.33333 5.83333C5.17428 5.83333 6.66667 7.32571 6.66667 9.16666C6.66667 11.0076 5.17428 12.5 3.33333 12.5C1.49238 12.5 0 11.0076 0 9.16666Z" fill="currentColor"/>
<path fill-rule="evenodd" clip-rule="evenodd" d="M13.3333 13.3333C12.4128 13.3333 11.6667 14.0795 11.6667 15C11.6667 15.9205 12.4128 16.6667 13.3333 16.6667C14.2538 16.6667 15 15.9205 15 15C15 14.0795 14.2538 13.3333 13.3333 13.3333ZM10 15C10 13.1591 11.4924 11.6667 13.3333 11.6667C15.1743 11.6667 16.6667 13.1591 16.6667 15C16.6667 16.8409 15.1743 18.3333 13.3333 18.3333C11.4924 18.3333 10 16.8409 10 15Z" fill="currentColor"/>
<path fill-rule="evenodd" clip-rule="evenodd" d="M4.76971 10.0054C5.00144 9.60776 5.51164 9.47326 5.90929 9.70501L11.601 13.0217C11.9986 13.2534 12.1331 13.7636 11.9014 14.1613C11.6696 14.5589 11.1595 14.6934 10.7618 14.4617L5.07015 11.145C4.6725 10.9133 4.53799 10.4031 4.76971 10.0054Z" fill="currentColor"/>
<path fill-rule="evenodd" clip-rule="evenodd" d="M11.8928 4.17164C12.1248 4.56914 11.9906 5.07943 11.5931 5.3114L5.90974 8.62808C5.51224 8.86008 5.00195 8.72583 4.76998 8.32833C4.53801 7.93083 4.67219 7.42056 5.06969 7.18859L10.7531 3.87192C11.1506 3.63995 11.6608 3.77414 11.8928 4.17164Z" fill="currentColor"/>
</svg>
