<svg viewBox="0 0 34 22" fill="none" xmlns="http://www.w3.org/2000/svg">
<path d="M12 0.000366211C15.1467 0.000366211 18.0444 0.577702 20.1924 1.55408C22.0759 2.41026 23.7002 3.73727 23.9619 5.50037H24V6.00037C24 6.97921 24.5476 7.95529 25.6133 8.72498C26.6776 9.49367 28.198 10.0003 29.9229 10.0004H32C33.1046 10.0004 34 10.8958 34 12.0004V20.0004C34 21.1049 33.1046 22.0004 32 22.0004H29.9229V21.9984C27.8351 21.9838 25.906 21.3766 24.4688 20.35C23.814 19.8823 23.2494 19.315 22.8252 18.6703C22.1343 19.3934 21.201 19.9882 20.1924 20.4467C18.0444 21.423 15.1467 22.0004 12 22.0004C8.85329 22.0004 5.95564 21.423 3.80762 20.4467C1.74994 19.5113 0 18.0143 0 16.0004V5.50037H0.0380859C0.299768 3.73727 1.92409 2.41026 3.80762 1.55408C5.95564 0.577702 8.85329 0.000366211 12 0.000366211ZM22 9.39587C21.6888 9.62826 21.3525 9.84216 21 10.0385V14.0004C21 14.5527 20.5523 15.0004 20 15.0004C19.4477 15.0004 19 14.5527 19 14.0004V10.9193C18.3753 11.1362 17.7059 11.3247 17 11.4799V16.0004C17 16.5527 16.5523 17.0004 16 17.0004C15.4477 17.0004 15 16.5527 15 16.0004V11.8177C14.3517 11.8974 13.6834 11.952 13 11.9789V14.0004C13 14.5527 12.5523 15.0004 12 15.0004C11.4477 15.0004 11 14.5527 11 14.0004V11.9789C10.3166 11.952 9.6483 11.8974 9 11.8177V16.0004C9 16.5527 8.55229 17.0004 8 17.0004C7.44772 17.0004 7 16.5527 7 16.0004V11.4799C6.29407 11.3247 5.62469 11.1362 5 10.9193V14.0004C5 14.5527 4.55228 15.0004 4 15.0004C3.44772 15.0004 3 14.5527 3 14.0004V10.0385C2.64748 9.84216 2.31119 9.62826 2 9.39587V16.0004C2 16.7478 2.71228 17.7511 4.63574 18.6254C6.46893 19.4586 9.07159 20.0004 12 20.0004C14.9284 20.0004 17.5311 19.4586 19.3643 18.6254C21.2877 17.7511 22 16.7478 22 16.0004V9.39587ZM31 20.0004H32V12.0004H31V20.0004ZM24 16.0004C24 16.9743 24.5513 17.9503 25.6318 18.722C26.4995 19.3417 27.6666 19.7905 29 19.9427V11.9584C28.6604 11.9288 28.3265 11.8846 28 11.8236V16.0004L27.9951 16.1029C27.9438 16.607 27.5177 17.0004 27 17.0004C26.4823 17.0004 26.0562 16.607 26.0049 16.1029L26 16.0004V11.2201C25.4359 10.9782 24.9122 10.6863 24.4424 10.347C24.2894 10.2366 24.1424 10.1195 24 9.99841V16.0004ZM12 2.00037C9.07159 2.00037 6.46893 2.54211 4.63574 3.37537C2.71228 4.24967 2 5.25293 2 6.00037C2 6.7478 2.71228 7.75107 4.63574 8.62537C6.46893 9.45863 9.07159 10.0004 12 10.0004C14.9284 10.0004 17.5311 9.45863 19.3643 8.62537C21.2877 7.75107 22 6.7478 22 6.00037C22 5.25293 21.2877 4.24967 19.3643 3.37537C17.5311 2.54211 14.9284 2.00037 12 2.00037ZM12 3.00037C13.2261 3.00037 14.3854 3.24684 15.2754 3.69177C16.1056 4.10685 17 4.86525 17 6.00037C17 7.13548 16.1056 7.89388 15.2754 8.30896C14.3854 8.75389 13.2261 9.00037 12 9.00037C10.7739 9.00037 9.61456 8.75389 8.72461 8.30896C7.89445 7.89388 7 7.13548 7 6.00037C7 4.86525 7.89445 4.10685 8.72461 3.69177C9.61456 3.24684 10.7739 3.00037 12 3.00037ZM12 5.00037C11.0171 5.00037 10.1769 5.20201 9.61914 5.48083C9.34077 5.62002 9.16939 5.75977 9.07812 5.86755C9.03457 5.91904 9.01495 5.95618 9.00684 5.97595C9.00305 5.9852 9.00164 5.99139 9.00098 5.99451C9.0004 5.99734 9 5.99931 9 6.00037C9 6.00143 9.0004 6.00339 9.00098 6.00623C9.00164 6.00934 9.00305 6.01553 9.00684 6.02478C9.01495 6.04456 9.03457 6.08169 9.07812 6.13318C9.16939 6.24097 9.34077 6.38071 9.61914 6.5199C10.1769 6.79872 11.0171 7.00037 12 7.00037C12.9829 7.00037 13.8231 6.79872 14.3809 6.5199C14.6592 6.38071 14.8306 6.24097 14.9219 6.13318C14.9654 6.08169 14.9851 6.04456 14.9932 6.02478C14.9969 6.01553 14.9984 6.00934 14.999 6.00623C14.9996 6.00339 15 6.00143 15 6.00037C15 5.99931 14.9996 5.99734 14.999 5.99451C14.9984 5.99139 14.9969 5.9852 14.9932 5.97595C14.9851 5.95618 14.9654 5.91904 14.9219 5.86755C14.8306 5.75977 14.6592 5.62002 14.3809 5.48083C13.8231 5.20201 12.9829 5.00037 12 5.00037Z" fill="currentColor"/>
</svg>
