<svg width="17" height="16" viewBox="0 0 17 16" fill="none" xmlns="http://www.w3.org/2000/svg">
<path d="M15.6261 5.71913L10.7073 4.96664L8.50251 0.263405C8.33784 -0.0878018 7.76249 -0.0878018 7.59781 0.263405L5.39373 4.96664L0.474876 5.71913C0.384058 5.73311 0.298839 5.77187 0.228578 5.83117C0.158317 5.89047 0.10573 5.96802 0.0765908 6.05529C0.0474518 6.14256 0.0428877 6.23619 0.0633997 6.32589C0.0839116 6.41559 0.128706 6.49789 0.192866 6.56377L3.76633 10.2321L2.92164 15.4181C2.90655 15.5108 2.91783 15.6059 2.95418 15.6926C2.99053 15.7792 3.05049 15.8538 3.12719 15.908C3.2039 15.9621 3.29426 15.9935 3.38795 15.9986C3.48164 16.0037 3.57487 15.9823 3.657 15.9369L8.0505 13.5051L12.444 15.9375C12.5261 15.983 12.6194 16.0044 12.713 15.9993C12.8067 15.9941 12.8971 15.9627 12.9738 15.9086C13.0505 15.8545 13.1105 15.7799 13.1468 15.6932C13.1832 15.6066 13.1944 15.5115 13.1794 15.4187L12.3347 10.2327L15.9081 6.56444C15.9725 6.49858 16.0174 6.41623 16.0381 6.32643C16.0587 6.23663 16.0542 6.14288 16.025 6.05549C15.9959 5.9681 15.9432 5.89046 15.8728 5.83111C15.8024 5.77177 15.7171 5.73302 15.6261 5.71913Z" fill="#FF8A00"/>
</svg>
