<svg xmlns="http://www.w3.org/2000/svg" viewBox="0 0 400 339.0625">
<path d="M363.322 1.695 C 361.840 2.121,343.735 8.917,323.087 16.798 C -17.485 146.800,11.783 135.345,6.106 140.855 C -5.236 151.863,-0.584 168.407,15.795 175.308 C 18.495 176.446,36.658 181.928,56.159 187.490 C 75.660 193.053,91.683 197.704,91.767 197.826 C 91.851 197.947,100.625 223.008,111.265 253.516 C 121.904 284.023,131.545 310.714,132.688 312.827 C 142.308 330.620,163.504 335.517,179.921 323.739 C 182.156 322.136,193.765 311.832,205.720 300.842 C 217.674 289.851,227.694 280.778,227.985 280.679 C 228.277 280.579,243.105 292.272,260.938 306.662 C 300.254 338.390,300.721 338.672,314.026 338.672 C 327.200 338.672,335.061 333.618,340.729 321.507 C 345.109 312.148,400.155 38.114,399.819 27.344 C 399.201 7.548,382.883 -3.919,363.322 1.695 M375.781 29.193 C 375.781 33.239,320.848 305.211,319.065 309.993 C 315.504 319.544,317.204 320.615,250.000 266.486 C 218.848 241.395,193.308 220.829,193.246 220.785 C 193.184 220.740,220.813 191.291,254.646 155.343 C 288.478 119.395,316.611 88.891,317.164 87.557 C 319.549 81.799,316.097 73.707,310.463 71.847 C 304.756 69.964,303.174 70.644,250.000 97.850 C 121.447 163.620,100.598 174.220,99.742 174.244 C 98.331 174.282,31.260 155.130,31.256 154.688 C 31.253 154.473,71.945 138.763,121.681 119.776 C 171.416 100.790,247.266 71.823,290.234 55.405 C 383.154 19.901,375.781 22.160,375.781 29.193 M245.958 128.711 C 244.863 129.893,226.301 149.651,204.708 172.618 C 183.116 195.585,164.956 215.448,164.353 216.759 C 163.749 218.069,159.917 232.852,155.837 249.609 C 151.758 266.367,148.160 280.694,147.843 281.446 C 147.453 282.370,142.210 268.325,131.678 238.139 C 123.104 213.568,116.425 193.350,116.834 193.210 C 117.243 193.069,146.758 178.031,182.422 159.791 C 218.086 141.552,247.419 126.613,247.607 126.595 C 247.795 126.577,247.053 127.529,245.958 128.711 M195.549 253.947 C 202.509 259.555,208.260 264.389,208.330 264.689 C 208.400 264.989,199.307 273.638,188.122 283.909 C 176.938 294.180,167.970 301.914,168.193 301.096 C 168.416 300.278,171.704 287.041,175.499 271.680 C 179.294 256.318,182.511 243.750,182.648 243.750 C 182.784 243.750,188.590 248.339,195.549 253.947 " stroke="none" fill="currentColor" fill-rule="evenodd"></path>
</svg>