<svg viewBox="0 0 16 16" fill="none" xmlns="http://www.w3.org/2000/svg">
<path d="M14 4.48666C13.9867 4.48666 13.9667 4.48666 13.9467 4.48666C10.42 4.13333 6.9 3.99999 3.41333 4.35333L2.05333 4.48666C1.77333 4.51333 1.52667 4.31333 1.5 4.03333C1.47333 3.75333 1.67333 3.51333 1.94667 3.48666L3.30667 3.35333C6.85333 2.99333 10.4467 3.13333 14.0467 3.48666C14.32 3.51333 14.52 3.75999 14.4933 4.03333C14.4733 4.29333 14.2533 4.48666 14 4.48666Z" fill="currentColor"/>
<path d="M5.66667 3.81334C5.64 3.81334 5.61333 3.81334 5.58 3.80668C5.31333 3.76001 5.12667 3.50001 5.17333 3.23334L5.32 2.36001C5.42667 1.72001 5.57333 0.833344 7.12667 0.833344H8.87333C10.4333 0.833344 10.58 1.75334 10.68 2.36668L10.8267 3.23334C10.8733 3.50668 10.6867 3.76668 10.42 3.80668C10.1467 3.85334 9.88667 3.66668 9.84667 3.40001L9.7 2.53334C9.60667 1.95334 9.58667 1.84001 8.88 1.84001H7.13333C6.42667 1.84001 6.41333 1.93334 6.31333 2.52668L6.16 3.39334C6.12 3.64001 5.90667 3.81334 5.66667 3.81334Z" fill="currentColor"/>
<path d="M10.14 15.1667H5.86C3.53333 15.1667 3.44 13.88 3.36667 12.84L2.93333 6.12666C2.91333 5.85332 3.12667 5.61332 3.4 5.59332C3.68 5.57999 3.91333 5.78666 3.93333 6.05999L4.36667 12.7733C4.44 13.7867 4.46667 14.1667 5.86 14.1667H10.14C11.54 14.1667 11.5667 13.7867 11.6333 12.7733L12.0667 6.05999C12.0867 5.78666 12.3267 5.57999 12.6 5.59332C12.8733 5.61332 13.0867 5.84666 13.0667 6.12666L12.6333 12.84C12.56 13.88 12.4667 15.1667 10.14 15.1667Z" fill="currentColor"/>
<path d="M9.10667 11.5H6.88667C6.61333 11.5 6.38667 11.2733 6.38667 11C6.38667 10.7267 6.61333 10.5 6.88667 10.5H9.10667C9.38 10.5 9.60667 10.7267 9.60667 11C9.60667 11.2733 9.38 11.5 9.10667 11.5Z" fill="currentColor"/>
<path d="M9.66667 8.83334H6.33333C6.06 8.83334 5.83333 8.60668 5.83333 8.33334C5.83333 8.06001 6.06 7.83334 6.33333 7.83334H9.66667C9.94 7.83334 10.1667 8.06001 10.1667 8.33334C10.1667 8.60668 9.94 8.83334 9.66667 8.83334Z" fill="currentColor"/>
</svg>
