<svg xmlns="http://www.w3.org/2000/svg" viewBox="0 0 400 400">
<path d="M17.578 47.945 C 10.545 50.198,5.351 54.725,2.222 61.328 L 0.001 66.016 0.001 89.914 C -0.003 227.409,74.983 333.945,183.991 351.320 C 198.913 353.698,238.949 353.367,244.120 350.822 C 257.232 344.370,258.121 341.440,258.594 303.125 L 258.984 271.484 264.701 277.263 C 278.043 290.751,287.223 305.636,297.724 330.807 C 302.647 342.609,306.751 347.841,313.461 350.874 L 317.578 352.734 349.609 352.734 L 381.641 352.734 386.064 350.562 C 396.770 345.303,402.756 331.675,399.220 320.610 C 388.502 287.073,362.414 239.435,342.673 217.353 C 337.284 211.325,336.913 212.847,345.829 204.409 C 375.058 176.748,387.152 144.775,388.059 92.768 C 388.634 59.737,385.484 52.082,369.531 47.746 C 362.293 45.779,310.583 46.896,305.648 49.126 C 293.570 54.585,291.358 60.452,290.596 89.063 C 289.948 113.384,289.407 116.857,284.962 125.228 C 280.891 132.896,269.660 141.532,260.370 144.137 L 258.631 144.625 258.417 99.461 L 258.203 54.297 256.461 51.854 C 252.809 46.735,254.338 46.875,202.195 46.875 C 145.617 46.875,145.410 46.906,135.819 56.798 C 118.097 75.078,126.828 103.578,152.322 110.666 C 155.635 111.587,157.724 112.707,159.034 114.264 L 160.937 116.526 160.937 177.887 L 160.937 239.248 158.008 237.043 C 119.118 207.774,98.615 158.053,97.145 89.453 C 96.517 60.152,94.782 55.254,82.980 49.458 L 78.516 47.266 49.609 47.104 C 27.873 46.983,19.928 47.192,17.578 47.945 M72.762 92.259 C 74.579 168.286,99.955 225.846,146.162 258.752 C 166.704 273.381,178.549 275.779,183.967 266.406 C 185.801 263.233,186.908 128.300,185.206 115.411 C 183.347 101.335,175.374 92.153,161.279 87.853 C 152.420 85.151,149.631 81.608,151.966 76.021 C 154.016 71.114,154.196 71.094,196.459 71.094 L 234.375 71.094 234.375 117.276 L 234.375 163.459 236.127 166.576 C 240.447 174.263,252.864 173.977,272.669 165.732 C 303.895 152.733,314.117 134.512,315.361 89.637 L 315.876 71.072 339.774 71.278 L 363.672 71.484 363.917 85.547 C 364.827 137.790,350.739 171.060,316.859 196.682 C 302.668 207.414,302.700 211.214,317.105 226.195 C 335.762 245.598,348.818 265.310,360.469 291.665 C 367.176 306.836,375.781 327.353,375.781 328.174 C 375.781 328.646,366.014 328.850,349.549 328.721 L 323.317 328.516 319.449 319.141 C 304.021 281.745,283.518 255.763,256.733 239.664 C 247.654 234.208,241.024 234.585,236.585 240.809 L 234.766 243.359 234.375 285.938 L 233.984 328.516 214.453 328.429 C 164.151 328.204,123.788 310.401,89.683 273.395 C 45.909 225.897,24.219 165.193,24.219 90.181 L 24.219 71.071 48.242 71.278 L 72.266 71.484 72.762 92.259 " stroke="none" fill="currentColor" fill-rule="evenodd"></path>
</svg>