<svg viewBox="0 0 31 19" fill="none" xmlns="http://www.w3.org/2000/svg">
  <path d="M30.9212 17.5134C30.6145 16.5292 29.5186 15.1023 28.0625 13.4115C27.2712 12.448 26.0863 11.4087 25.7262 10.8902C25.2238 10.2227 25.3661 9.92671 25.7262 9.33253C25.7262 9.33253 29.8587 3.32649 30.2899 1.28701C30.5056 0.546002 30.2899 0 29.2629 0H25.8707C25.0082 0 24.6103 0.470297 24.3969 0.98877C24.3969 0.98877 22.6719 5.32697 20.2288 8.14417C19.4397 8.96088 19.0796 9.22012 18.6483 9.22012C18.4327 9.22012 18.1215 8.96088 18.1215 8.21987V1.28701C18.1215 0.396883 17.8703 0 17.1523 0H11.8239C11.2859 0 10.9614 0.412942 10.9614 0.805239C10.9614 1.64948 12.184 1.84448 12.3085 4.21661V9.37153C12.3085 10.5002 12.1106 10.7067 11.6794 10.7067C10.5301 10.7067 7.73142 6.35016 6.0731 1.36271C5.74855 0.39459 5.42178 0.00229287 4.55483 0.00229287H1.1626C0.193397 0.00229287 0 0.472591 0 0.991065C0 1.91789 1.14926 6.51534 5.35286 12.5971C8.156 16.7495 12.104 19 15.6963 19C17.8525 19 18.1193 18.4999 18.1193 17.6373V14.4989C18.1193 13.4987 18.3238 13.2991 19.0062 13.2991C19.5086 13.2991 20.3711 13.5583 22.3829 15.5611C24.6814 17.9355 25.0615 18.9977 26.3553 18.9977H29.7475C30.7167 18.9977 31.2013 18.4976 30.9212 17.5111V17.5134Z" fill="currentColor"/>
</svg>
