<svg viewBox="0 0 30 21" fill="none" xmlns="http://www.w3.org/2000/svg">
<path d="M29.3736 3.27943C29.0276 1.98852 28.0123 0.971177 26.7215 0.627504C24.381 0 15 0 15 0C15 0 5.61898 0 3.28017 0.627504C1.98944 0.972887 0.97235 1.98852 0.628155 3.27943C0 5.61847 0 10.5 0 10.5C0 10.5 0 15.3815 0.626434 17.7206C0.97235 19.0115 1.98772 20.0271 3.27845 20.3725C5.61898 21 14.9983 21 14.9983 21C14.9983 21 24.3793 21 26.7198 20.3725C28.0106 20.0271 29.0276 19.0115 29.3718 17.7206C29.9983 15.3815 29.9983 10.5 29.9983 10.5C29.9983 10.5 29.9983 5.61847 29.3718 3.27943H29.3736ZM11.9315 14.9319V6.06815L19.7723 10.5L11.9315 14.9319Z" fill="currentColor"/>
</svg>
