<svg width="78" height="46" viewBox="0 0 78 46" fill="none" xmlns="http://www.w3.org/2000/svg">
<path d="M19.1122 29.1665C23.5169 29.1666 27.0883 32.7375 27.0887 37.1421C27.0887 41.5471 23.5171 45.1185 19.1122 45.1187C14.7073 45.1184 11.1366 41.547 11.1366 37.1421C11.137 32.7376 14.7076 29.1668 19.1122 29.1665ZM63.1923 29.1665C67.597 29.1666 71.1684 32.7375 71.1688 37.1421C71.1688 41.5471 67.5972 45.1186 63.1923 45.1187C58.7874 45.1184 55.2167 41.547 55.2167 37.1421C55.2171 32.7376 58.7877 29.1667 63.1923 29.1665ZM19.1122 30.6665C15.536 30.6668 12.637 33.566 12.6366 37.1421C12.6366 40.7186 15.5358 43.6184 19.1122 43.6187C22.6887 43.6185 25.5887 40.7186 25.5887 37.1421C25.5883 33.5659 22.6884 30.6666 19.1122 30.6665ZM63.1923 30.6665C59.6161 30.6667 56.7171 33.566 56.7167 37.1421C56.7167 40.7186 59.6158 43.6184 63.1923 43.6187C66.7688 43.6186 69.6688 40.7187 69.6688 37.1421C69.6684 33.5659 66.7685 30.6666 63.1923 30.6665ZM19.1122 33.0103C21.3945 33.0103 23.245 34.8607 23.245 37.1431C23.2449 39.4253 21.3945 41.2758 19.1122 41.2759C16.83 41.2757 14.9795 39.4253 14.9794 37.1431C14.9794 34.8608 16.8299 33.0104 19.1122 33.0103ZM63.1923 33.0103C65.4746 33.0103 67.3251 34.8607 67.3251 37.1431C67.325 39.4253 65.4745 41.2758 63.1923 41.2759C60.9101 41.2757 59.0596 39.4252 59.0594 37.1431C59.0594 34.8608 60.91 33.0105 63.1923 33.0103ZM19.1122 34.5103C17.6584 34.5104 16.4794 35.6892 16.4794 37.1431C16.4795 38.5968 17.6584 39.7757 19.1122 39.7759C20.566 39.7758 21.7449 38.5969 21.745 37.1431C21.745 35.6891 20.5661 34.5103 19.1122 34.5103ZM63.1923 34.5103C61.7385 34.5105 60.5594 35.6892 60.5594 37.1431C60.5596 38.5968 61.7385 39.7757 63.1923 39.7759C64.6461 39.7758 65.825 38.5969 65.8251 37.1431C65.8251 35.6891 64.6462 34.5103 63.1923 34.5103ZM52.8837 36.397C53.262 36.4353 53.5575 36.7547 53.5575 37.1431C53.5574 37.5314 53.2619 37.8509 52.8837 37.8892L52.8075 37.8931H29.4969C29.083 37.8928 28.7471 37.557 28.7469 37.1431C28.7469 36.729 29.0829 36.3933 29.4969 36.3931H52.8075L52.8837 36.397ZM47.701 0.881348C48.6284 0.881553 49.3856 1.6385 49.3856 2.56592V2.5708L49.3417 9.12061H58.4745C58.5191 9.11232 58.5651 9.10791 58.6122 9.10791C58.6592 9.10791 58.7052 9.11231 58.7499 9.12061H62.785C63.908 9.12074 64.9699 9.5896 65.7333 10.3892L65.8817 10.5542L65.8856 10.5591L74.5331 20.8257C75.2774 21.7096 75.697 22.8409 75.6971 24.0063V31.0093H75.7626C76.8741 31.0095 77.7761 31.9114 77.7762 33.0229V35.8794C77.7761 36.9909 76.8741 37.8928 75.7626 37.8931H73.578C73.1639 37.8931 72.8282 37.5571 72.828 37.1431C72.8281 36.729 73.1639 36.3931 73.578 36.3931H75.7626C76.0457 36.3928 76.2761 36.1625 76.2762 35.8794V33.0229C76.2761 32.7398 76.0457 32.5095 75.7626 32.5093H71.9979C71.5838 32.5092 71.2479 32.1734 71.2479 31.7593C71.2481 31.3452 71.5839 31.0094 71.9979 31.0093H74.1971V24.0063C74.1971 23.7392 74.162 23.4748 74.1005 23.2173H60.705C59.1326 23.2173 57.8623 21.9469 57.8622 20.3745V10.6206H49.3309L49.1932 31.0093H54.1766L54.2528 31.0132C54.6311 31.0514 54.9265 31.371 54.9266 31.7593C54.9266 32.1477 54.6311 32.4671 54.2528 32.5054L54.1766 32.5093H28.2206C27.8064 32.5092 27.4706 32.1735 27.4706 31.7593C27.4707 31.3452 27.8065 31.0093 28.2206 31.0093H47.6932L47.8856 2.56592L47.871 2.49561C47.8425 2.42963 47.7754 2.38151 47.701 2.38135H4.0946C3.99549 2.38135 3.91003 2.46681 3.91003 2.56592V31.0093H10.1884C10.6025 31.0093 10.9382 31.3452 10.9384 31.7593C10.9384 32.1735 10.6026 32.5093 10.1884 32.5093H2.33093C2.32238 32.5093 2.31302 32.5126 2.30359 32.522C2.29421 32.5314 2.29096 32.5408 2.29089 32.5493V36.3394C2.29089 36.3479 2.29424 36.3573 2.30359 36.3667C2.31306 36.3762 2.32234 36.3794 2.33093 36.3794H8.72742C9.14152 36.3794 9.47724 36.7153 9.47742 37.1294C9.47742 37.5436 9.14163 37.8794 8.72742 37.8794H2.33093C1.48237 37.8794 0.790894 37.1879 0.790894 36.3394V32.5493C0.791039 31.7009 1.48246 31.0093 2.33093 31.0093H2.41003V2.56592C2.41003 1.63838 3.16707 0.881348 4.0946 0.881348H47.701ZM59.3622 20.3745C59.3623 21.1184 59.961 21.7173 60.705 21.7173H73.3231L64.7382 11.5249V11.5239C64.2457 10.9528 63.5322 10.6207 62.785 10.6206H59.3622V20.3745Z" fill="#583F99"/>
</svg>
