<svg width="58" height="58" viewBox="0 0 58 58" fill="none" xmlns="http://www.w3.org/2000/svg">
<path d="M28.955 0.331055C29.7566 0.33111 30.4517 0.688317 31.0331 1.12793C31.6131 1.56658 32.1521 2.14389 32.6425 2.6875C33.151 3.25128 33.6052 3.77726 34.0692 4.20996C34.4778 4.59087 34.8311 4.83698 35.1464 4.95508L35.2792 4.99805L35.2841 4.99902C35.653 5.10047 36.137 5.0775 36.7587 4.94141C37.3781 4.80579 38.0331 4.58287 38.7479 4.35449C39.4372 4.13428 40.1838 3.90858 40.8934 3.82031C41.6046 3.73187 42.3752 3.76813 43.0575 4.16992L43.0594 4.1709C43.7408 4.57467 44.156 5.23323 44.4364 5.90234C44.7167 6.57156 44.8983 7.34163 45.0555 8.06055C45.2183 8.80494 45.3553 9.49485 45.5477 10.1094C45.7411 10.727 45.9616 11.1657 46.2294 11.4385C46.496 11.7099 46.9245 11.9329 47.5282 12.1289C48.1299 12.3242 48.8049 12.4639 49.537 12.6299C50.2432 12.79 51.0018 12.975 51.662 13.2617C52.3243 13.5494 52.9714 13.9736 53.3661 14.6641H53.3651C53.7571 15.3485 53.7932 16.1222 53.7069 16.8389C53.6207 17.5552 53.3997 18.3111 53.1835 19.0127C52.9596 19.7392 52.7399 20.4103 52.6063 21.0449C52.4891 21.6018 52.4553 22.0576 52.5175 22.4238L52.5507 22.5752L52.5516 22.5791C52.6454 22.9411 52.9025 23.3462 53.329 23.8203C53.7541 24.2929 54.2713 24.7546 54.8251 25.2725C55.3592 25.772 55.9251 26.3212 56.3553 26.9111C56.7843 27.4993 57.1291 28.1951 57.1337 28.9922L57.1298 29.1416C57.0901 29.883 56.7602 30.5338 56.3553 31.0889C55.9251 31.6787 55.3592 32.2281 54.8251 32.7275C54.2713 33.2454 53.7541 33.708 53.329 34.1807C52.9025 34.6549 52.6452 35.0598 52.5516 35.4219L52.5497 35.4268C52.4479 35.8113 52.4723 36.3116 52.6063 36.9463C52.74 37.5791 52.9595 38.2488 53.1835 38.9756C53.3997 39.6774 53.6207 40.4341 53.7069 41.1523C53.7931 41.8711 53.7573 42.6469 53.3671 43.334L53.3661 43.3359C52.9713 44.0264 52.3243 44.4516 51.662 44.7393C51.0018 45.026 50.2432 45.211 49.537 45.3711C48.8048 45.5371 48.1299 45.6768 47.5282 45.8721C46.9245 46.0681 46.496 46.29 46.2294 46.5615C45.9615 46.8343 45.7412 47.2738 45.5477 47.8916C45.3554 48.5061 45.2183 49.1961 45.0555 49.9404C44.8983 50.6593 44.7167 51.4286 44.4364 52.0977C44.1561 52.7667 43.7406 53.4243 43.0594 53.8281C42.3799 54.2316 41.6112 54.2681 40.9022 54.1797C40.1946 54.0914 39.4486 53.8656 38.7596 53.6455C38.0454 53.4173 37.3894 53.1952 36.7684 53.0596C36.1452 52.9235 35.6572 52.8999 35.2831 53.002L35.2792 53.0029C34.9308 53.0964 34.5361 53.3557 34.0692 53.791C33.6052 54.2238 33.151 54.7497 32.6425 55.3135C32.1522 55.857 31.6131 56.4335 31.0331 56.8721C30.4517 57.3117 29.7566 57.6689 28.955 57.6689C28.1533 57.6689 27.4582 57.3117 26.8768 56.8721C26.2969 56.4335 25.7577 55.857 25.2675 55.3135C24.7589 54.7496 24.3038 54.2238 23.8397 53.791C23.3728 53.3556 22.9782 53.0963 22.6298 53.0029L22.6259 53.001C22.2569 52.8995 21.7729 52.9235 21.1512 53.0596C20.5318 53.1952 19.876 53.4171 19.161 53.6455C18.4719 53.8656 17.7259 54.0914 17.0165 54.1797C16.3053 54.2681 15.5338 54.232 14.8514 53.8301L14.8505 53.8291C14.169 53.4253 13.7529 52.7669 13.4725 52.0977C13.1922 51.4286 13.0116 50.6592 12.8544 49.9404C12.6916 49.1961 12.5536 48.5061 12.3612 47.8916C12.1678 47.2738 11.9474 46.8343 11.6796 46.5615C11.4129 46.2902 10.9852 46.068 10.3817 45.8721C9.77992 45.6767 9.10428 45.5371 8.37195 45.3711C7.66597 45.211 6.9079 45.0259 6.24792 44.7393C5.58558 44.4516 4.93858 44.0265 4.54382 43.3359V43.3369C4.15171 42.6525 4.11677 41.8779 4.203 41.1611C4.28927 40.4448 4.51024 39.6889 4.72644 38.9873C4.95029 38.2609 5.16995 37.5906 5.30359 36.9561C5.43764 36.3194 5.46183 35.8146 5.35925 35.4248L5.35828 35.4219C5.26467 35.0597 5.00661 34.6551 4.57996 34.1807C4.15488 33.7081 3.63862 33.2454 3.08484 32.7275C2.55068 32.2281 1.98487 31.6788 1.55457 31.0889C1.12273 30.4968 0.776337 29.7959 0.776245 28.9922C0.776245 28.1883 1.12266 27.4867 1.55457 26.8945C1.98482 26.3048 2.55077 25.7562 3.08484 25.2568C3.63863 24.739 4.15486 24.2763 4.57996 23.8037C5.0066 23.3294 5.2646 22.9246 5.35828 22.5625L5.35925 22.5576C5.4612 22.1731 5.43761 21.6729 5.30359 21.0381C5.16995 20.4053 4.95042 19.7356 4.72644 19.0088C4.51011 18.3068 4.28922 17.5495 4.203 16.8311C4.11683 16.1124 4.15271 15.3374 4.54285 14.6504L4.54382 14.6484C4.93855 13.9578 5.58555 13.5328 6.24792 13.2451C6.90791 12.9585 7.66595 12.7734 8.37195 12.6133C9.10427 12.4472 9.77992 12.3076 10.3817 12.1123C10.9851 11.9164 11.4129 11.6941 11.6796 11.4229C11.9474 11.1501 12.1677 10.7106 12.3612 10.0928C12.5536 9.47822 12.6916 8.78837 12.8544 8.04395C13.0116 7.32519 13.1923 6.5558 13.4725 5.88672C13.7528 5.21766 14.1684 4.55916 14.8495 4.15527C15.5291 3.75164 16.2986 3.71622 17.0077 3.80469C17.7152 3.893 18.4604 4.1188 19.1493 4.33887C19.8639 4.56714 20.5203 4.7892 21.1415 4.9248C21.7648 5.06085 22.2527 5.08454 22.6268 4.98242L22.6356 4.98047C22.982 4.89026 23.3752 4.63393 23.8417 4.20117C24.3051 3.77112 24.7591 3.24711 25.2675 2.68457C25.7576 2.14216 26.2969 1.56622 26.8768 1.12793C27.4582 0.688623 28.1533 0.331055 28.955 0.331055ZM28.955 1.83105C28.6131 1.83105 28.2336 1.98324 27.7811 2.3252C27.3274 2.66813 26.8731 3.14555 26.3807 3.69043C25.9067 4.21503 25.3886 4.81233 24.8622 5.30078C24.3405 5.78484 23.7269 6.24271 23.0204 6.42871L23.0214 6.42969C23.0195 6.43019 23.0174 6.43015 23.0155 6.43066L23.0135 6.43164L23.0126 6.43066C22.2935 6.62458 21.526 6.54448 20.8212 6.39062C20.1115 6.23569 19.3642 5.98193 18.6932 5.76758C17.9967 5.54506 17.374 5.36189 16.8221 5.29297C16.3404 5.23286 15.9873 5.27058 15.7235 5.38965L15.6151 5.44531C15.3279 5.61552 15.0776 5.9377 14.8563 6.46582C14.635 6.99411 14.4776 7.6402 14.3192 8.36426C14.1664 9.06281 14.0108 9.84495 13.7928 10.541C13.5759 11.2339 13.2681 11.946 12.7499 12.4736C12.2304 13.0024 11.5282 13.3172 10.8446 13.5391C10.159 13.7616 9.38902 13.9208 8.70398 14.0762C7.99288 14.2374 7.36159 14.397 6.84558 14.6211C6.33187 14.8442 6.01565 15.0969 5.84656 15.3926C5.68197 15.6834 5.62438 16.0861 5.69226 16.6523C5.76043 17.2203 5.94167 17.8588 6.16003 18.5674C6.37075 19.2512 6.61866 20.0093 6.77039 20.7275C6.9216 21.4436 7.00121 22.2194 6.80945 22.9424L6.80847 22.9414C6.62349 23.6528 6.17427 24.274 5.69519 24.8066C5.21357 25.3421 4.62542 25.8699 4.10925 26.3525C3.57349 26.8535 3.10392 27.3167 2.76648 27.7793C2.43081 28.2396 2.27625 28.6319 2.27625 28.9922C2.27634 29.3524 2.43077 29.7448 2.76648 30.2051C3.10395 30.6677 3.57347 31.1308 4.10925 31.6318C4.62543 32.1145 5.21358 32.6423 5.69519 33.1777C6.17433 33.7105 6.62459 34.3314 6.80945 35.043C7.00051 35.7688 6.92259 36.5463 6.77136 37.2646C6.61963 37.9852 6.37088 38.7445 6.16003 39.4287C5.94157 40.1377 5.76037 40.7749 5.69226 41.3408C5.62423 41.9063 5.68198 42.3051 5.84558 42.5908L5.84656 42.5918C6.0157 42.8874 6.33199 43.1402 6.84558 43.3633C7.36159 43.5873 7.99292 43.747 8.70398 43.9082C9.38905 44.0635 10.159 44.2228 10.8446 44.4453C11.5282 44.6672 12.2304 44.9819 12.7499 45.5107C13.2681 46.0384 13.5759 46.7505 13.7928 47.4434C14.0107 48.1392 14.1665 48.9208 14.3192 49.6191C14.4776 50.3431 14.6351 50.9893 14.8563 51.5176C15.0777 52.0458 15.3279 52.3689 15.6151 52.5391C15.8934 52.7021 16.28 52.7599 16.8309 52.6914C17.3849 52.6225 18.0086 52.4393 18.705 52.2168C19.3757 52.0025 20.1223 51.7487 20.83 51.5938C21.5353 51.4393 22.3044 51.357 23.0233 51.5547H23.0223C23.7283 51.745 24.3411 52.2066 24.8632 52.6934C25.3891 53.1837 25.9068 53.7831 26.3807 54.3086C26.873 54.8544 27.3275 55.3327 27.7811 55.6758C28.2335 56.0178 28.6132 56.1689 28.955 56.1689C29.2966 56.1689 29.6757 56.0176 30.1278 55.6758C30.5815 55.3327 31.0359 54.8544 31.5282 54.3086C32.0022 53.783 32.5208 53.1838 33.0468 52.6934C33.5689 52.2065 34.1815 51.7449 34.8876 51.5547C35.6092 51.3577 36.3801 51.4393 37.0878 51.5938C37.7976 51.7487 38.5456 52.0024 39.2167 52.2168C39.9133 52.4393 40.5358 52.6225 41.0878 52.6914C41.6383 52.7601 42.0215 52.7013 42.2948 52.5391C42.582 52.3689 42.8313 52.0458 43.0526 51.5176C43.2739 50.9893 43.4314 50.3432 43.5897 49.6191C43.7425 48.9208 43.8983 48.1392 44.1161 47.4434C44.333 46.7506 44.641 46.0384 45.1591 45.5107C45.6784 44.9819 46.3808 44.6672 47.0643 44.4453C47.75 44.2228 48.5208 44.0635 49.2059 43.9082C49.917 43.747 50.5484 43.5874 51.0643 43.3633C51.578 43.1402 51.8942 42.8875 52.0634 42.5918C52.228 42.3009 52.2856 41.8975 52.2177 41.3311C52.1495 40.7633 51.9682 40.1254 51.7499 39.417C51.5391 38.7331 51.2903 37.9742 51.1385 37.2559C50.9877 36.5416 50.9086 35.7683 51.0985 35.0469L51.1805 34.7832C51.3968 34.1794 51.794 33.6445 52.2137 33.1777C52.6954 32.6423 53.2845 32.1145 53.8007 31.6318C54.3364 31.1309 54.806 30.6676 55.1434 30.2051C55.4766 29.7482 55.6304 29.358 55.6327 29C55.6303 28.642 55.4766 28.2518 55.1434 27.7949C54.806 27.3323 54.3365 26.8692 53.8007 26.3682C53.2845 25.8855 52.6954 25.3587 52.2137 24.8232C51.7338 24.2896 51.2829 23.6671 51.0985 22.9541V22.9531C50.9088 22.2284 50.9876 21.4525 51.1385 20.7354C51.2903 20.0148 51.539 19.2556 51.7499 18.5713C51.9683 17.8624 52.1495 17.2251 52.2177 16.6592C52.2771 16.1647 52.2396 15.7978 52.12 15.5225L52.0634 15.4092C51.8943 15.1134 51.578 14.8609 51.0643 14.6377C50.5484 14.4136 49.917 14.254 49.2059 14.0928C48.5208 13.9374 47.75 13.7782 47.0643 13.5557C46.3808 13.3338 45.6785 13.0181 45.1591 12.4893C44.6411 11.9617 44.333 11.2503 44.1161 10.5576C43.8981 9.8615 43.7425 9.07948 43.5897 8.38086C43.4313 7.65669 43.2739 7.01078 43.0526 6.48242C42.8313 5.95432 42.5819 5.63216 42.2948 5.46191V5.46094C42.0165 5.29781 41.6299 5.24013 41.079 5.30859C40.5251 5.37748 39.9012 5.5608 39.205 5.7832C38.5343 5.99744 37.7875 6.25131 37.08 6.40625C36.3747 6.56066 35.6054 6.64292 34.8866 6.44531V6.44434C34.181 6.25393 33.5686 5.79321 33.0468 5.30664C32.5208 4.81623 32.0022 4.21696 31.5282 3.69141C31.036 3.14573 30.5814 2.66821 30.1278 2.3252C29.6755 1.98317 29.2967 1.83111 28.955 1.83105ZM36.1171 30.4092C39.3245 30.4092 41.9021 33.0527 41.9022 36.2852C41.9021 39.5176 39.3244 42.1611 36.1171 42.1611C32.9099 42.1609 30.333 39.5174 30.3329 36.2852C30.333 33.0529 32.9099 30.4094 36.1171 30.4092ZM36.1171 31.9092C33.7637 31.9094 31.833 33.8557 31.8329 36.2852C31.833 38.7146 33.7637 40.6609 36.1171 40.6611C38.4707 40.6611 40.4021 38.7147 40.4022 36.2852C40.4021 33.8556 38.4707 31.9092 36.1171 31.9092ZM38.6718 18.3408C38.9642 18.0975 39.3994 18.1106 39.6766 18.3828C39.9718 18.6731 39.9755 19.148 39.6854 19.4434L19.452 40.0449C19.1618 40.3401 18.6869 40.3446 18.3915 40.0547C18.0961 39.7645 18.0917 39.2897 18.3817 38.9941L38.6161 18.3926L38.6718 18.3408ZM21.8075 15.8389C25.0149 15.8389 27.5925 18.4824 27.5927 21.7148C27.5927 24.9474 25.015 27.5908 21.8075 27.5908C18.6003 27.5906 16.0233 24.9472 16.0233 21.7148C16.0234 18.4826 18.6003 15.8391 21.8075 15.8389ZM21.8075 17.3389C19.4541 17.3391 17.5234 19.2854 17.5233 21.7148C17.5233 24.1444 19.454 26.0906 21.8075 26.0908C24.1612 26.0908 26.0927 24.1445 26.0927 21.7148C26.0925 19.2852 24.1611 17.3389 21.8075 17.3389Z" fill="#583F99"/>
</svg>
