<svg width="62" height="60" viewBox="0 0 62 60" fill="none" xmlns="http://www.w3.org/2000/svg">
<g clip-path="url(#clip0_2717_13265)">
<path d="M31.5311 0.166504L61.2118 10.937L61.7059 11.1157V48.8843L61.2108 49.064L31.5311 59.8169L31.2753 59.9097L31.0204 59.8169L1.33972 49.064L0.845581 48.8843V11.1157L1.33972 10.937L31.0194 0.166504L31.2753 0.0737305L31.5311 0.166504ZM2.34558 47.8325L30.5262 58.0425V22.9214L2.34558 12.7114V47.8325ZM32.0262 22.9214V58.0415L60.2059 47.8325V12.7104L32.0262 22.9214ZM9.96863 27.7358C11.53 26.5082 13.6536 26.0357 15.9384 26.5298C20.466 27.5091 24.0897 32.0247 24.0897 36.6353C24.0896 38.9766 23.1587 40.936 21.5907 42.1665C20.0234 43.3963 17.8928 43.8405 15.6073 43.3013C11.0981 42.2372 7.47085 37.7335 7.47058 33.1987C7.47058 30.9005 8.40559 28.9649 9.96863 27.7358ZM15.621 27.9956C13.7246 27.5856 12.0682 27.9924 10.8954 28.9146C9.72429 29.8354 8.97058 31.3207 8.97058 33.1987C8.97086 37.0165 12.0989 40.9321 15.952 41.8413C17.8476 42.2885 19.498 41.9015 20.6649 40.9858C21.8309 40.0707 22.5896 38.5685 22.5897 36.6353C22.5897 32.7285 19.456 28.8251 15.621 27.9956ZM17.5751 16.6333L31.2753 21.5981L58.7567 11.6401L45.0575 6.66943L17.5751 16.6333ZM3.79382 11.6401L15.5653 15.9048C15.6503 15.7867 15.7708 15.6925 15.9178 15.6392L42.8583 5.87158L31.2753 1.66943L3.79382 11.6401Z" fill="#583F99"/>
</g>
<defs>
<clipPath id="clip0_2717_13265">
<rect width="61" height="60" fill="white" transform="translate(0.776245)"/>
</clipPath>
</defs>
</svg>
