<svg width="57" height="54" viewBox="0 0 57 54" fill="none" xmlns="http://www.w3.org/2000/svg">
<path d="M2.55861 35.9805C2.72827 35.069 3.68001 34.524 4.55959 34.8623L13.5928 38.334C13.9793 38.4826 14.173 38.9171 14.0244 39.3037C13.8849 39.6657 13.4945 39.8576 13.1279 39.7578L13.0547 39.7344L5.14553 36.6943C8.95224 45.8368 17.9703 52.2725 28.4932 52.2725C39.4582 52.2724 48.7896 45.2842 52.293 35.5273C52.4332 35.1379 52.8623 34.9353 53.252 35.0752C53.6418 35.2152 53.8441 35.6453 53.7041 36.0352C49.9938 46.3675 40.1119 53.7724 28.4932 53.7725C17.3947 53.7725 7.88112 47.0159 3.8174 37.4053L2.26369 45.7285C2.18724 46.1352 1.79555 46.4031 1.38869 46.3271C0.981864 46.2511 0.713609 45.8599 0.789082 45.4531L2.55861 35.9805ZM27.0596 9.14355C32.3783 9.14355 36.6748 13.4401 36.6748 18.7588C36.6747 23.825 32.7613 27.9592 27.8096 28.3418V33.6318H35.9248L36.001 33.6357C36.3793 33.6739 36.6747 33.9935 36.6748 34.3818C36.6748 34.7703 36.3794 35.0897 36.001 35.1279L35.9248 35.1318H27.8096V44.0898C27.8095 44.5039 27.4737 44.8398 27.0596 44.8398C26.6455 44.8398 26.3097 44.5039 26.3096 44.0898V35.1318H20.9922C20.578 35.1318 20.2422 34.796 20.2422 34.3818C20.2423 33.9677 20.5781 33.6318 20.9922 33.6318H26.3096V28.374H20.9922C20.5781 28.374 20.2424 28.0381 20.2422 27.624C20.2422 27.2098 20.578 26.874 20.9922 26.874H26.3096V9.14355H27.0596ZM27.8096 26.8379C31.9336 26.4595 35.1747 22.9943 35.1748 18.7588C35.1748 14.5214 31.9467 11.0558 27.8096 10.6787V26.8379ZM28.4932 0.227539C39.5898 0.227645 49.1013 6.98255 53.166 16.5908L54.7217 8.27246C54.7978 7.8653 55.1895 7.59679 55.5967 7.67285C56.0038 7.74894 56.2723 8.14073 56.1963 8.54785L54.4268 18.0195C54.2574 18.9312 53.3055 19.4768 52.4258 19.1387L43.3916 15.666C43.0054 15.5172 42.8125 15.0837 42.961 14.6973C43.1096 14.3106 43.544 14.118 43.9307 14.2666L51.8399 17.3057C48.0331 8.16346 39.0158 1.72765 28.4932 1.72754C17.528 1.72755 8.19674 8.71563 4.69338 18.4727L3.98732 18.2188L3.28127 17.9658C6.99138 7.63299 16.8741 0.227547 28.4932 0.227539ZM4.69338 18.4727C4.55338 18.8625 4.12325 19.0648 3.73342 18.9248C3.34395 18.7847 3.1415 18.3554 3.28127 17.9658L4.69338 18.4727Z" fill="#583F99"/>
</svg>
