<svg width="187" height="48" viewBox="0 0 187 48" fill="none" xmlns="http://www.w3.org/2000/svg">
<g clip-path="url(#clip0_389_5823)">
<path d="M40.4349 17.2442C40.1045 16.6475 37.7389 15.9057 37.7389 15.9057C37.7389 15.3789 37.4557 14.922 37.036 14.6801C37.0728 14.8037 37.0885 14.9327 37.0885 15.0618V15.0833C37.0832 15.3305 37.0728 15.7176 37.057 16.2067C37.0465 16.6099 37.0308 17.0829 37.0151 17.5989C37.0151 17.5989 37.0151 17.6043 37.0151 17.6097C37.0046 17.9161 36.9941 18.2332 36.9836 18.5611C36.9836 18.5719 36.9836 18.588 36.9836 18.5987C36.9836 18.6417 36.9836 18.6848 36.9836 18.7224C36.9836 18.7439 36.9836 18.7654 36.9836 18.7869C36.9836 18.8299 36.9836 18.8729 36.9836 18.9213C36.9836 18.9266 36.9836 18.932 36.9836 18.9428C36.9836 18.9965 36.9836 19.0449 36.9836 19.0987V19.1094C36.9836 19.2008 36.9783 19.2975 36.9731 19.3943C36.9731 19.4212 36.9731 19.4427 36.9731 19.4642C36.9731 19.5018 36.9731 19.5394 36.9731 19.5771C36.9731 19.6039 36.9731 19.6254 36.9731 19.6523C36.9731 19.6899 36.9731 19.7222 36.9731 19.7598C36.9731 19.7921 36.9731 19.8243 36.9731 19.8566C36.9731 19.8888 36.9731 19.9211 36.9731 19.9533C36.9731 19.9856 36.9731 20.0178 36.9731 20.0555C36.9731 20.0877 36.9731 20.12 36.9731 20.1576C36.9731 20.1898 36.9731 20.2167 36.9731 20.249C36.9731 20.3081 36.9731 20.3672 36.9679 20.4264C36.9679 20.464 36.9679 20.5016 36.9679 20.5339C36.9679 20.5661 36.9679 20.5984 36.9679 20.6253C36.9679 20.6629 36.9679 20.7005 36.9679 20.7328C36.9679 20.765 36.9679 20.7973 36.9679 20.8241C36.9679 20.8618 36.9679 20.894 36.9679 20.9316C36.9679 20.9639 36.9679 20.9962 36.9679 21.023C36.9679 21.0607 36.9679 21.1037 36.9679 21.1413C36.9679 21.1682 36.9679 21.195 36.9679 21.2219C36.9679 21.2757 36.9679 21.3241 36.9626 21.3778C36.9626 21.3939 36.9626 21.4047 36.9626 21.4208C36.9626 21.4853 36.9574 21.5498 36.9521 21.6143C36.9521 21.6358 36.9521 21.6573 36.9521 21.6734C36.9521 21.7165 36.9521 21.7648 36.9469 21.8078C36.9469 21.8347 36.9469 21.8616 36.9469 21.8885C36.9469 21.9261 36.9469 21.9691 36.9469 22.0067C36.9469 22.0336 36.9469 22.0605 36.9469 22.082C36.9469 22.125 36.9469 22.168 36.9416 22.2056C36.9416 22.2271 36.9416 22.2486 36.9416 22.2701C36.9416 22.3185 36.9416 22.3615 36.9364 22.4099C36.9364 22.4314 36.9364 22.4529 36.9364 22.469C36.9364 22.5335 36.9311 22.598 36.9259 22.6625C36.9259 22.6733 36.9259 22.6786 36.9259 22.6894C36.9259 22.7378 36.9259 22.7915 36.9206 22.8453C36.9206 22.8722 36.9206 22.8937 36.9206 22.9152C36.9206 22.9582 36.9206 22.9958 36.9154 23.0388C36.9154 23.0603 36.9154 23.0818 36.9154 23.1087C36.9154 23.1463 36.9154 23.1893 36.9102 23.2269C36.9102 23.2484 36.9102 23.2753 36.9102 23.2968C36.9102 23.3398 36.9102 23.3828 36.9049 23.4258C36.9049 23.4419 36.9049 23.4634 36.9049 23.4796C36.8997 23.5978 36.8944 23.7161 36.8839 23.8343C36.8839 23.8558 36.8839 23.8773 36.8839 23.8935C36.8839 23.9311 36.8839 23.9741 36.8787 24.0117C36.8787 24.0332 36.8787 24.0494 36.8787 24.0709C36.8787 24.1085 36.8787 24.1461 36.8734 24.1837C36.8734 24.2052 36.8734 24.2267 36.8734 24.2482C36.8734 24.2859 36.8734 24.3235 36.8682 24.3558C36.8682 24.3773 36.8682 24.3934 36.8682 24.4095C36.8682 24.4525 36.8682 24.4955 36.8629 24.5331C36.8629 24.5439 36.8629 24.56 36.8629 24.5708C36.8629 24.6245 36.8577 24.6729 36.8525 24.7267C36.8525 24.7428 36.8525 24.7535 36.8525 24.7697C36.8525 24.8073 36.8525 24.8449 36.8472 24.8772C36.8472 24.8933 36.8472 24.9148 36.8472 24.9309C36.8472 24.9632 36.8472 24.9954 36.842 25.0223C36.842 25.0438 36.842 25.0599 36.842 25.0761C36.842 25.1083 36.842 25.1406 36.8367 25.1728C36.8367 25.1889 36.8367 25.2051 36.8367 25.2212C36.8367 25.2588 36.8367 25.2911 36.8315 25.3233C36.8315 25.3341 36.8315 25.3448 36.8315 25.3609C36.8315 25.4039 36.8262 25.4469 36.821 25.49C36.821 25.5007 36.821 25.5061 36.821 25.5168C36.821 25.5545 36.821 25.5867 36.8105 25.619C36.8105 25.6351 36.8105 25.6458 36.8105 25.662C36.8105 25.6888 36.8105 25.7157 36.8053 25.7426C36.8053 25.7587 36.8053 25.7748 36.8053 25.7856C36.8053 25.8125 36.8053 25.834 36.8 25.8555C36.8 25.8716 36.8 25.8824 36.8 25.8985C36.8 25.9254 36.8 25.9469 36.7948 25.9737C36.7948 25.9845 36.7948 25.9952 36.7948 26.006C36.7948 26.0436 36.7895 26.0759 36.7843 26.1081C36.7843 26.1135 36.7843 26.1189 36.7843 26.1242C40.5136 25.9952 41.2112 22.6141 41.2112 22.6141C41.2112 22.6141 40.9647 17.8301 40.629 17.2388" fill="#F3F1F9"/>
<path d="M12.0166 17.2442C12.3471 16.6475 14.7127 15.9057 14.7127 15.9057C14.7127 15.3789 14.9959 14.922 15.4155 14.6801C15.3788 14.8037 15.3631 14.9327 15.3631 15.0618V15.0833C15.3683 15.3305 15.3788 15.7176 15.3945 16.2067C15.405 16.6099 15.4207 17.0829 15.4365 17.5989C15.4365 17.5989 15.4365 17.6043 15.4365 17.6097C15.447 17.9161 15.4575 18.2332 15.468 18.5611C15.468 18.5719 15.468 18.588 15.468 18.5987C15.468 18.6417 15.468 18.6848 15.468 18.7224C15.468 18.7439 15.468 18.7654 15.468 18.7869C15.468 18.8299 15.468 18.8729 15.468 18.9213C15.468 18.9266 15.468 18.932 15.468 18.9428C15.468 18.9965 15.468 19.0449 15.468 19.0987C15.468 19.0987 15.468 19.104 15.468 19.1094C15.468 19.2008 15.4732 19.2975 15.4784 19.3943C15.4784 19.4212 15.4784 19.4427 15.4784 19.4642C15.4784 19.5018 15.4784 19.5394 15.4784 19.5771C15.4784 19.6039 15.4784 19.6254 15.4784 19.6523C15.4784 19.6899 15.4784 19.7222 15.4784 19.7598C15.4784 19.7921 15.4784 19.8243 15.4784 19.8566C15.4784 19.8888 15.4784 19.9211 15.4784 19.9533C15.4784 19.9856 15.4784 20.0178 15.4784 20.0555C15.4784 20.0877 15.4784 20.12 15.4784 20.1576C15.4784 20.1898 15.4784 20.2167 15.4784 20.249C15.4784 20.3081 15.4784 20.3672 15.4837 20.4264C15.4837 20.464 15.4837 20.5016 15.4837 20.5339C15.4837 20.5661 15.4837 20.5984 15.4837 20.6253C15.4837 20.6629 15.4837 20.7005 15.4837 20.7328C15.4837 20.765 15.4837 20.7973 15.4837 20.8241C15.4837 20.8618 15.4837 20.894 15.4837 20.9316C15.4837 20.9639 15.4837 20.9962 15.4837 21.023C15.4837 21.0607 15.4837 21.1037 15.4837 21.1413C15.4837 21.1682 15.4837 21.195 15.4837 21.2219C15.4837 21.2757 15.4837 21.3241 15.4889 21.3778C15.4889 21.3939 15.4889 21.4047 15.4889 21.4208C15.4889 21.4853 15.4889 21.5498 15.4942 21.6143C15.4942 21.6358 15.4942 21.6573 15.4942 21.6734C15.4942 21.7165 15.4942 21.7648 15.4994 21.8078C15.4994 21.8347 15.4994 21.8616 15.4994 21.8885C15.4994 21.9261 15.4994 21.9691 15.4994 22.0067C15.4994 22.0336 15.4994 22.0605 15.4994 22.082C15.4994 22.125 15.4994 22.168 15.5047 22.2056C15.5047 22.2271 15.5047 22.2486 15.5047 22.2701C15.5047 22.3185 15.5047 22.3615 15.5099 22.4099C15.5099 22.4314 15.5099 22.4529 15.5099 22.469C15.5099 22.5335 15.5152 22.598 15.5204 22.6625C15.5204 22.6733 15.5204 22.6786 15.5204 22.6894C15.5204 22.7378 15.5204 22.7915 15.5257 22.8453C15.5257 22.8722 15.5257 22.8937 15.5257 22.9152C15.5257 22.9582 15.5257 22.9958 15.5309 23.0388C15.5309 23.0603 15.5309 23.0818 15.5309 23.1087C15.5309 23.1463 15.5309 23.1893 15.5361 23.2269C15.5361 23.2484 15.5361 23.2753 15.5361 23.2968C15.5361 23.3398 15.5361 23.3828 15.5414 23.4258C15.5414 23.4419 15.5414 23.4634 15.5414 23.4796C15.5466 23.5978 15.5519 23.7161 15.5624 23.8343C15.5624 23.8558 15.5624 23.8773 15.5624 23.8935C15.5624 23.9311 15.5624 23.9741 15.5676 24.0117C15.5676 24.0332 15.5676 24.0494 15.5676 24.0709C15.5676 24.1085 15.5676 24.1461 15.5729 24.1837C15.5729 24.2052 15.5729 24.2267 15.5729 24.2482C15.5729 24.2859 15.5729 24.3235 15.5781 24.3558C15.5781 24.3773 15.5781 24.3934 15.5781 24.4095C15.5781 24.4525 15.5781 24.4955 15.5833 24.5331C15.5833 24.5439 15.5833 24.56 15.5833 24.5708C15.5833 24.6245 15.5886 24.6729 15.5938 24.7267C15.5938 24.7428 15.5938 24.7535 15.5938 24.7697C15.5938 24.8073 15.5938 24.8449 15.5991 24.8772C15.5991 24.8933 15.5991 24.9148 15.5991 24.9309C15.5991 24.9632 15.5991 24.9954 15.6043 25.0223C15.6043 25.0438 15.6043 25.0599 15.6043 25.0761C15.6043 25.1083 15.6043 25.1406 15.6096 25.1728C15.6096 25.1889 15.6096 25.2051 15.6096 25.2212C15.6096 25.2588 15.6096 25.2911 15.6148 25.3233V25.3609C15.6201 25.4039 15.6253 25.4469 15.6306 25.49C15.6306 25.5007 15.6306 25.5061 15.6306 25.5168C15.6306 25.5545 15.6306 25.5867 15.641 25.619C15.641 25.6351 15.641 25.6458 15.641 25.662C15.641 25.6888 15.641 25.7157 15.6463 25.7426C15.6463 25.7587 15.6463 25.7748 15.6463 25.7856C15.6463 25.8125 15.6463 25.834 15.6515 25.8555C15.6515 25.8716 15.6515 25.8824 15.6515 25.8985C15.6515 25.9254 15.6515 25.9469 15.6568 25.9737C15.6568 25.9845 15.6568 25.9952 15.6568 26.006C15.6568 26.0436 15.662 26.0759 15.6673 26.1081C15.6673 26.1135 15.6673 26.1189 15.6673 26.1242C11.938 25.9952 11.2456 22.6141 11.2456 22.6141C11.2456 22.6141 11.4921 17.8301 11.8226 17.2388" fill="#F3F1F9"/>
<path d="M26.2258 13.2556C21.2534 13.2556 17.2251 14.277 17.2251 15.5294C17.2251 15.5294 17.5031 25.8447 17.7863 26.9521C18.0643 28.0594 20.9439 32.0586 22.6748 32.6768C23.535 33.1606 24.8043 33.467 26.2258 33.4724C27.6472 33.4724 28.9165 33.1606 29.7768 32.6768C31.5077 32.0586 34.3872 28.0594 34.6652 26.9521C34.9432 25.8447 35.2265 15.5294 35.2265 15.5294C35.2265 14.2716 31.1982 13.2556 26.2258 13.2556Z" fill="#F3F1F9"/>
<path d="M10.8522 42.3417V42.3202C12.6251 41.3043 14.9015 40.455 16.9209 39.8099L19.3336 40.713C21.5996 41.4225 23.6819 41.8095 26.2258 41.8095C28.3081 41.8095 30.3222 41.5461 32.2367 41.0624L35.4835 39.8314C35.4835 39.8314 35.5202 39.8153 35.5412 39.8099C35.5412 39.8099 35.5412 39.8099 35.5464 39.8099C37.5606 40.455 39.8317 41.3043 41.6098 42.3202C44.2639 43.8468 46.598 45.7497 48.5229 47.9428H52.4463C50.2853 43.1373 46.4721 39.0681 41.6098 36.2837C39.8317 35.2677 37.5606 34.4184 35.5464 33.768C35.5464 33.768 35.5464 33.768 35.5412 33.768C35.5202 33.7788 35.5045 33.7841 35.4835 33.7895L32.2367 35.0205C30.3275 35.5042 28.3134 35.7676 26.2258 35.7676C23.6766 35.7676 21.5996 35.3806 19.3336 34.6711L16.9209 33.768C14.9015 34.413 12.6251 35.2624 10.8522 36.2783V36.2998C5.98997 39.0842 2.16625 43.148 0 47.9428H3.93911C5.86933 45.7551 8.20342 43.8576 10.8522 42.3417Z" fill="#F3F1F9"/>
<path d="M35.8401 46.1528H16.6166V47.9428H35.8401V46.1528Z" fill="#F3F1F9"/>
<path d="M113.815 20.0017C112.11 18.5181 109.98 17.6849 107.641 17.6849C104.174 17.6849 101.389 20.593 101.389 24.2267C101.389 27.8605 104.174 30.7686 107.641 30.7686C109.98 30.7686 112.11 29.9354 113.815 28.4518L113.946 28.5862V32.1393C112.236 33.4025 110.138 34.0529 107.641 34.0529C102.254 34.0529 97.9218 29.6075 97.9218 24.2267C97.9218 18.846 102.254 14.4006 107.641 14.4006C110.138 14.4006 112.241 15.0456 113.946 16.3142V19.8673L113.815 20.0017Z" fill="#F3F1F9"/>
<path d="M133.935 14.8037L134.066 14.9381V33.5207L133.935 33.6551H131.124L130.993 33.5207V17.9537H122.191V33.5207L122.06 33.6551H119.275L119.144 33.5207V14.9381L119.275 14.8037H133.935Z" fill="#F3F1F9"/>
<path d="M151.443 14.8037L151.575 14.9381V17.8193L151.443 17.9537H142.773V21.9422H149.209L149.34 22.0766V24.9578L149.209 25.0922H142.773V30.5052H151.994L152.125 30.6395V33.5207L151.994 33.6551H139.857L139.726 33.5207V14.9381L139.857 14.8037H151.443Z" fill="#F3F1F9"/>
<path d="M159.689 23.4742H162.29C164.158 23.4742 165.364 22.3991 165.364 20.7005C165.364 19.0019 164.158 17.9537 162.29 17.9537H159.689V23.4742ZM162.422 14.8037C166.308 14.8037 168.831 17.4699 168.831 20.7005C168.831 23.9311 166.308 26.5973 162.422 26.5973H159.689V33.5154L159.558 33.6497H156.772L156.641 33.5154V14.9381L156.746 14.8037H162.422Z" fill="#F3F1F9"/>
<path d="M171.863 14.8037L171.732 14.9381V17.8193L171.863 17.9537H177.564V33.5207L177.695 33.6551H180.481L180.612 33.5207V17.9537H186.313L186.444 17.8193V14.9381L186.313 14.8037H171.863Z" fill="#F3F1F9"/>
<path d="M84.1376 21.7272V14.9381L84.0064 14.8037H81.2212L81.0901 14.9381V33.5207L81.2212 33.6551H84.0064L84.1376 33.5207V24.8503V21.7272Z" fill="#F3F1F9"/>
<path d="M96.8256 14.9381L96.6944 14.8037H93.3061L93.0438 14.9381L89.1204 20.1415C89.1204 20.1415 89.089 20.1845 89.0313 20.2597L86.9752 22.985C86.4507 23.6785 86.0363 24.2321 86.0363 24.2321L88.5802 27.6025L93.0438 33.5207L93.3061 33.6551H96.6944L96.8256 33.5207L89.9702 24.2321L96.8256 14.9435V14.9381Z" fill="#F3F1F9"/>
<path d="M84.8037 39.5143C84.3369 39.0842 83.87 38.8907 83.3508 38.8907C82.4591 38.8907 81.8979 39.5519 81.8979 40.3797C81.8979 41.2075 82.4591 41.8687 83.3508 41.8687C83.8648 41.8687 84.3316 41.6752 84.8037 41.2451L84.8509 41.2935V42.3041C84.4785 42.589 83.9592 42.7825 83.3508 42.7825C81.8979 42.7825 80.917 41.7074 80.917 40.3851C80.917 39.0627 81.8979 37.9877 83.3508 37.9877C83.9592 37.9877 84.4732 38.1812 84.8509 38.4661V39.4713L84.8037 39.5196V39.5143Z" fill="#F3F1F9"/>
<path d="M95.7084 38.122L95.7556 38.1704V42.5836L95.7084 42.632H94.8639L94.8167 42.5836V39.0789H92.7606V42.5836L92.7134 42.632H91.8689L91.8217 42.5836V38.1704L91.8689 38.122H95.7084Z" fill="#F3F1F9"/>
<path d="M105.952 39.8475C105.905 39.3208 105.438 38.8907 104.924 38.8907C104.268 38.8907 103.802 39.3208 103.671 39.8475H105.952ZM106.886 42.1482C106.466 42.4385 105.811 42.7717 105.108 42.7717C103.749 42.7717 102.674 41.6698 102.674 40.3367C102.674 39.0036 103.566 37.9769 104.919 37.9769C106.089 37.9769 106.886 39.0305 106.886 40.3259C106.886 40.3743 106.886 40.4603 106.839 40.5678L106.744 40.6162H103.629C103.749 41.3365 104.31 41.8633 105.108 41.8633C105.716 41.8633 106.372 41.5784 106.839 41.0946L106.886 41.143V42.1482Z" fill="#F3F1F9"/>
<path d="M114.733 38.122L114.78 38.1704V41.6698H116.841V38.1704L116.888 38.122H117.733L117.78 38.1704V41.6698H118.478L118.525 41.7182V43.9274L118.478 43.9758H117.638L117.591 43.9274V42.632H113.893L113.846 42.5836V38.1704L113.893 38.122H114.733Z" fill="#F3F1F9"/>
<path d="M125.983 40.3743C125.983 41.2398 126.545 41.8633 127.342 41.8633C128.139 41.8633 128.7 41.2398 128.7 40.3743C128.7 39.5089 128.139 38.8853 127.342 38.8853C126.545 38.8853 125.983 39.5089 125.983 40.3743ZM129.681 40.3743C129.681 41.7182 128.653 42.7717 127.342 42.7717C126.031 42.7717 125.003 41.7182 125.003 40.3743C125.003 39.0305 126.031 37.9769 127.342 37.9769C128.653 37.9769 129.681 39.0305 129.681 40.3743Z" fill="#F3F1F9"/>
<path d="M137.885 40.9979C137.837 41.3795 137.78 41.573 137.754 41.6698H139.521V39.0789H138.068L137.879 40.9979H137.885ZM140.413 38.122L140.46 38.1704V41.6698H141.163L141.21 41.7182V43.9274L141.163 43.9758H140.318L140.271 43.9274V42.632H137.087V43.9274L137.04 43.9758H136.196L136.148 43.9274V41.7182L136.196 41.6698H136.663C136.804 41.4763 136.899 41.2398 136.946 40.9495L137.224 38.165L137.271 38.1167H140.408L140.413 38.122Z" fill="#F3F1F9"/>
<path d="M150.945 39.8475C150.898 39.3208 150.431 38.8907 149.917 38.8907C149.261 38.8907 148.795 39.3208 148.663 39.8475H150.945ZM151.879 42.1482C151.459 42.4385 150.803 42.7717 150.101 42.7717C148.742 42.7717 147.667 41.6698 147.667 40.3367C147.667 39.0036 148.559 37.9769 149.912 37.9769C151.081 37.9769 151.879 39.0305 151.879 40.3259C151.879 40.3743 151.879 40.4603 151.832 40.5678L151.737 40.6162H148.621C148.742 41.3365 149.303 41.8633 150.101 41.8633C150.709 41.8633 151.365 41.5784 151.832 41.0946L151.879 41.143V42.1482Z" fill="#F3F1F9"/>
<path d="M161.928 38.122L161.976 38.1704V39.7508H162.448L163.476 38.1704L163.57 38.122H164.551L164.598 38.1704L163.193 40.1862L164.787 42.5836L164.74 42.632H163.665L163.57 42.5836L162.448 40.713H161.976V42.5836L161.928 42.632H161.089L161.042 42.5836V40.713H160.575L159.447 42.5836L159.358 42.632H158.278L158.231 42.5836L159.825 40.1862L158.419 38.1704L158.467 38.122H159.447L159.542 38.1704L160.575 39.7508H161.042V38.1704L161.089 38.122H161.928Z" fill="#F3F1F9"/>
<path d="M172.969 40.9979C172.922 41.3795 172.865 41.573 172.838 41.6698H174.606V39.0789H173.153L172.964 40.9979H172.969ZM175.498 38.122L175.545 38.1704V41.6698H176.248L176.295 41.7182V43.9274L176.248 43.9758H175.403L175.356 43.9274V42.632H172.172V43.9274L172.125 43.9758H171.281L171.233 43.9274V41.7182L171.281 41.6698H171.747C171.889 41.4763 171.983 41.2398 172.031 40.9495L172.309 38.165L172.356 38.1167H175.492L175.498 38.122Z" fill="#F3F1F9"/>
<path d="M185.495 40.5195C184.514 40.5678 183.858 40.9011 183.858 41.3849C183.858 41.7182 184.094 41.8633 184.514 41.8633C184.839 41.8633 185.17 41.7665 185.495 41.5784V40.5248V40.5195ZM183.528 38.2672C183.806 38.122 184.184 37.9769 184.698 37.9769C185.726 37.9769 186.429 38.6005 186.429 39.8959V42.5836L186.381 42.632H185.537L185.49 42.5836V42.4385C185.165 42.675 184.703 42.7717 184.414 42.7717C183.617 42.7717 182.867 42.3901 182.867 41.4763C182.867 40.1324 184.226 39.7992 185.49 39.7024C185.49 39.1756 185.164 38.8853 184.645 38.8853C184.126 38.8853 183.712 39.0305 183.15 39.4121L183.103 39.3638L183.523 38.2618L183.528 38.2672Z" fill="#F3F1F9"/>
<path d="M75.3939 18.2278C73.086 12.8525 67.7884 9.07898 61.6358 9.07898C60.613 9.07898 59.6164 9.18111 58.6513 9.38V12.8525C59.606 12.5837 60.6078 12.4386 61.6358 12.4386C67.3635 12.4386 72.1157 16.8302 72.9024 22.5496H58.7038C58.6671 23.1033 58.6461 23.6623 58.6461 24.2321C58.6461 24.8019 58.6671 25.3609 58.7038 25.9146H72.9024C72.1157 31.634 67.3635 36.0257 61.6358 36.0257C60.6025 36.0257 59.6007 35.8805 58.6513 35.6117V39.0842C59.6164 39.2831 60.6183 39.3852 61.6358 39.3852C68.0507 39.3852 73.5371 35.2785 75.6719 29.5376C76.2856 27.882 76.6265 26.0974 76.6265 24.2267C76.6265 22.0927 76.1859 20.0662 75.3939 18.2225V18.2278Z" fill="#F3F1F9"/>
<path d="M37.314 9.61652C36.9311 9.3155 36.3279 7.93403 35.6985 6.69232C35.5044 6.3053 35.3051 5.9344 35.1058 5.6065C34.9694 5.38611 34.8383 5.18185 34.7072 5.02059C34.5551 4.83245 34.361 4.62281 34.1407 4.40779C34.0883 4.35942 34.0358 4.30566 33.9834 4.25728C33.9047 4.18203 33.8312 4.11215 33.7473 4.03689C33.6896 3.98314 33.6319 3.92939 33.5742 3.87563C33.5847 3.88638 33.5952 3.89713 33.6057 3.90789C33.59 3.89176 33.569 3.87563 33.5533 3.85951C33.5323 3.83801 33.5113 3.82188 33.4903 3.80038C33.5008 3.81113 33.5165 3.82188 33.527 3.83263C33.249 3.58536 32.9553 3.3381 32.6721 3.10696C32.6721 3.10696 32.6668 3.10158 32.6616 3.09621C32.6144 3.05858 32.5672 3.01558 32.5147 2.97795C32.5095 2.97795 32.5042 2.9672 32.499 2.96182C32.4518 2.9242 32.4046 2.88657 32.3626 2.85432C32.3574 2.85432 32.3469 2.84356 32.3416 2.83819C32.2944 2.80056 32.2525 2.76831 32.2105 2.73068C32.2052 2.72531 32.2 2.71993 32.1895 2.71456C32.1476 2.6823 32.1003 2.64468 32.0584 2.61242C32.0584 2.61242 32.0479 2.60705 32.0479 2.60167C32.0269 2.58555 32.0112 2.5748 31.9954 2.55867V4.76257C31.9954 5.15497 31.6545 5.47212 31.2349 5.47212H29.6613C29.2417 5.47212 28.9008 5.15497 28.9008 4.76257V0.145135C28.5808 0.0860057 28.2084 0.0376275 27.7836 0V6.73532C27.7836 7.12773 27.4426 7.44487 27.0283 7.44487H25.4547C25.0351 7.44487 24.6942 7.12773 24.6942 6.73532V0C24.2693 0.0376275 23.8969 0.0860057 23.577 0.145135V4.75719C23.577 5.14959 23.236 5.46674 22.8164 5.46674H21.2429C20.8233 5.46674 20.4823 5.14959 20.4823 4.75719V2.5533C20.4823 2.5533 20.4456 2.58017 20.4299 2.5963C20.4299 2.5963 20.4194 2.60167 20.4141 2.60705C20.3722 2.6393 20.325 2.67693 20.283 2.70918C20.2778 2.71456 20.2673 2.71993 20.262 2.72531C20.2201 2.75756 20.1729 2.79519 20.1309 2.83281C20.1257 2.83819 20.1204 2.84356 20.1099 2.84894C20.0627 2.88657 20.0208 2.9242 19.9735 2.95645C19.9683 2.95645 19.9631 2.9672 19.9578 2.97257C19.9106 3.0102 19.8634 3.0532 19.8109 3.09083C19.8109 3.09083 19.8057 3.09621 19.8005 3.10158C19.5172 3.33272 19.2235 3.57999 18.9455 3.82726C18.935 3.83801 18.9245 3.84338 18.9193 3.85413C18.9035 3.87026 18.8826 3.88638 18.8668 3.90251C18.8773 3.89176 18.8878 3.88101 18.8983 3.87026C18.8406 3.92401 18.7776 3.97777 18.72 4.03152C18.6413 4.10677 18.5626 4.18203 18.4839 4.25191C18.4315 4.30566 18.379 4.35404 18.3266 4.40242C18.1063 4.61743 17.9122 4.82707 17.7601 5.01521C17.629 5.18185 17.4978 5.38073 17.3615 5.60112C17.1674 5.92365 16.9681 6.29992 16.7688 6.68695C16.1393 7.93403 15.5361 9.31012 15.1532 9.61114C14.1252 10.4174 14.099 13.3094 14.1095 14.0888C14.8753 12.7073 20.0103 11.6377 26.2363 11.6323C32.4623 11.6323 37.5973 12.7073 38.3631 14.0888C38.3736 13.3094 38.3473 10.4174 37.3193 9.61114L37.314 9.61652Z" fill="#F3F1F9"/>
</g>
<defs>
<clipPath id="clip0_389_5823">
<rect width="186.444" height="47.9428" fill="white"/>
</clipPath>
</defs>
</svg>
