<svg width="366" height="619" viewBox="0 0 366 619" fill="none" xmlns="http://www.w3.org/2000/svg">
<g clip-path="url(#clip0_530_834)">
<path d="M182.377 223.924C178.125 216.245 147.681 206.698 147.681 206.698C147.681 199.919 144.036 194.039 138.636 190.926C139.108 192.517 139.311 194.177 139.311 195.837V196.114C139.243 199.296 139.108 204.277 138.906 210.572C138.771 215.761 138.568 221.849 138.366 228.49C138.366 228.49 138.366 228.559 138.366 228.628C138.231 232.571 138.096 236.653 137.961 240.873C137.961 241.011 137.961 241.218 137.961 241.357C137.961 241.91 137.961 242.464 137.961 242.948C137.961 243.225 137.961 243.501 137.961 243.778C137.961 244.331 137.961 244.885 137.961 245.508C137.961 245.577 137.961 245.646 137.961 245.784C137.961 246.476 137.961 247.099 137.961 247.79V247.929C137.961 249.105 137.893 250.35 137.826 251.595C137.826 251.941 137.826 252.218 137.826 252.495C137.826 252.979 137.826 253.463 137.826 253.947C137.826 254.293 137.826 254.57 137.826 254.916C137.826 255.4 137.826 255.815 137.826 256.299C137.826 256.714 137.826 257.129 137.826 257.545C137.826 257.96 137.826 258.375 137.826 258.79C137.826 259.205 137.826 259.62 137.826 260.104C137.826 260.519 137.826 260.934 137.826 261.419C137.826 261.834 137.826 262.179 137.826 262.595C137.826 263.356 137.826 264.116 137.758 264.877C137.758 265.362 137.758 265.846 137.758 266.261C137.758 266.676 137.758 267.091 137.758 267.437C137.758 267.921 137.758 268.406 137.758 268.821C137.758 269.236 137.758 269.651 137.758 269.997C137.758 270.481 137.758 270.896 137.758 271.38C137.758 271.795 137.758 272.21 137.758 272.556C137.758 273.041 137.758 273.594 137.758 274.078C137.758 274.424 137.758 274.77 137.758 275.116C137.758 275.808 137.758 276.43 137.691 277.122C137.691 277.33 137.691 277.468 137.691 277.675C137.691 278.506 137.623 279.336 137.556 280.166C137.556 280.443 137.556 280.719 137.556 280.927C137.556 281.48 137.556 282.103 137.488 282.656C137.488 283.002 137.488 283.348 137.488 283.694C137.488 284.178 137.488 284.732 137.488 285.216C137.488 285.562 137.488 285.908 137.488 286.184C137.488 286.738 137.488 287.291 137.421 287.776C137.421 288.052 137.421 288.329 137.421 288.606C137.421 289.228 137.421 289.782 137.353 290.404C137.353 290.681 137.353 290.958 137.353 291.165C137.353 291.995 137.286 292.826 137.218 293.656C137.218 293.794 137.218 293.863 137.218 294.002C137.218 294.624 137.218 295.316 137.151 296.008C137.151 296.354 137.151 296.63 137.151 296.907C137.151 297.46 137.15 297.945 137.083 298.498C137.083 298.775 137.083 299.052 137.083 299.397C137.083 299.882 137.083 300.435 137.016 300.919C137.016 301.196 137.016 301.542 137.016 301.819C137.016 302.372 137.016 302.926 136.948 303.479C136.948 303.687 136.948 303.963 136.948 304.171C136.88 305.693 136.813 307.215 136.678 308.737C136.678 309.013 136.678 309.29 136.678 309.498C136.678 309.982 136.678 310.535 136.61 311.019C136.61 311.296 136.61 311.504 136.61 311.78C136.61 312.265 136.611 312.749 136.543 313.233C136.543 313.51 136.543 313.787 136.543 314.063C136.543 314.548 136.543 315.032 136.475 315.447C136.475 315.724 136.475 315.931 136.475 316.139C136.475 316.692 136.475 317.245 136.408 317.73C136.408 317.868 136.408 318.076 136.408 318.214C136.408 318.906 136.34 319.528 136.273 320.22C136.273 320.428 136.273 320.566 136.273 320.774C136.273 321.258 136.273 321.742 136.205 322.157C136.205 322.365 136.205 322.641 136.205 322.849C136.205 323.264 136.205 323.679 136.138 324.025C136.138 324.302 136.138 324.509 136.138 324.717C136.138 325.132 136.138 325.547 136.07 325.962C136.07 326.17 136.07 326.377 136.07 326.585C136.07 327.069 136.07 327.484 136.003 327.899C136.003 328.037 136.003 328.176 136.003 328.383C136.003 328.937 135.935 329.49 135.868 330.043C135.868 330.182 135.868 330.251 135.868 330.389C135.868 330.874 135.868 331.289 135.733 331.704C135.733 331.911 135.733 332.05 135.733 332.257C135.733 332.603 135.733 332.949 135.665 333.295C135.665 333.502 135.665 333.71 135.665 333.848C135.665 334.194 135.665 334.471 135.598 334.748C135.598 334.955 135.598 335.094 135.598 335.301C135.598 335.647 135.598 335.924 135.53 336.27C135.53 336.408 135.53 336.546 135.53 336.685C135.53 337.169 135.463 337.584 135.395 337.999C135.395 338.068 135.395 338.137 135.395 338.207C183.39 336.546 192.368 293.033 192.368 293.033C192.368 293.033 189.195 231.464 184.875 223.855" fill="#36275E"/>
<path d="M-0.483978 172.592C-64.4765 172.592 -116.319 185.736 -116.319 201.855C-116.319 201.855 -112.741 334.608 -109.096 348.859C-105.518 363.109 -68.4592 414.578 -46.1833 422.534C-35.1129 428.76 -18.7772 432.703 -0.483978 432.772C17.8092 432.772 34.1449 428.76 45.2154 422.534C67.4913 414.578 104.55 363.109 108.128 348.859C111.706 334.608 115.351 201.855 115.351 201.855C115.351 185.667 63.5086 172.592 -0.483978 172.592Z" fill="#36275E"/>
<path d="M-198.337 546.915V546.638C-175.521 533.564 -146.225 522.634 -120.236 514.332L-89.185 525.954C-60.0238 535.086 -33.2252 540.067 -0.48642 540.067C26.3122 540.067 52.2332 536.677 76.8717 530.451L118.656 514.609C118.656 514.609 119.128 514.401 119.398 514.332C119.398 514.332 119.398 514.332 119.466 514.332C145.387 522.634 174.616 533.564 197.499 546.638C231.655 566.285 261.694 590.774 286.468 618.999H336.96C309.149 557.154 260.074 504.786 197.499 468.951C174.616 455.876 145.387 444.946 119.466 436.576C119.466 436.576 119.466 436.576 119.398 436.576C119.128 436.714 118.926 436.783 118.656 436.852L76.8717 452.694C52.3007 458.92 26.3797 462.31 -0.48642 462.31C-33.2927 462.31 -60.0238 457.329 -89.185 448.198L-120.236 436.576C-146.225 444.877 -175.521 455.807 -198.337 468.882V469.159C-260.912 504.993 -310.121 557.292 -338 618.999H-287.305C-262.464 590.843 -232.426 566.423 -198.337 546.915Z" fill="#36275E"/>
<path d="M123.249 595.963H-124.149V619H123.249V595.963Z" fill="#36275E"/>
<path d="M142.215 125.76C137.288 121.886 129.525 104.107 121.425 88.127C118.927 83.1462 116.362 78.3729 113.797 74.153C112.042 71.3167 110.354 68.6879 108.667 66.6126C106.709 64.1913 104.211 61.4934 101.376 58.7262C100.701 58.1036 100.026 57.4119 99.3512 56.7893C98.3387 55.8208 97.3936 54.9214 96.3136 53.9529C95.571 53.2612 94.8286 52.5694 94.086 51.8776C94.221 52.0159 94.356 52.1543 94.491 52.2927C94.2885 52.0851 94.0185 51.8776 93.816 51.6701C93.546 51.3933 93.276 51.1858 93.006 50.9091C93.1409 51.0475 93.3435 51.1858 93.4785 51.3242C89.9008 48.142 86.1207 44.9598 82.4755 41.9851C82.4755 41.9851 82.408 41.9159 82.3405 41.8467C81.733 41.3625 81.1255 40.8091 80.4505 40.3248C80.383 40.3248 80.3154 40.1865 80.2479 40.1173C79.6404 39.633 79.0329 39.1488 78.4929 38.7337C78.4254 38.7337 78.2904 38.5953 78.2229 38.5262C77.6153 38.0419 77.0753 37.6269 76.5353 37.1426C76.4678 37.0734 76.4003 37.0042 76.2653 36.9351C75.7253 36.52 75.1177 36.0358 74.5777 35.6207C74.5777 35.6207 74.4427 35.5515 74.4427 35.4823C74.1727 35.2748 73.9702 35.1364 73.7677 34.9289V63.292C73.7677 68.342 69.38 72.4236 63.9798 72.4236H43.729C38.3287 72.4236 33.9411 68.342 33.9411 63.292V3.86782C29.8234 3.10685 25.0307 2.48425 19.563 2V88.6805C19.563 93.7305 15.1753 97.812 9.84259 97.812H-10.4082C-15.8084 97.812 -20.1961 93.7305 -20.1961 88.6805V2C-25.6638 2.48425 -30.4565 3.10685 -34.5742 3.86782V63.2228C-34.5742 68.2729 -38.9619 72.3544 -44.3621 72.3544H-64.6129C-70.0131 72.3544 -74.4008 68.2729 -74.4008 63.2228V34.8597C-74.4008 34.8597 -74.8733 35.2056 -75.0758 35.4131C-75.0758 35.4131 -75.2108 35.4823 -75.2783 35.5515C-75.8184 35.9666 -76.4259 36.4508 -76.9659 36.8659C-77.0334 36.9351 -77.1684 37.0042 -77.2359 37.0734C-77.7759 37.4885 -78.3834 37.9727 -78.9235 38.457C-78.991 38.5262 -79.0585 38.5953 -79.1935 38.6645C-79.801 39.1488 -80.341 39.633 -80.9485 40.0481C-81.016 40.0481 -81.0836 40.1865 -81.1511 40.2556C-81.7586 40.7399 -82.3661 41.2933 -83.0411 41.7776C-83.0411 41.7776 -83.1086 41.8467 -83.1761 41.9159C-86.8213 44.8906 -90.6014 48.0728 -94.1791 51.255C-94.3141 51.3933 -94.4491 51.4625 -94.5166 51.6009C-94.7191 51.8084 -94.9891 52.0159 -95.1916 52.2235C-95.0566 52.0851 -94.9216 51.9468 -94.7866 51.8084C-95.5291 52.5002 -96.3392 53.192 -97.0817 53.8838C-98.0943 54.8523 -99.1068 55.8208 -100.119 56.7201C-100.794 57.4119 -101.469 58.0345 -102.144 58.6571C-104.98 61.4242 -107.477 64.1222 -109.435 66.5434C-111.122 68.6879 -112.81 71.2475 -114.565 74.0838C-117.063 78.2345 -119.628 83.077 -122.193 88.0579C-130.293 104.107 -138.056 121.817 -142.984 125.691C-156.214 136.068 -156.552 173.286 -156.417 183.316C-146.561 165.538 -80.476 151.771 -0.350311 151.702C79.7754 151.702 145.861 165.538 155.716 183.316C155.851 173.286 155.513 136.068 142.283 125.691L142.215 125.76Z" fill="#36275E"/>
</g>
<defs>
<clipPath id="clip0_530_834">
<rect width="366" height="619" fill="white"/>
</clipPath>
</defs>
</svg>
