<svg width="43" height="38" viewBox="0 0 43 38" fill="none" xmlns="http://www.w3.org/2000/svg">
<g clip-path="url(#clip0_1210_11565)">
<path d="M32.5427 14.4023C32.2809 13.9324 30.4063 13.3483 30.4063 13.3483C30.4063 12.9334 30.1818 12.5736 29.8493 12.3831C29.8784 12.4805 29.8909 12.5821 29.8909 12.6837V12.7006C29.8867 12.8953 29.8784 13.2001 29.8659 13.5853C29.8576 13.9028 29.8451 14.2753 29.8327 14.6817C29.8327 14.6817 29.8327 14.6859 29.8327 14.6902C29.8244 14.9314 29.816 15.1812 29.8077 15.4394C29.8077 15.4479 29.8077 15.4606 29.8077 15.469C29.8077 15.5029 29.8077 15.5368 29.8077 15.5664C29.8077 15.5833 29.8077 15.6003 29.8077 15.6172C29.8077 15.6511 29.8077 15.6849 29.8077 15.723C29.8077 15.7273 29.8077 15.7315 29.8077 15.74C29.8077 15.7823 29.8077 15.8204 29.8077 15.8627V15.8712C29.8077 15.9432 29.8036 16.0193 29.7994 16.0955C29.7994 16.1167 29.7994 16.1336 29.7994 16.1506C29.7994 16.1802 29.7994 16.2098 29.7994 16.2395C29.7994 16.2606 29.7994 16.2776 29.7994 16.2987C29.7994 16.3284 29.7994 16.3538 29.7994 16.3834C29.7994 16.4088 29.7994 16.4342 29.7994 16.4596C29.7994 16.485 29.7994 16.5104 29.7994 16.5358C29.7994 16.5612 29.7994 16.5866 29.7994 16.6162C29.7994 16.6416 29.7994 16.667 29.7994 16.6966C29.7994 16.722 29.7994 16.7432 29.7994 16.7686C29.7994 16.8152 29.7994 16.8617 29.7953 16.9083C29.7953 16.9379 29.7953 16.9676 29.7953 16.993C29.7953 17.0184 29.7953 17.0438 29.7953 17.0649C29.7953 17.0946 29.7953 17.1242 29.7953 17.1496C29.7953 17.175 29.7953 17.2004 29.7953 17.2215C29.7953 17.2512 29.7953 17.2766 29.7953 17.3062C29.7953 17.3316 29.7953 17.357 29.7953 17.3782C29.7953 17.4078 29.7953 17.4417 29.7953 17.4713C29.7953 17.4925 29.7953 17.5136 29.7953 17.5348C29.7953 17.5771 29.7953 17.6152 29.7911 17.6576C29.7911 17.6703 29.7911 17.6787 29.7911 17.6914C29.7911 17.7422 29.7869 17.793 29.7828 17.8438C29.7828 17.8607 29.7828 17.8777 29.7828 17.8904C29.7828 17.9242 29.7828 17.9623 29.7786 17.9962C29.7786 18.0174 29.7786 18.0385 29.7786 18.0597C29.7786 18.0893 29.7786 18.1232 29.7786 18.1528C29.7786 18.174 29.7786 18.1952 29.7786 18.2121C29.7786 18.246 29.7786 18.2798 29.7745 18.3095C29.7745 18.3264 29.7745 18.3433 29.7745 18.3602C29.7745 18.3983 29.7745 18.4322 29.7703 18.4703C29.7703 18.4872 29.7703 18.5042 29.7703 18.5169C29.7703 18.5677 29.7662 18.6185 29.762 18.6693C29.762 18.6777 29.762 18.682 29.762 18.6904C29.762 18.7285 29.762 18.7709 29.7579 18.8132C29.7579 18.8344 29.7579 18.8513 29.7579 18.8682C29.7579 18.9021 29.7579 18.9317 29.7537 18.9656C29.7537 18.9825 29.7537 18.9994 29.7537 19.0206C29.7537 19.0502 29.7537 19.0841 29.7495 19.1137C29.7495 19.1307 29.7495 19.1518 29.7495 19.1688C29.7495 19.2026 29.7495 19.2365 29.7454 19.2704C29.7454 19.2831 29.7454 19.3 29.7454 19.3127C29.7412 19.4058 29.7371 19.499 29.7288 19.5921C29.7288 19.609 29.7288 19.6259 29.7288 19.6386C29.7288 19.6683 29.7288 19.7021 29.7246 19.7318C29.7246 19.7487 29.7246 19.7614 29.7246 19.7783C29.7246 19.808 29.7246 19.8376 29.7204 19.8672C29.7204 19.8842 29.7204 19.9011 29.7204 19.918C29.7204 19.9477 29.7204 19.9773 29.7163 20.0027C29.7163 20.0196 29.7163 20.0323 29.7163 20.045C29.7163 20.0789 29.7163 20.1127 29.7121 20.1424C29.7121 20.1508 29.7121 20.1635 29.7121 20.172C29.7121 20.2143 29.708 20.2524 29.7038 20.2948C29.7038 20.3075 29.7038 20.3159 29.7038 20.3286C29.7038 20.3583 29.7038 20.3879 29.6997 20.4133C29.6997 20.426 29.6997 20.4429 29.6997 20.4556C29.6997 20.481 29.6997 20.5064 29.6955 20.5276C29.6955 20.5445 29.6955 20.5572 29.6955 20.5699C29.6955 20.5953 29.6955 20.6207 29.6913 20.6461C29.6913 20.6588 29.6913 20.6715 29.6913 20.6842C29.6913 20.7138 29.6913 20.7392 29.6872 20.7646C29.6872 20.7731 29.6872 20.7816 29.6872 20.7943C29.6872 20.8281 29.683 20.862 29.6789 20.8959C29.6789 20.9043 29.6789 20.9086 29.6789 20.917C29.6789 20.9467 29.6789 20.9721 29.6706 20.9975C29.6706 21.0102 29.6706 21.0186 29.6706 21.0313C29.6706 21.0525 29.6706 21.0737 29.6664 21.0948C29.6664 21.1075 29.6664 21.1202 29.6664 21.1287C29.6664 21.1499 29.6664 21.1668 29.6623 21.1837C29.6623 21.1964 29.6623 21.2049 29.6623 21.2176C29.6623 21.2388 29.6623 21.2557 29.6581 21.2768C29.6581 21.2853 29.6581 21.2938 29.6581 21.3022C29.6581 21.3319 29.6539 21.3573 29.6498 21.3827C29.6498 21.3869 29.6498 21.3911 29.6498 21.3954C32.6051 21.2938 33.1579 18.6312 33.1579 18.6312C33.1579 18.6312 32.9625 14.8637 32.6965 14.3981" fill="#F3F1F9"/>
<path d="M10.0226 14.4023C10.2844 13.9324 12.159 13.3483 12.159 13.3483C12.159 12.9334 12.3835 12.5736 12.716 12.3831C12.6869 12.4805 12.6744 12.5821 12.6744 12.6837V12.7006C12.6786 12.8953 12.6869 13.2001 12.6994 13.5853C12.7077 13.9028 12.7202 14.2753 12.7326 14.6817C12.7326 14.6817 12.7326 14.6859 12.7326 14.6902C12.7409 14.9314 12.7493 15.1812 12.7576 15.4394C12.7576 15.4479 12.7576 15.4606 12.7576 15.469C12.7576 15.5029 12.7576 15.5368 12.7576 15.5664C12.7576 15.5833 12.7576 15.6003 12.7576 15.6172C12.7576 15.6511 12.7576 15.6849 12.7576 15.723C12.7576 15.7273 12.7576 15.7315 12.7576 15.74C12.7576 15.7823 12.7576 15.8204 12.7576 15.8627C12.7576 15.8627 12.7576 15.867 12.7576 15.8712C12.7576 15.9432 12.7617 16.0193 12.7659 16.0955C12.7659 16.1167 12.7659 16.1336 12.7659 16.1506C12.7659 16.1802 12.7659 16.2098 12.7659 16.2395C12.7659 16.2606 12.7659 16.2776 12.7659 16.2987C12.7659 16.3284 12.7659 16.3538 12.7659 16.3834C12.7659 16.4088 12.7659 16.4342 12.7659 16.4596C12.7659 16.485 12.7659 16.5104 12.7659 16.5358C12.7659 16.5612 12.7659 16.5866 12.7659 16.6162C12.7659 16.6416 12.7659 16.667 12.7659 16.6966C12.7659 16.722 12.7659 16.7432 12.7659 16.7686C12.7659 16.8152 12.7659 16.8617 12.77 16.9083C12.77 16.9379 12.77 16.9676 12.77 16.993C12.77 17.0184 12.77 17.0438 12.77 17.0649C12.77 17.0946 12.77 17.1242 12.77 17.1496C12.77 17.175 12.77 17.2004 12.77 17.2215C12.77 17.2512 12.77 17.2766 12.77 17.3062C12.77 17.3316 12.77 17.357 12.77 17.3782C12.77 17.4078 12.77 17.4417 12.77 17.4713C12.77 17.4925 12.77 17.5136 12.77 17.5348C12.77 17.5771 12.77 17.6152 12.7742 17.6576C12.7742 17.6703 12.7742 17.6787 12.7742 17.6914C12.7742 17.7422 12.7742 17.793 12.7784 17.8438C12.7784 17.8607 12.7784 17.8777 12.7784 17.8904C12.7784 17.9242 12.7784 17.9623 12.7825 17.9962C12.7825 18.0174 12.7825 18.0385 12.7825 18.0597C12.7825 18.0893 12.7825 18.1232 12.7825 18.1528C12.7825 18.174 12.7825 18.1952 12.7825 18.2121C12.7825 18.246 12.7825 18.2798 12.7867 18.3095C12.7867 18.3264 12.7867 18.3433 12.7867 18.3602C12.7867 18.3983 12.7867 18.4322 12.7908 18.4703C12.7908 18.4872 12.7908 18.5042 12.7908 18.5169C12.7908 18.5677 12.795 18.6185 12.7991 18.6693C12.7991 18.6777 12.7991 18.682 12.7991 18.6904C12.7991 18.7285 12.7991 18.7709 12.8033 18.8132C12.8033 18.8344 12.8033 18.8513 12.8033 18.8682C12.8033 18.9021 12.8033 18.9317 12.8075 18.9656C12.8075 18.9825 12.8075 18.9994 12.8075 19.0206C12.8075 19.0502 12.8075 19.0841 12.8116 19.1137C12.8116 19.1307 12.8116 19.1518 12.8116 19.1688C12.8116 19.2026 12.8116 19.2365 12.8158 19.2704C12.8158 19.2831 12.8158 19.3 12.8158 19.3127C12.8199 19.4058 12.8241 19.499 12.8324 19.5921C12.8324 19.609 12.8324 19.6259 12.8324 19.6386C12.8324 19.6683 12.8324 19.7021 12.8365 19.7318C12.8365 19.7487 12.8365 19.7614 12.8365 19.7783C12.8365 19.808 12.8365 19.8376 12.8407 19.8672C12.8407 19.8842 12.8407 19.9011 12.8407 19.918C12.8407 19.9477 12.8407 19.9773 12.8449 20.0027C12.8449 20.0196 12.8449 20.0323 12.8449 20.045C12.8449 20.0789 12.8449 20.1127 12.849 20.1424C12.849 20.1508 12.849 20.1635 12.849 20.172C12.849 20.2143 12.8532 20.2524 12.8573 20.2948C12.8573 20.3075 12.8573 20.3159 12.8573 20.3286C12.8573 20.3583 12.8573 20.3879 12.8615 20.4133C12.8615 20.426 12.8615 20.4429 12.8615 20.4556C12.8615 20.481 12.8615 20.5064 12.8656 20.5276C12.8656 20.5445 12.8656 20.5572 12.8656 20.5699C12.8656 20.5953 12.8656 20.6207 12.8698 20.6461C12.8698 20.6588 12.8698 20.6715 12.8698 20.6842C12.8698 20.7138 12.8698 20.7392 12.874 20.7646V20.7943C12.8781 20.8281 12.8823 20.862 12.8864 20.8959C12.8864 20.9043 12.8864 20.9086 12.8864 20.917C12.8864 20.9467 12.8864 20.9721 12.8947 20.9975C12.8947 21.0102 12.8947 21.0186 12.8947 21.0313C12.8947 21.0525 12.8947 21.0737 12.8989 21.0948C12.8989 21.1075 12.8989 21.1202 12.8989 21.1287C12.8989 21.1499 12.8989 21.1668 12.9031 21.1837C12.9031 21.1964 12.9031 21.2049 12.9031 21.2176C12.9031 21.2388 12.9031 21.2557 12.9072 21.2768C12.9072 21.2853 12.9072 21.2938 12.9072 21.3022C12.9072 21.3319 12.9114 21.3573 12.9155 21.3827C12.9155 21.3869 12.9155 21.3911 12.9155 21.3954C9.96022 21.2938 9.41156 18.6312 9.41156 18.6312C9.41156 18.6312 9.60692 14.8637 9.86878 14.3981" fill="#F3F1F9"/>
<path d="M21.2827 11.2614C17.3423 11.2614 14.1501 12.0656 14.1501 13.052C14.1501 13.052 14.3704 21.1753 14.5948 22.0473C14.8151 22.9193 17.0971 26.0687 18.4687 26.5555C19.1504 26.9365 20.1563 27.1778 21.2827 27.182C22.4091 27.182 23.415 26.9365 24.0967 26.5555C25.4683 26.0687 27.7503 22.9193 27.9706 22.0473C28.1909 21.1753 28.4153 13.052 28.4153 13.052C28.4153 12.0614 25.2231 11.2614 21.2827 11.2614Z" fill="#F3F1F9"/>
<path d="M9.09988 34.1666V34.1496C10.5048 33.3496 12.3087 32.6808 13.909 32.1728L15.821 32.884C17.6166 33.4427 19.2668 33.7475 21.2827 33.7475C22.9328 33.7475 24.5289 33.5401 26.0461 33.1591L28.619 32.1897C28.619 32.1897 28.6481 32.177 28.6647 32.1728C28.6647 32.1728 28.6647 32.1728 28.6689 32.1728C30.265 32.6808 32.0648 33.3496 33.4738 34.1496C35.577 35.3518 37.4267 36.8504 38.9521 38.5775H42.0612C40.3487 34.7931 37.3269 31.5886 33.4738 29.3959C32.0648 28.5958 30.265 27.927 28.6689 27.4148C28.6689 27.4148 28.6689 27.4148 28.6647 27.4148C28.6481 27.4233 28.6356 27.4275 28.619 27.4317L26.0461 28.4011C24.5331 28.7821 22.937 28.9895 21.2827 28.9895C19.2626 28.9895 17.6166 28.6847 15.821 28.126L13.909 27.4148C12.3087 27.9228 10.5048 28.5916 9.09988 29.3916V29.4086C5.24677 31.6013 2.21665 34.8015 0.5 38.5775H3.62156C5.15117 36.8546 7.00083 35.3603 9.09988 34.1666Z" fill="#F3F1F9"/>
<path d="M28.9016 37.1679H13.6679V38.5775H28.9016V37.1679Z" fill="#F3F1F9"/>
<path d="M30.0696 8.39564C29.7662 8.15859 29.2882 7.07068 28.7894 6.09283C28.6356 5.78805 28.4776 5.49597 28.3197 5.23775C28.2116 5.06419 28.1077 4.90334 28.0038 4.77634C27.8832 4.62818 27.7294 4.46309 27.5549 4.29377C27.5133 4.25567 27.4717 4.21334 27.4302 4.17524C27.3678 4.11598 27.3096 4.06095 27.2431 4.00169C27.1974 3.95936 27.1517 3.91702 27.106 3.87469C27.1143 3.88316 27.1226 3.89163 27.1309 3.90009C27.1184 3.88739 27.1018 3.87469 27.0893 3.86199C27.0727 3.84506 27.0561 3.83236 27.0395 3.81543C27.0478 3.8239 27.0602 3.83236 27.0686 3.84083C26.8483 3.64611 26.6155 3.45138 26.391 3.26936C26.391 3.26936 26.3869 3.26513 26.3827 3.26089C26.3453 3.23126 26.3079 3.1974 26.2663 3.16777C26.2622 3.16777 26.258 3.1593 26.2539 3.15507C26.2165 3.12544 26.1791 3.0958 26.1458 3.07041C26.1417 3.07041 26.1333 3.06194 26.1292 3.05771C26.0918 3.02807 26.0585 3.00268 26.0253 2.97304C26.0211 2.96881 26.017 2.96458 26.0086 2.96035C25.9754 2.93495 25.938 2.90531 25.9047 2.87992C25.9047 2.87992 25.8964 2.87568 25.8964 2.87145C25.8798 2.85875 25.8673 2.85028 25.8548 2.83759V4.57315C25.8548 4.88217 25.5847 5.13192 25.2522 5.13192H24.0052C23.6727 5.13192 23.4025 4.88217 23.4025 4.57315V0.936925C23.1489 0.890361 22.8538 0.852264 22.5171 0.822632V6.1267C22.5171 6.43572 22.247 6.68547 21.9186 6.68547H20.6716C20.3391 6.68547 20.0689 6.43572 20.0689 6.1267V0.822632C19.7323 0.852264 19.4372 0.890361 19.1836 0.936925V4.56892C19.1836 4.87794 18.9134 5.12769 18.5809 5.12769H17.3339C17.0014 5.12769 16.7312 4.87794 16.7312 4.56892V2.83335C16.7312 2.83335 16.7022 2.85452 16.6897 2.86722C16.6897 2.86722 16.6814 2.87145 16.6772 2.87568C16.644 2.90108 16.6065 2.93071 16.5733 2.95611C16.5691 2.96034 16.5608 2.96458 16.5567 2.96881C16.5234 2.99421 16.486 3.02384 16.4528 3.05347C16.4486 3.05771 16.4444 3.06194 16.4361 3.06617C16.3987 3.0958 16.3655 3.12544 16.3281 3.15083C16.3239 3.15083 16.3197 3.1593 16.3156 3.16353C16.2782 3.19317 16.2408 3.22703 16.1992 3.25666C16.1992 3.25666 16.1951 3.26089 16.1909 3.26513C15.9664 3.44715 15.7337 3.64187 15.5134 3.8366C15.5051 3.84506 15.4968 3.84929 15.4926 3.85776C15.4801 3.87046 15.4635 3.88316 15.451 3.89586C15.4593 3.88739 15.4677 3.87893 15.476 3.87046C15.4302 3.91279 15.3804 3.95512 15.3346 3.99745C15.2723 4.05672 15.21 4.11598 15.1476 4.17101C15.106 4.21334 15.0645 4.25144 15.0229 4.28954C14.8483 4.45886 14.6945 4.62395 14.574 4.77211C14.4701 4.90334 14.3662 5.05996 14.2581 5.23352C14.1043 5.4875 13.9464 5.78382 13.7884 6.0886C13.2896 7.07068 12.8116 8.15435 12.5082 8.39141C11.6935 9.02637 11.6727 11.3038 11.6811 11.9176C12.2879 10.8297 16.3572 9.98728 21.291 9.98305C26.2248 9.98305 30.294 10.8297 30.9009 11.9176C30.9092 11.3038 30.8884 9.02637 30.0737 8.39141L30.0696 8.39564Z" fill="#F3F1F9"/>
</g>
<defs>
<clipPath id="clip0_1210_11565">
<rect width="42" height="37.8" fill="white" transform="translate(0.5 0.0999756)"/>
</clipPath>
</defs>
</svg>
